  0
SECTION
  2
HEADER
  9
$ACADVER
  1
AC1014
  9
$ACADMAINTVER
 70
     9
  9
$DWGCODEPAGE
  3
ANSI_1252
  9
$INSBASE
 10
0.0
 20
0.0
 30
0.0
  9
$EXTMIN
 10
-762.673252503461
 20
22.9416688440263
 30
-0.0000000000004738
  9
$EXTMAX
 10
-149.00039717344
 20
438.487818237451
 30
0.0031011284453591
  9
$LIMMIN
 10
0.0
 20
0.0
  9
$LIMMAX
 10
12.0
 20
9.0
  9
$ORTHOMODE
 70
     0
  9
$REGENMODE
 70
     1
  9
$FILLMODE
 70
     1
  9
$QTEXTMODE
 70
     0
  9
$MIRRTEXT
 70
     1
  9
$DRAGMODE
 70
     2
  9
$LTSCALE
 40
1.0
  9
$OSMODE
 70
   511
  9
$ATTMODE
 70
     1
  9
$TEXTSIZE
 40
0.2
  9
$TRACEWID
 40
0.05
  9
$TEXTSTYLE
  7
STANDARD
  9
$CLAYER
  8
0
  9
$CELTYPE
  6
BYBLOCK
  9
$CECOLOR
 62
   256
  9
$CELTSCALE
 40
1.0
  9
$DELOBJ
 70
     1
  9
$DISPSILH
 70
     0
  9
$DIMSCALE
 40
1.0
  9
$DIMASZ
 40
0.18
  9
$DIMEXO
 40
0.0625
  9
$DIMDLI
 40
0.38
  9
$DIMRND
 40
0.0
  9
$DIMDLE
 40
0.0
  9
$DIMEXE
 40
0.18
  9
$DIMTP
 40
0.0
  9
$DIMTM
 40
0.0
  9
$DIMTXT
 40
10.0
  9
$DIMCEN
 40
0.09
  9
$DIMTSZ
 40
0.0
  9
$DIMTOL
 70
     0
  9
$DIMLIM
 70
     0
  9
$DIMTIH
 70
     1
  9
$DIMTOH
 70
     1
  9
$DIMSE1
 70
     0
  9
$DIMSE2
 70
     0
  9
$DIMTAD
 70
     0
  9
$DIMZIN
 70
     0
  9
$DIMBLK
  1

  9
$DIMASO
 70
     1
  9
$DIMSHO
 70
     1
  9
$DIMPOST
  1

  9
$DIMAPOST
  1

  9
$DIMALT
 70
     0
  9
$DIMALTD
 70
     2
  9
$DIMALTF
 40
25.4
  9
$DIMLFAC
 40
1.0
  9
$DIMTOFL
 70
     0
  9
$DIMTVP
 40
0.0
  9
$DIMTIX
 70
     0
  9
$DIMSOXD
 70
     0
  9
$DIMSAH
 70
     0
  9
$DIMBLK1
  1

  9
$DIMBLK2
  1

  9
$DIMSTYLE
  2
STANDARD
  9
$DIMCLRD
 70
     0
  9
$DIMCLRE
 70
     0
  9
$DIMCLRT
 70
   256
  9
$DIMTFAC
 40
1.0
  9
$DIMGAP
 40
0.09
  9
$DIMJUST
 70
     0
  9
$DIMSD1
 70
     0
  9
$DIMSD2
 70
     0
  9
$DIMTOLJ
 70
     1
  9
$DIMTZIN
 70
     0
  9
$DIMALTZ
 70
     0
  9
$DIMALTTZ
 70
     0
  9
$DIMFIT
 70
     5
  9
$DIMUPT
 70
     0
  9
$DIMUNIT
 70
     2
  9
$DIMDEC
 70
     4
  9
$DIMTDEC
 70
     4
  9
$DIMALTU
 70
     2
  9
$DIMALTTD
 70
     2
  9
$DIMTXSTY
  7
STANDARD
  9
$DIMAUNIT
 70
     0
  9
$LUNITS
 70
     2
  9
$LUPREC
 70
     4
  9
$SKETCHINC
 40
0.1
  9
$FILLETRAD
 40
0.5
  9
$AUNITS
 70
     0
  9
$AUPREC
 70
     0
  9
$MENU
  1
.
  9
$ELEVATION
 40
0.0
  9
$PELEVATION
 40
0.0
  9
$THICKNESS
 40
0.0
  9
$LIMCHECK
 70
     0
  9
$CHAMFERA
 40
0.0
  9
$CHAMFERB
 40
0.0
  9
$CHAMFERC
 40
0.0
  9
$CHAMFERD
 40
0.0
  9
$SKPOLY
 70
     0
  9
$TDCREATE
 40
2456979.88458331
  9
$TDUPDATE
 40
2456980.69554397
  9
$TDINDWG
 40
0.0000000116
  9
$TDUSRTIMER
 40
2456980.652418981
  9
$USRTIMER
 70
     1
  9
$ANGBASE
 50
0.0
  9
$ANGDIR
 70
     0
  9
$PDMODE
 70
     0
  9
$PDSIZE
 40
-5.0
  9
$PLINEWID
 40
0.0
  9
$COORDS
 70
     1
  9
$SPLFRAME
 70
     0
  9
$SPLINETYPE
 70
     6
  9
$SPLINESEGS
 70
     8
  9
$ATTDIA
 70
     0
  9
$ATTREQ
 70
     1
  9
$HANDLING
 70
     1
  9
$HANDSEED
  5
22F
  9
$SURFTAB1
 70
     6
  9
$SURFTAB2
 70
     6
  9
$SURFTYPE
 70
     6
  9
$SURFU
 70
     6
  9
$SURFV
 70
     6
  9
$UCSNAME
  2

  9
$UCSORG
 10
0.0
 20
0.0
 30
0.0
  9
$UCSXDIR
 10
1.0
 20
0.0
 30
0.0
  9
$UCSYDIR
 10
0.0
 20
1.0
 30
0.0
  9
$PUCSNAME
  2

  9
$PUCSORG
 10
0.0
 20
0.0
 30
0.0
  9
$PUCSXDIR
 10
1.0
 20
0.0
 30
0.0
  9
$PUCSYDIR
 10
0.0
 20
1.0
 30
0.0
  9
$USERI1
 70
     0
  9
$USERI2
 70
     0
  9
$USERI3
 70
     0
  9
$USERI4
 70
     0
  9
$USERI5
 70
     0
  9
$USERR1
 40
0.0
  9
$USERR2
 40
0.0
  9
$USERR3
 40
0.0
  9
$USERR4
 40
0.0
  9
$USERR5
 40
0.0
  9
$WORLDVIEW
 70
     1
  9
$SHADEDGE
 70
     3
  9
$SHADEDIF
 70
    70
  9
$TILEMODE
 70
     1
  9
$MAXACTVP
 70
    64
  9
$PINSBASE
 10
0.0
 20
0.0
 30
0.0
  9
$PLIMCHECK
 70
     0
  9
$PEXTMIN
 10
1.000000000000000E+20
 20
1.000000000000000E+20
 30
1.000000000000000E+20
  9
$PEXTMAX
 10
-1.000000000000000E+20
 20
-1.000000000000000E+20
 30
-1.000000000000000E+20
  9
$PLIMMIN
 10
0.0
 20
0.0
  9
$PLIMMAX
 10
0.0
 20
0.0
  9
$UNITMODE
 70
     0
  9
$VISRETAIN
 70
     1
  9
$PLINEGEN
 70
     0
  9
$PSLTSCALE
 70
     1
  9
$TREEDEPTH
 70
  3020
  9
$PICKSTYLE
 70
     0
  9
$CMLSTYLE
  2
STANDARD
  9
$CMLJUST
 70
     0
  9
$CMLSCALE
 40
1.0
  9
$PROXYGRAPHICS
 70
     1
  9
$MEASUREMENT
 70
     0
  0
ENDSEC
  0
SECTION
  2
CLASSES
  0
CLASS
  1
ACDBDICTIONARYWDFLT
  2
AcDbDictionaryWithDefault
  3
ObjectDBX Classes
 90
        0
280
     0
281
     0
  0
CLASS
  1
SCALE
  2
AcDbScale
  3
ObjectDBX Classes
 90
     1153
280
     0
281
     0
  0
CLASS
  1
VISUALSTYLE
  2
AcDbVisualStyle
  3
ObjectDBX Classes
 90
     4095
280
     0
281
     0
  0
CLASS
  1
MATERIAL
  2
AcDbMaterial
  3
ObjectDBX Classes
 90
     1153
280
     0
281
     0
  0
CLASS
  1
TABLESTYLE
  2
AcDbTableStyle
  3
ObjectDBX Classes
 90
     4095
280
     0
281
     0
  0
CLASS
  1
SUN
  2
AcDbSun
  3
SCENEOE
 90
     1153
280
     0
281
     0
  0
CLASS
  1
RASTERVARIABLES
  2
AcDbRasterVariables
  3
ISM
 90
        0
280
     0
281
     0
  0
CLASS
  1
DICTIONARYVAR
  2
AcDbDictionaryVar
  3
ObjectDBX Classes
 90
        0
280
     0
281
     0
  0
CLASS
  1
DIMASSOC
  2
AcDbDimAssoc
  3
"AcDbDimAssoc|Product Desc:     AcDim ARX App For Dimension|Company:          Autodesk, Inc.|WEB Address:      www.autodesk.com"
 90
        0
280
     0
281
     0
  0
CLASS
  1
XRECORD
  2
AcDbXrecord
  3
ObjectDBX Classes
 90
        0
280
     0
281
     0
  0
CLASS
  1
LWPOLYLINE
  2
AcDbPolyline
  3
ObjectDBX Classes
 90
        0
280
     0
281
     1
  0
CLASS
  1
HATCH
  2
AcDbHatch
  3
ObjectDBX Classes
 90
        0
280
     0
281
     1
  0
ENDSEC
  0
SECTION
  2
TABLES
  0
TABLE
  2
VPORT
  5
8
330
0
100
AcDbSymbolTable
 70
     1
  0
VPORT
  5
53
330
8
100
AcDbSymbolTableRecord
100
AcDbViewportTableRecord
  2
*ACTIVE
 70
     0
 10
0.0
 20
0.0
 11
1.0
 21
1.0
 12
-445.606335910389
 22
256.1707574813705
 13
0.0
 23
0.0
 14
0.5
 24
0.5
 15
0.5
 25
0.5
 16
0.0
 26
0.0
 36
1.0
 17
0.0
 27
0.0
 37
0.0
 40
624.500451351649
 41
2.301369863013699
 42
50.0
 43
0.0
 44
0.0
 50
0.0
 51
0.0
 71
    16
 72
   100
 73
     1
 74
     3
 75
     0
 76
     0
 77
     0
 78
     0
  0
ENDTAB
  0
TABLE
  2
LTYPE
  5
5
330
0
100
AcDbSymbolTable
 70
     1
  0
LTYPE
  5
14
330
5
100
AcDbSymbolTableRecord
100
AcDbLinetypeTableRecord
  2
BYBLOCK
 70
     0
  3

 72
    65
 73
     0
 40
0.0
  0
LTYPE
  5
15
330
5
100
AcDbSymbolTableRecord
100
AcDbLinetypeTableRecord
  2
BYLAYER
 70
     0
  3

 72
    65
 73
     0
 40
0.0
  0
LTYPE
  5
16
330
5
100
AcDbSymbolTableRecord
100
AcDbLinetypeTableRecord
  2
CONTINUOUS
 70
     0
  3
Solid line
 72
    65
 73
     0
 40
0.0
  0
ENDTAB
  0
TABLE
  2
LAYER
  5
2
102
{ACAD_XDICTIONARY
360
A2
102
}
330
0
100
AcDbSymbolTable
 70
     4
  0
LAYER
  5
10
330
2
100
AcDbSymbolTableRecord
100
AcDbLayerTableRecord
  2
0
 70
     0
 62
     7
  6
CONTINUOUS
  0
LAYER
  5
A5
330
2
100
AcDbSymbolTableRecord
100
AcDbLayerTableRecord
  2
FIRST_CUT
 70
     0
 62
     1
  6
CONTINUOUS
1001
ACAECLAYERSTANDARD
1000

1000

  0
LAYER
  5
B5
330
2
100
AcDbSymbolTableRecord
100
AcDbLayerTableRecord
  2
DEFPOINTS
 70
     0
 62
     7
  6
CONTINUOUS
  0
LAYER
  5
CD
330
2
100
AcDbSymbolTableRecord
100
AcDbLayerTableRecord
  2
DECORATION
 70
     0
 62
     2
  6
CONTINUOUS
1001
ACAECLAYERSTANDARD
1000

1000

  0
ENDTAB
  0
TABLE
  2
STYLE
  5
3
330
0
100
AcDbSymbolTable
 70
     1
  0
STYLE
  5
11
330
3
100
AcDbSymbolTableRecord
100
AcDbTextStyleTableRecord
  2
STANDARD
 70
     0
 40
0.0
 41
1.0
 50
0.0
 71
     0
 42
0.2
  3
txt
  4

  0
ENDTAB
  0
TABLE
  2
VIEW
  5
6
330
0
100
AcDbSymbolTable
 70
     0
  0
ENDTAB
  0
TABLE
  2
UCS
  5
7
330
0
100
AcDbSymbolTable
 70
     0
  0
ENDTAB
  0
TABLE
  2
APPID
  5
9
330
0
100
AcDbSymbolTable
 70
     2
  0
APPID
  5
12
330
9
100
AcDbSymbolTableRecord
100
AcDbRegAppTableRecord
  2
ACAD
 70
     0
  0
APPID
  5
A6
330
9
100
AcDbSymbolTableRecord
100
AcDbRegAppTableRecord
  2
ACAECLAYERSTANDARD
 70
     0
  0
ENDTAB
  0
TABLE
  2
DIMSTYLE
  5
A
330
0
100
AcDbSymbolTable
 70
     1
  0
DIMSTYLE
105
20
330
A
100
AcDbSymbolTableRecord
100
AcDbDimStyleTableRecord
  2
STANDARD
 70
     0
  3

  4

  5

  6

  7

 40
1.0
 41
0.18
 42
0.0625
 43
0.38
 44
0.18
 45
0.0
 46
0.0
 47
0.0
 48
0.0
140
10.0
141
0.09
142
0.0
143
25.4
144
1.0
145
0.0
146
1.0
147
0.09
 71
     0
 72
     0
 73
     1
 74
     1
 75
     0
 76
     0
 77
     0
 78
     0
170
     0
171
     2
172
     0
173
     0
174
     0
175
     0
176
     0
177
     0
178
   256
270
     2
271
     4
272
     4
273
     2
274
     2
340
11
275
     0
280
     0
281
     0
282
     0
283
     1
284
     0
285
     0
286
     0
287
     5
288
     0
  0
ENDTAB
  0
TABLE
  2
BLOCK_RECORD
  5
1
330
0
100
AcDbSymbolTable
 70
     9
  0
BLOCK_RECORD
  5
1D
330
1
100
AcDbSymbolTableRecord
100
AcDbBlockTableRecord
  2
*MODEL_SPACE
  0
BLOCK_RECORD
  5
1B
330
1
100
AcDbSymbolTableRecord
100
AcDbBlockTableRecord
  2
*PAPER_SPACE
  0
BLOCK_RECORD
  5
B9
330
1
100
AcDbSymbolTableRecord
100
AcDbBlockTableRecord
  2
*D0
  0
BLOCK_RECORD
  5
D3
330
1
100
AcDbSymbolTableRecord
100
AcDbBlockTableRecord
  2
*D1
  0
BLOCK_RECORD
  5
E0
330
1
100
AcDbSymbolTableRecord
100
AcDbBlockTableRecord
  2
FRONT_SIDE_PANEL
  0
BLOCK_RECORD
  5
EA
330
1
100
AcDbSymbolTableRecord
100
AcDbBlockTableRecord
  2
TAIL
  0
BLOCK_RECORD
  5
F1
330
1
100
AcDbSymbolTableRecord
100
AcDbBlockTableRecord
  2
REAR_SIDE_PANEL
  0
BLOCK_RECORD
  5
FD
330
1
100
AcDbSymbolTableRecord
100
AcDbBlockTableRecord
  2
UNDERSIDE
  0
BLOCK_RECORD
  5
11E
330
1
100
AcDbSymbolTableRecord
100
AcDbBlockTableRecord
  2
TAIL_REAR_PANEL
  0
BLOCK_RECORD
  5
132
330
1
100
AcDbSymbolTableRecord
100
AcDbBlockTableRecord
  2
*D7
  0
BLOCK_RECORD
  5
142
330
1
100
AcDbSymbolTableRecord
100
AcDbBlockTableRecord
  2
*D8
  0
ENDTAB
  0
ENDSEC
  0
SECTION
  2
BLOCKS
  0
BLOCK
  5
7C
330
1D
100
AcDbEntity
  8
0
100
AcDbBlockBegin
  2
*MODEL_SPACE
 70
     0
 10
0.0
 20
0.0
 30
0.0
  3
*MODEL_SPACE
  1

  0
ENDBLK
  5
7D
330
1D
100
AcDbEntity
  8
0
100
AcDbBlockEnd
  0
BLOCK
  5
7E
330
1B
100
AcDbEntity
 67
     1
  8
0
100
AcDbBlockBegin
  2
*PAPER_SPACE
 70
     0
 10
0.0
 20
0.0
 30
0.0
  3
*PAPER_SPACE
  1

  0
ENDBLK
  5
7F
330
1B
100
AcDbEntity
 67
     1
  8
0
100
AcDbBlockEnd
  0
BLOCK
  5
BA
330
B9
100
AcDbEntity
  8
0
100
AcDbBlockBegin
  2
*D0
 70
     1
 10
0.0
 20
0.0
 30
0.0
  3
*D0
  1
*D0
  0
LINE
  5
BC
330
B9
100
AcDbEntity
  8
DECORATION
  6
BYBLOCK
 62
     0
100
AcDbLine
 10
-762.673252503461
 20
99.8791688440263
 30
0.0
 11
-762.673252503461
 21
-0.4663311820336207
 31
0.0
  0
LINE
  5
BD
330
B9
100
AcDbEntity
  8
DECORATION
  6
BYBLOCK
 62
     0
100
AcDbLine
 10
-416.066821036433
 20
99.4481444905132
 30
0.0
 11
-416.066821036433
 21
-0.4663311820336207
 31
0.0
  0
LINE
  5
BE
330
B9
100
AcDbEntity
  8
DECORATION
  6
BYBLOCK
 62
     0
100
AcDbLine
 10
-762.493252503461
 20
-0.2863311820336207
 30
0.0
 11
-623.6267034366136
 21
-0.2863311820336207
 31
0.0
  0
LINE
  5
BF
330
B9
100
AcDbEntity
  8
DECORATION
  6
BYBLOCK
 62
     0
100
AcDbLine
 10
-416.246821036433
 20
-0.2863311820336207
 30
0.0
 11
-555.1133701032803
 21
-0.2863311820336207
 31
0.0
  0
SOLID
  5
C0
330
B9
100
AcDbEntity
  8
DECORATION
 62
     0
100
AcDbTrace
 10
-762.493252503461
 20
-0.2563311820336207
 30
0.0
 11
-762.493252503461
 21
-0.3163311820336208
 31
0.0
 12
-762.673252503461
 22
-0.2863311820336207
 32
0.0
 13
-762.673252503461
 23
-0.2863311820336207
 33
0.0
  0
SOLID
  5
C1
330
B9
100
AcDbEntity
  8
DECORATION
 62
     0
100
AcDbTrace
 10
-416.246821036433
 20
-0.3163311820336208
 30
0.0
 11
-416.246821036433
 21
-0.2563311820336207
 31
0.0
 12
-416.066821036433
 22
-0.2863311820336207
 32
0.0
 13
-416.066821036433
 23
-0.2863311820336207
 33
0.0
  0
MTEXT
  5
C2
330
B9
100
AcDbEntity
  8
DECORATION
  6
BYBLOCK
100
AcDbMText
 10
-589.370036769947
 20
-0.2863311820336207
 30
0.0
 40
10.0
 41
0.0
 71
     5
 72
     1
  1
\A1;346.6064
  0
POINT
  5
C3
330
B9
100
AcDbEntity
  8
DEFPOINTS
 62
     0
100
AcDbPoint
 10
-762.673252503461
 20
99.9416688440263
 30
0.0
  0
POINT
  5
C4
330
B9
100
AcDbEntity
  8
DEFPOINTS
 62
     0
100
AcDbPoint
 10
-416.066821036433
 20
99.5106444905132
 30
0.0
  0
POINT
  5
C5
330
B9
100
AcDbEntity
  8
DEFPOINTS
 62
     0
100
AcDbPoint
 10
-416.066821036433
 20
-0.2863311820336207
 30
0.0
  0
ENDBLK
  5
BB
330
B9
100
AcDbEntity
  8
0
100
AcDbBlockEnd
  0
BLOCK
  5
D4
330
D3
100
AcDbEntity
  8
0
100
AcDbBlockBegin
  2
*D1
 70
     1
 10
0.0
 20
0.0
 30
0.0
  3
*D1
  1
*D1
  0
LINE
  5
D6
330
D3
100
AcDbEntity
  8
DECORATION
  6
BYBLOCK
 62
     0
100
AcDbLine
 10
-605.663955733736
 20
422.941668844026
 30
0.0
 11
-832.891526279813
 21
422.941668844026
 31
0.0
  0
LINE
  5
D7
330
D3
100
AcDbEntity
  8
DECORATION
  6
BYBLOCK
 62
     0
100
AcDbLine
 10
-614.663955733736
 20
22.9416688440263
 30
0.0
 11
-832.891526279813
 21
22.94166884402631
 31
0.0
  0
LINE
  5
D8
330
D3
100
AcDbEntity
  8
DECORATION
  6
BYBLOCK
 62
     0
100
AcDbLine
 10
-832.711526279813
 20
422.761668844026
 30
0.0
 11
-832.711526279813
 21
228.0316688440262
 31
0.0
  0
LINE
  5
D9
330
D3
100
AcDbEntity
  8
DECORATION
  6
BYBLOCK
 62
     0
100
AcDbLine
 10
-832.711526279813
 20
23.12166884402631
 30
0.0
 11
-832.711526279813
 21
217.8516688440261
 31
0.0
  0
SOLID
  5
DA
330
D3
100
AcDbEntity
  8
DECORATION
 62
     0
100
AcDbTrace
 10
-832.681526279813
 20
422.761668844026
 30
0.0
 11
-832.741526279813
 21
422.761668844026
 31
0.0
 12
-832.711526279813
 22
422.941668844026
 32
0.0
 13
-832.711526279813
 23
422.941668844026
 33
0.0
  0
SOLID
  5
DB
330
D3
100
AcDbEntity
  8
DECORATION
 62
     0
100
AcDbTrace
 10
-832.741526279813
 20
23.12166884402631
 30
0.0
 11
-832.681526279813
 21
23.12166884402631
 31
0.0
 12
-832.711526279813
 22
22.94166884402631
 32
0.0
 13
-832.711526279813
 23
22.94166884402631
 33
0.0
  0
MTEXT
  5
DC
330
D3
100
AcDbEntity
  8
DECORATION
  6
BYBLOCK
100
AcDbMText
 10
-832.711526279813
 20
222.9416688440262
 30
0.0
 40
10.0
 41
0.0
 71
     5
 72
     1
  1
\A1;400.0000
  0
POINT
  5
DD
330
D3
100
AcDbEntity
  8
DEFPOINTS
 62
     0
100
AcDbPoint
 10
-605.601455733736
 20
422.941668844026
 30
0.0
  0
POINT
  5
DE
330
D3
100
AcDbEntity
  8
DEFPOINTS
 62
     0
100
AcDbPoint
 10
-614.601455733736
 20
22.9416688440263
 30
0.0
  0
POINT
  5
DF
330
D3
100
AcDbEntity
  8
DEFPOINTS
 62
     0
100
AcDbPoint
 10
-832.711526279813
 20
22.94166884402631
 30
0.0
  0
ENDBLK
  5
D5
330
D3
100
AcDbEntity
  8
0
100
AcDbBlockEnd
  0
BLOCK
  5
E7
330
E0
100
AcDbEntity
  8
0
100
AcDbBlockBegin
  2
FRONT_SIDE_PANEL
 70
     0
 10
0.0
 20
0.0
 30
0.0
  3
FRONT_SIDE_PANEL
  1
FRONT_SIDE_PANEL
  0
LINE
  5
E1
330
E0
100
AcDbEntity
  8
0
100
AcDbLine
 10
-155.5263121736007
 20
399.8661933519035
 30
0.0000000000008347
 11
-150.8894122773462
 21
329.0155382030071
 31
0.0000000000008009
  0
LINE
  5
E2
330
E0
100
AcDbEntity
  8
0
100
AcDbLine
 10
-443.605060413428
 20
359.864788082707
 30
0.0000000000007558
 11
-155.5263121736007
 21
399.8661933519035
 31
0.0000000000008347
  0
LINE
  5
E3
330
E0
100
AcDbEntity
  8
0
100
AcDbLine
 10
-414.504662215584
 20
329.015538203007
 30
-0.0000000000004738
 11
-297.487076161633
 21
329.015538203007
 31
-0.0000000000002482
  0
LINE
  5
E4
330
E0
100
AcDbEntity
  8
0
100
AcDbLine
 10
-297.487076161633
 20
329.015538203007
 30
-0.0000000000002482
 11
-150.889412277346
 21
329.015538203007
 31
0.0
  0
LINE
  5
E5
330
E0
100
AcDbEntity
  8
FIRST_CUT
100
AcDbLine
 10
-443.605060413428
 20
359.864788082707
 30
0.0000000000007558
 11
-150.889412277346
 21
329.015538203007
 31
0.0
  0
LINE
  5
E6
330
E0
100
AcDbEntity
  8
0
100
AcDbLine
 10
-443.605060413428
 20
359.864788082707
 30
0.0000000000007558
 11
-414.504662215584
 21
329.015538203007
 31
-0.0000000000004738
  0
ENDBLK
  5
E8
330
E0
100
AcDbEntity
  8
0
100
AcDbBlockEnd
  0
BLOCK
  5
EE
330
EA
100
AcDbEntity
  8
0
100
AcDbBlockBegin
  2
TAIL
 70
     0
 10
0.0
 20
0.0
 30
0.0
  3
TAIL
  1
TAIL
  0
LINE
  5
EB
330
EA
100
AcDbEntity
  8
0
100
AcDbLine
 10
-282.101229418521
 20
299.235675025988
 30
0.0
 11
-421.428334625724
 21
221.235675025988
 31
0.0
  0
LINE
  5
EC
330
EA
100
AcDbEntity
  8
0
100
AcDbLine
 10
-421.428334625724
 20
221.235675025988
 30
0.0
 11
-282.10122941852
 21
221.235675025988
 31
0.0
  0
LINE
  5
ED
330
EA
100
AcDbEntity
  8
0
100
AcDbLine
 10
-282.10122941852
 20
221.235675025988
 30
0.0
 11
-282.101229418521
 21
299.235675025988
 31
0.0
  0
ENDBLK
  5
EF
330
EA
100
AcDbEntity
  8
0
100
AcDbBlockEnd
  0
BLOCK
  5
FA
330
F1
100
AcDbEntity
  8
0
100
AcDbBlockBegin
  2
REAR_SIDE_PANEL
 70
     0
 10
0.0
 20
0.0
 30
0.0
  3
REAR_SIDE_PANEL
  1
REAR_SIDE_PANEL
  0
LINE
  5
F2
330
F1
100
AcDbEntity
  8
FIRST_CUT
100
AcDbLine
 10
-383.616356763202
 20
181.193113821751
 30
0.0000000000003722
 11
-246.129398986682
 21
110.897100820962
 31
-0.0000000000001015
  0
LINE
  5
F3
330
F1
100
AcDbEntity
  8
0
100
AcDbLine
 10
-383.616356763202
 20
181.193113821751
 30
0.0000000000003722
 11
-383.424701164142
 21
110.897100820962
 31
0.0000000000000113
  0
LINE
  5
F4
330
F1
100
AcDbEntity
  8
0
100
AcDbLine
 10
-383.424701164142
 20
110.897100820962
 30
0.0000000000000113
 11
-345.843870276151
 21
110.897100820962
 31
0.0000000000000113
  0
LINE
  5
F5
330
F1
100
AcDbEntity
  8
0
100
AcDbLine
 10
-345.843870276151
 20
110.897100820962
 30
0.0000000000000113
 11
-333.316926646821
 21
110.897100820962
 31
-0.0000000000000113
  0
LINE
  5
F6
330
F1
100
AcDbEntity
  8
0
100
AcDbLine
 10
-333.316926646821
 20
110.897100820962
 30
-0.0000000000000113
 11
-313.312638382502
 21
110.897100820962
 31
-0.0000000000000338
  0
LINE
  5
F7
330
F1
100
AcDbEntity
  8
0
100
AcDbLine
 10
-313.312638382502
 20
110.897100820962
 30
-0.0000000000000338
 11
-246.129398986682
 21
110.897100820962
 31
-0.0000000000001015
  0
LINE
  5
F8
330
F1
100
AcDbEntity
  8
0
100
AcDbLine
 10
-383.616356763202
 20
181.193113821751
 30
0.0000000000003722
 11
-244.3396101039733
 21
177.4474382565134
 31
0.0000000000003722
  0
LINE
  5
F9
330
F1
100
AcDbEntity
  8
0
100
AcDbLine
 10
-244.3396101039733
 20
177.4474382565134
 30
0.0000000000003722
 11
-246.1293989866829
 21
110.8971008209625
 31
0.0000000000004174
  0
ENDBLK
  5
FB
330
F1
100
AcDbEntity
  8
0
100
AcDbBlockEnd
  0
BLOCK
  5
110
330
FD
100
AcDbEntity
  8
0
100
AcDbBlockBegin
  2
UNDERSIDE
 70
     0
 10
0.0
 20
0.0
 30
0.0
  3
UNDERSIDE
  1
UNDERSIDE
  0
LINE
  5
FE
330
FD
100
AcDbEntity
  8
0
100
AcDbLine
 10
-560.202628754264
 20
89.9015906426578
 30
0.0
 11
-564.601455733736
 21
22.9416688440263
 31
0.0000000000000056
  0
LINE
  5
FF
330
FD
100
AcDbEntity
  8
FIRST_CUT
100
AcDbLine
 10
-558.064959383371
 20
122.441668844026
 30
0.0
 11
-558.886127266583
 21
109.941668844026
 31
0.0
  0
LINE
  5
100
330
FD
100
AcDbEntity
  8
FIRST_CUT
100
AcDbLine
 10
-749.682871446694
 20
122.441668844026
 30
0.0
 11
-621.137952084101
 21
122.441668844026
 31
0.0
  0
LINE
  5
101
330
FD
100
AcDbEntity
  8
0
100
AcDbLine
 10
-573.601455733736
 20
422.941668844026
 30
0.0
 11
-605.601455733736
 21
422.941668844026
 31
0.0
  0
LINE
  5
102
330
FD
100
AcDbEntity
  8
FIRST_CUT
100
AcDbLine
 10
-558.064959383371
 20
122.441668844026
 30
0.0
 11
-429.306054119727
 21
122.441668844026
 31
0.0
  0
LINE
  5
103
330
FD
100
AcDbEntity
  8
0
100
AcDbLine
 10
-762.673252503461
 20
99.9416688440263
 30
0.0
 11
-749.682871446694
 21
122.441668844026
 31
0.0
  0
LINE
  5
104
330
FD
100
AcDbEntity
  8
0
100
AcDbLine
 10
-429.306054119727
 20
122.441668844026
 30
0.0
 11
-416.066821036433
 21
99.5106444905132
 31
0.0
  0
LINE
  5
105
330
FD
100
AcDbEntity
  8
0
100
AcDbLine
 10
-619.005460422701
 20
89.9804068871579
 30
0.0
 11
-762.673252503461
 21
99.9416688440263
 31
0.0
  0
LINE
  5
106
330
FD
100
AcDbEntity
  8
FIRST_CUT
100
AcDbLine
 10
-558.886127266583
 20
109.941668844026
 30
0.0
 11
-560.202628754264
 21
89.9015906426578
 31
0.0
  0
LINE
  5
107
330
FD
100
AcDbEntity
  8
0
100
AcDbLine
 10
-605.601455733736
 20
422.941668844026
 30
0.0
 11
-609.556998013843
 21
365.146801084691
 31
0.0
  0
LINE
  5
108
330
FD
100
AcDbEntity
  8
0
100
AcDbLine
 10
-614.601455733736
 20
22.9416688440263
 30
0.0000000000000056
 11
-564.601455733736
 21
22.9416688440263
 31
0.0000000000000056
  0
LINE
  5
109
330
FD
100
AcDbEntity
  8
0
100
AcDbLine
 10
-416.066821036433
 20
99.5106444905132
 30
0.0
 11
-560.202628754264
 21
89.9015906426578
 31
0.0
  0
LINE
  5
10A
330
FD
100
AcDbEntity
  8
FIRST_CUT
100
AcDbLine
 10
-620.316784200889
 20
109.941668844026
 30
0.0
 11
-619.005460422701
 21
89.9804068871579
 31
0.0
  0
LINE
  5
10B
330
FD
100
AcDbEntity
  8
FIRST_CUT
100
AcDbLine
 10
-621.137952084101
 20
122.441668844026
 30
0.0
 11
-620.316784200889
 21
109.941668844026
 31
0.0
  0
LINE
  5
10C
330
FD
100
AcDbEntity
  8
0
100
AcDbLine
 10
-749.682871446694
 20
122.441668844026
 30
0.0
 11
-609.556998013843
 21
365.146801084691
 31
0.0
  0
LINE
  5
10D
330
FD
100
AcDbEntity
  8
0
100
AcDbLine
 10
-619.005460422701
 20
89.9804068871579
 30
0.0
 11
-614.601455733736
 21
22.9416688440263
 31
0.0000000000000056
  0
LINE
  5
10E
330
FD
100
AcDbEntity
  8
0
100
AcDbLine
 10
-569.67469152004
 20
365.567280610581
 30
0.0
 11
-573.601455733736
 21
422.941668844026
 31
0.0
  0
LINE
  5
10F
330
FD
100
AcDbEntity
  8
0
100
AcDbLine
 10
-569.67469152004
 20
365.567280610581
 30
0.0
 11
-429.306054119727
 21
122.441668844026
 31
0.0
  0
ENDBLK
  5
111
330
FD
100
AcDbEntity
  8
0
100
AcDbBlockEnd
  0
BLOCK
  5
129
330
11E
100
AcDbEntity
  8
0
100
AcDbBlockBegin
  2
TAIL_REAR_PANEL
 70
     0
 10
0.0
 20
0.0
 30
0.0
  3
TAIL_REAR_PANEL
  1
TAIL_REAR_PANEL
  0
LINE
  5
11F
330
11E
100
AcDbEntity
  8
FIRST_CUT
100
AcDbLine
 10
-755.9932891918605
 20
270.9162216952083
 30
0.000000000000361
 11
-685.6972761910715
 21
408.4031794717283
 31
-0.0000000000001128
  0
LINE
  5
120
330
11E
100
AcDbEntity
  8
0
100
AcDbLine
 10
-755.9932891918605
 20
270.9162216952083
 30
0.000000000000361
 11
-685.6972761910715
 21
271.1078772942683
 31
0.0
  0
LINE
  5
121
330
11E
100
AcDbEntity
  8
0
100
AcDbLine
 10
-685.6972761910715
 20
271.1078772942683
 30
0.0
 11
-685.6972761910715
 21
308.6887081822593
 31
0.0
  0
LINE
  5
122
330
11E
100
AcDbEntity
  8
0
100
AcDbLine
 10
-685.6972761910715
 20
308.6887081822593
 30
0.0
 11
-685.6972761910715
 21
321.2156518115893
 31
-0.0000000000000226
  0
LINE
  5
123
330
11E
100
AcDbEntity
  8
0
100
AcDbLine
 10
-685.6972761910715
 20
321.2156518115893
 30
-0.0000000000000226
 11
-685.6972761910715
 21
341.2199400759083
 31
-0.0000000000000451
  0
LINE
  5
124
330
11E
100
AcDbEntity
  8
0
100
AcDbLine
 10
-685.6972761910715
 20
341.2199400759083
 30
-0.0000000000000451
 11
-685.6972761910715
 21
408.4031794717283
 31
-0.0000000000001128
  0
LINE
  5
125
330
11E
100
AcDbEntity
  8
FIRST_CUT
100
AcDbLine
 10
-755.9932891918605
 20
270.9162216952083
 30
0.000000000000361
 11
-752.247613626623
 21
410.192968354437
 31
0.000000000000361
  0
LINE
  5
126
330
11E
100
AcDbEntity
  8
0
100
AcDbLine
 10
-752.247613626623
 20
410.192968354437
 30
0.000000000000361
 11
-685.697276191072
 21
408.4031794717274
 31
0.0000000000004061
  0
LINE
  5
127
330
11E
100
AcDbEntity
  8
0
100
AcDbLine
 10
-830.2194212175712
 20
412.2899235280483
 30
0.000000000000361
 11
-755.9932891918605
 21
270.9162216952083
 31
0.000000000000361
  0
LINE
  5
128
330
11E
100
AcDbEntity
  8
0
100
AcDbLine
 10
-752.247613626623
 20
410.192968354438
 30
0.000000000000361
 11
-830.2194212175712
 21
412.2899235280483
 31
0.000000000000361
  0
ENDBLK
  5
12A
330
11E
100
AcDbEntity
  8
0
100
AcDbBlockEnd
  0
BLOCK
  5
133
330
132
100
AcDbEntity
  8
0
100
AcDbBlockBegin
  2
*D7
 70
     1
 10
0.0
 20
0.0
 30
0.0
  3
*D7
  1
*D7
  0
LINE
  5
135
330
132
100
AcDbEntity
  8
DECORATION
  6
BYBLOCK
 62
     0
100
AcDbLine
 10
-785.9602795702544
 20
426.20632028198
 30
0.0
 11
-785.9602795702544
 21
483.2317803614287
 31
0.0
  0
LINE
  5
136
330
132
100
AcDbEntity
  8
DECORATION
  6
BYBLOCK
 62
     0
100
AcDbLine
 10
-403.84584814961
 20
426.20632028198
 30
0.0
 11
-403.84584814961
 21
483.2317803614287
 31
0.0
  0
LINE
  5
137
330
132
100
AcDbEntity
  8
DECORATION
  6
BYBLOCK
 62
     0
100
AcDbLine
 10
-785.7802795702545
 20
483.0517803614287
 30
0.0
 11
-626.6597305265989
 21
483.0517803614287
 31
0.0
  0
LINE
  5
138
330
132
100
AcDbEntity
  8
DECORATION
  6
BYBLOCK
 62
     0
100
AcDbLine
 10
-404.02584814961
 20
483.0517803614287
 30
0.0
 11
-563.1463971932656
 21
483.0517803614287
 31
0.0
  0
SOLID
  5
139
330
132
100
AcDbEntity
  8
DECORATION
 62
     0
100
AcDbTrace
 10
-785.7802795702545
 20
483.0817803614287
 30
0.0
 11
-785.7802795702545
 21
483.0217803614287
 31
0.0
 12
-785.9602795702544
 22
483.0517803614287
 32
0.0
 13
-785.9602795702544
 23
483.0517803614287
 33
0.0
  0
SOLID
  5
13A
330
132
100
AcDbEntity
  8
DECORATION
 62
     0
100
AcDbTrace
 10
-404.02584814961
 20
483.0217803614287
 30
0.0
 11
-404.02584814961
 21
483.0817803614287
 31
0.0
 12
-403.84584814961
 22
483.0517803614287
 32
0.0
 13
-403.84584814961
 23
483.0517803614287
 33
0.0
  0
MTEXT
  5
13B
330
132
100
AcDbEntity
  8
DECORATION
  6
BYBLOCK
100
AcDbMText
 10
-594.9030638599322
 20
483.0517803614287
 30
0.0
 40
10.0
 41
0.0
 71
     5
 72
     1
  1
\A1;382.1144
  0
POINT
  5
13C
330
132
100
AcDbEntity
  8
DEFPOINTS
 62
     0
100
AcDbPoint
 10
-785.9602795702544
 20
426.14382028198
 30
0.0
  0
POINT
  5
13D
330
132
100
AcDbEntity
  8
DEFPOINTS
 62
     0
100
AcDbPoint
 10
-403.84584814961
 20
426.14382028198
 30
0.0
  0
POINT
  5
13E
330
132
100
AcDbEntity
  8
DEFPOINTS
 62
     0
100
AcDbPoint
 10
-403.84584814961
 20
483.0517803614287
 30
0.0
  0
ENDBLK
  5
134
330
132
100
AcDbEntity
  8
0
100
AcDbBlockEnd
  0
BLOCK
  5
143
330
142
100
AcDbEntity
  8
0
100
AcDbBlockBegin
  2
*D8
 70
     1
 10
0.0
 20
0.0
 30
0.0
  3
*D8
  1
*D8
  0
LINE
  5
145
330
142
100
AcDbEntity
  8
DECORATION
  6
BYBLOCK
 62
     0
100
AcDbLine
 10
-403.78334814961
 20
426.14382028198
 30
0.0
 11
-333.8955669875136
 21
426.14382028198
 31
0.0
  0
LINE
  5
146
330
142
100
AcDbEntity
  8
DECORATION
  6
BYBLOCK
 62
     0
100
AcDbLine
 10
-403.78334814961
 20
8.384385930305484
 30
0.0
 11
-333.8955669875136
 21
8.38438593030548
 31
0.0
  0
LINE
  5
147
330
142
100
AcDbEntity
  8
DECORATION
  6
BYBLOCK
 62
     0
100
AcDbLine
 10
-334.0755669875136
 20
425.96382028198
 30
0.0
 11
-334.0755669875136
 21
222.3541031061427
 31
0.0
  0
LINE
  5
148
330
142
100
AcDbEntity
  8
DECORATION
  6
BYBLOCK
 62
     0
100
AcDbLine
 10
-334.0755669875136
 20
8.56438593030548
 30
0.0
 11
-334.0755669875136
 21
212.1741031061428
 31
0.0
  0
SOLID
  5
149
330
142
100
AcDbEntity
  8
DECORATION
 62
     0
100
AcDbTrace
 10
-334.0455669875137
 20
425.96382028198
 30
0.0
 11
-334.1055669875136
 21
425.96382028198
 31
0.0
 12
-334.0755669875136
 22
426.14382028198
 32
0.0
 13
-334.0755669875136
 23
426.14382028198
 33
0.0
  0
SOLID
  5
14A
330
142
100
AcDbEntity
  8
DECORATION
 62
     0
100
AcDbTrace
 10
-334.1055669875136
 20
8.56438593030548
 30
0.0
 11
-334.0455669875137
 21
8.56438593030548
 31
0.0
 12
-334.0755669875136
 22
8.38438593030548
 32
0.0
 13
-334.0755669875136
 23
8.38438593030548
 33
0.0
  0
MTEXT
  5
14B
330
142
100
AcDbEntity
  8
DECORATION
  6
BYBLOCK
100
AcDbMText
 10
-334.0755669875136
 20
217.2641031061427
 30
0.0
 40
10.0
 41
0.0
 71
     5
 72
     1
  1
\A1;417.7594
  0
POINT
  5
14C
330
142
100
AcDbEntity
  8
DEFPOINTS
 62
     0
100
AcDbPoint
 10
-403.84584814961
 20
426.14382028198
 30
0.0
  0
POINT
  5
14D
330
142
100
AcDbEntity
  8
DEFPOINTS
 62
     0
100
AcDbPoint
 10
-403.84584814961
 20
8.384385930305484
 30
0.0
  0
POINT
  5
14E
330
142
100
AcDbEntity
  8
DEFPOINTS
 62
     0
100
AcDbPoint
 10
-334.0755669875136
 20
8.38438593030548
 30
0.0
  0
ENDBLK
  5
144
330
142
100
AcDbEntity
  8
0
100
AcDbBlockEnd
  0
ENDSEC
  0
SECTION
  2
ENTITIES
  0
LINE
  5
20B
330
1D
100
AcDbEntity
  8
0
100
AcDbLine
 10
-612.8681453371714
 20
384.2823288397782
 30
0.0
 11
-676.6352436553987
 21
415.5084933136495
 31
-0.0000000000000338
  0
LINE
  5
20C
330
1D
100
AcDbEntity
  8
0
100
AcDbLine
 10
-759.3933806336745
 20
133.0457211723431
 30
-0.0000000000000789
 11
-612.8681453371714
 21
384.2823288397782
 31
0.0
  0
LINE
  5
20D
330
1D
100
AcDbEntity
  8
0
100
AcDbLine
 10
-776.8619786471824
 20
171.6897048807513
 30
-0.0000000000013085
 11
-732.3717961195957
 21
279.9197335444999
 31
-0.0000000000010829
  0
LINE
  5
20E
330
1D
100
AcDbEntity
  8
0
100
AcDbLine
 10
-732.3717961195957
 20
279.9197335444999
 30
-0.0000000000010829
 11
-676.6352436553987
 21
415.5084933136497
 31
-0.0000000000008347
  0
LINE
  5
20F
330
1D
100
AcDbEntity
  8
FIRST_CUT
100
AcDbLine
 10
-759.3933806336745
 20
133.0457211723431
 30
-0.0000000000000789
 11
-676.6352436553987
 21
415.5084933136497
 31
-0.0000000000008347
  0
LINE
  5
210
330
1D
100
AcDbEntity
  8
0
100
AcDbLine
 10
-759.3933806336745
 20
133.0457211723431
 30
-0.0000000000000789
 11
-776.8619786471824
 21
171.6897048807513
 31
-0.0000000000013085
  0
LINE
  5
211
330
1D
100
AcDbEntity
  8
0
100
AcDbLine
 10
-560.202628754264
 20
89.9015906426578
 30
0.0
 11
-564.601455733736
 21
22.9416688440263
 31
0.0000000000000056
  0
LINE
  5
212
330
1D
100
AcDbEntity
  8
FIRST_CUT
100
AcDbLine
 10
-558.064959383371
 20
122.441668844026
 30
0.0
 11
-558.886127266583
 21
109.941668844026
 31
0.0
  0
LINE
  5
213
330
1D
100
AcDbEntity
  8
FIRST_CUT
100
AcDbLine
 10
-749.682871446694
 20
122.441668844026
 30
0.0
 11
-621.137952084101
 21
122.441668844026
 31
0.0
  0
LINE
  5
214
330
1D
100
AcDbEntity
  8
0
100
AcDbLine
 10
-573.601455733736
 20
422.941668844026
 30
0.0
 11
-605.601455733736
 21
422.941668844026
 31
0.0
  0
LINE
  5
215
330
1D
100
AcDbEntity
  8
FIRST_CUT
100
AcDbLine
 10
-558.064959383371
 20
122.441668844026
 30
0.0
 11
-429.306054119727
 21
122.441668844026
 31
0.0
  0
LINE
  5
216
330
1D
100
AcDbEntity
  8
0
100
AcDbLine
 10
-762.673252503461
 20
99.9416688440263
 30
0.0
 11
-749.682871446694
 21
122.441668844026
 31
0.0
  0
LINE
  5
217
330
1D
100
AcDbEntity
  8
0
100
AcDbLine
 10
-429.306054119727
 20
122.441668844026
 30
0.0
 11
-416.066821036433
 21
99.5106444905132
 31
0.0
  0
LINE
  5
218
330
1D
100
AcDbEntity
  8
0
100
AcDbLine
 10
-619.005460422701
 20
89.9804068871579
 30
0.0
 11
-762.673252503461
 21
99.9416688440263
 31
0.0
  0
LINE
  5
219
330
1D
100
AcDbEntity
  8
FIRST_CUT
100
AcDbLine
 10
-558.886127266583
 20
109.941668844026
 30
0.0
 11
-560.202628754264
 21
89.9015906426578
 31
0.0
  0
LINE
  5
21A
330
1D
100
AcDbEntity
  8
0
100
AcDbLine
 10
-605.601455733736
 20
422.941668844026
 30
0.0
 11
-609.556998013843
 21
365.146801084691
 31
0.0
  0
LINE
  5
21B
330
1D
100
AcDbEntity
  8
0
100
AcDbLine
 10
-614.601455733736
 20
22.9416688440263
 30
0.0000000000000056
 11
-564.601455733736
 21
22.9416688440263
 31
0.0000000000000056
  0
LINE
  5
21C
330
1D
100
AcDbEntity
  8
0
100
AcDbLine
 10
-416.066821036433
 20
99.5106444905132
 30
0.0
 11
-560.202628754264
 21
89.9015906426578
 31
0.0
  0
LINE
  5
21D
330
1D
100
AcDbEntity
  8
FIRST_CUT
100
AcDbLine
 10
-620.316784200889
 20
109.941668844026
 30
0.0
 11
-619.005460422701
 21
89.9804068871579
 31
0.0
  0
LINE
  5
21E
330
1D
100
AcDbEntity
  8
FIRST_CUT
100
AcDbLine
 10
-621.137952084101
 20
122.441668844026
 30
0.0
 11
-620.316784200889
 21
109.941668844026
 31
0.0
  0
LINE
  5
21F
330
1D
100
AcDbEntity
  8
0
100
AcDbLine
 10
-749.682871446694
 20
122.441668844026
 30
0.0
 11
-609.556998013843
 21
365.146801084691
 31
0.0
  0
LINE
  5
220
330
1D
100
AcDbEntity
  8
0
100
AcDbLine
 10
-619.005460422701
 20
89.9804068871579
 30
0.0
 11
-614.601455733736
 21
22.9416688440263
 31
0.0000000000000056
  0
LINE
  5
221
330
1D
100
AcDbEntity
  8
0
100
AcDbLine
 10
-569.67469152004
 20
365.567280610581
 30
0.0
 11
-573.601455733736
 21
422.941668844026
 31
0.0
  0
LINE
  5
222
330
1D
100
AcDbEntity
  8
0
100
AcDbLine
 10
-569.67469152004
 20
365.567280610581
 30
0.0
 11
-429.306054119727
 21
122.441668844026
 31
0.0
  0
LINE
  5
223
330
1D
100
AcDbEntity
  8
FIRST_CUT
100
AcDbLine
 10
-484.2609747620142
 20
279.2864082061356
 30
0.0
 11
-413.9649617612252
 21
416.7733659826556
 31
-0.0000000000004738
  0
LINE
  5
224
330
1D
100
AcDbEntity
  8
0
100
AcDbLine
 10
-484.2609747620142
 20
279.2864082061356
 30
0.0
 11
-413.9649617612252
 21
279.4780638051956
 31
-0.000000000000361
  0
LINE
  5
225
330
1D
100
AcDbEntity
  8
0
100
AcDbLine
 10
-413.9649617612252
 20
279.4780638051956
 30
-0.000000000000361
 11
-413.9649617612252
 21
317.0588946931866
 31
-0.000000000000361
  0
LINE
  5
226
330
1D
100
AcDbEntity
  8
0
100
AcDbLine
 10
-413.9649617612252
 20
317.0588946931866
 30
-0.000000000000361
 11
-413.9649617612252
 21
329.5858383225166
 31
-0.0000000000003836
  0
LINE
  5
227
330
1D
100
AcDbEntity
  8
0
100
AcDbLine
 10
-413.9649617612252
 20
329.5858383225166
 30
-0.0000000000003836
 11
-413.9649617612252
 21
349.5901265868356
 31
-0.0000000000004061
  0
LINE
  5
228
330
1D
100
AcDbEntity
  8
0
100
AcDbLine
 10
-413.9649617612252
 20
349.5901265868356
 30
-0.0000000000004061
 11
-413.9649617612252
 21
416.7733659826556
 31
-0.0000000000004738
  0
LINE
  5
229
330
1D
100
AcDbEntity
  8
FIRST_CUT
100
AcDbLine
 10
-484.2609747620142
 20
279.2864082061356
 30
0.0
 11
-480.5152991967767
 21
418.5631548653643
 31
0.0
  0
LINE
  5
22A
330
1D
100
AcDbEntity
  8
0
100
AcDbLine
 10
-480.5152991967767
 20
418.5631548653643
 30
0.0
 11
-413.9649617612257
 21
416.7733659826547
 31
0.0000000000000451
  0
LINE
  5
22B
330
1D
100
AcDbEntity
  8
0
100
AcDbLine
 10
-558.4871067877248
 20
420.6601100389756
 30
0.0
 11
-484.2609747620142
 21
279.2864082061356
 31
0.0
  0
LINE
  5
22C
330
1D
100
AcDbEntity
  8
0
100
AcDbLine
 10
-480.5152991967767
 20
418.5631548653653
 30
0.0
 11
-558.4871067877248
 21
420.6601100389756
 31
0.0
  0
ENDSEC
  0
SECTION
  2
OBJECTS
  0
DICTIONARY
  5
C
330
0
100
AcDbDictionary
  3
ACAD_DETAILVIEWSTYLE
350
AD
  3
ACAD_GROUP
350
D
  3
ACAD_IMAGE_VARS
350
A1
  3
ACAD_MLINESTYLE
350
17
  3
ACAD_SCALELIST
350
198
  3
ACAD_SECTIONVIEWSTYLE
350
AE
  3
ACDBVARIABLEDICTIONARY
350
A8
  3
ACSTSTANDARD
350
C7
  3
APPDATA
350
9F
  3
DWGPROPS
350
22E
  0
DICTIONARY
  5
A2
330
2
100
AcDbDictionary
280
     1
  3
ACAD_LAYERSTATES
360
A3
  3
ACLYDICTIONARY
360
CE
  0
DICTIONARY
  5
AD
102
{ACAD_REACTORS
330
C
102
}
330
C
100
AcDbDictionary
  0
DICTIONARY
  5
D
102
{ACAD_REACTORS
330
C
102
}
330
C
100
AcDbDictionary
  0
RASTERVARIABLES
  5
A1
102
{ACAD_REACTORS
330
C
102
}
330
C
100
AcDbRasterVariables
 90
        0
 70
     1
 71
     1
 72
     0
  0
DICTIONARY
  5
17
102
{ACAD_REACTORS
330
C
102
}
330
C
100
AcDbDictionary
  3
STANDARD
350
18
  0
DICTIONARY
  5
198
102
{ACAD_REACTORS
330
C
102
}
330
C
100
AcDbDictionary
  0
DICTIONARY
  5
AE
102
{ACAD_REACTORS
330
C
102
}
330
C
100
AcDbDictionary
  0
DICTIONARY
  5
A8
102
{ACAD_REACTORS
330
C
102
}
330
C
100
AcDbDictionary
  3
HPTRANSPARENCY
350
CA
  0
DICTIONARY
  5
C7
102
{ACAD_REACTORS
330
C
102
}
330
C
100
AcDbDictionary
  0
DICTIONARY
  5
9F
102
{ACAD_REACTORS
330
C
102
}
330
C
100
AcDbDictionary
  0
XRECORD
  5
22E
102
{ACAD_REACTORS
330
C
102
}
330
C
100
AcDbXrecord
  1
DWGPROPS COOKIE
  2

  3

  4

  6

  7

  8

  9

300
=
301
=
302
=
303
=
304
=
305
=
306
=
307
=
308
=
309
=
 40
0.0
 41
2456979.842916644
 42
2456980.653877315
  1

 90
        0
  0
DICTIONARY
  5
A3
102
{ACAD_REACTORS
330
A2
102
}
330
A2
100
AcDbDictionary
  0
DICTIONARY
  5
CE
102
{ACAD_REACTORS
330
A2
102
}
330
A2
100
AcDbDictionary
1001
ACAD
1000
<All
  0
MLINESTYLE
  5
18
102
{ACAD_REACTORS
330
17
102
}
330
17
100
AcDbMlineStyle
  2
Standard
 70
     0
  3

 62
   256
 51
90.0
 52
90.0
 71
     2
 49
0.5
 62
   256
  6
BYLAYER
 49
-0.5
 62
   256
  6
BYLAYER
  0
DICTIONARYVAR
  5
CA
102
{ACAD_REACTORS
330
A8
102
}
330
A8
100
DictionaryVariables
280
     0
  1
ByLayer
  0
ENDSEC
  0
EOF
