 0
SECTION
 2
ENTITIES
  0
LINE
 8
Layer0
10
-560.202628754264
20
89.9015906426578
30
0.0
11
-564.601455733736
21
22.9416688440263
31
5.63993296509579e-015
  0
LINE
 8
UpperLeftFront-a
10
-443.337154785986
20
368.513375608303
30
-4.51194637207664e-014
11
-149.00039717344
21
368.513375608303
31
0.0
  0
LINE
 8
UpperLeftFront-a
10
-161.037571028453
20
438.487818237451
30
3.38395977905748e-014
11
-149.00039717344
21
368.513375608303
31
0.0
  0
LINE
 8
UpperLeftFront-a
10
-292.94213168744
20
396.004223220491
30
-1.12798659301916e-014
11
-281.026531941043
21
398.985873428229
31
-1.12798659301916e-014
  0
LINE
 8
UpperLeftFront-a
10
-233.595654708314
20
410.855523387991
30
1.12798659301916e-014
11
-245.43507409689
21
407.957305278994
31
0.00310112844535908
  0
LINE
 8
UpperLeftFront-a
10
-245.43507409689
20
407.957305278994
30
0.00310112844535908
11
-245.377358736989
21
407.907182701243
31
0.00154736236389423
  0
LINE
 8
UpperLeftFront-a
10
-443.337154785986
20
368.513375608303
30
-4.51194637207664e-014
11
-161.037571028453
21
438.487818237451
31
3.38395977905748e-014
  0
LINE
 8
UpperLeftFront-a
10
-205.837721008207
20
386.571473778197
30
1.12798659301916e-014
11
-217.485236918707
21
383.684369153376
31
0.0
  0
LINE
 8
UpperLeftFront-a
10
-205.837721008207
20
386.571473778197
30
1.12798659301916e-014
11
-233.595654708314
21
410.855523387991
31
1.12798659301916e-014
  0
LINE
 8
UpperLeftFront-a
10
-245.377358736989
20
407.907182701243
30
0.00154736236389423
11
-217.485236918707
21
383.684369153376
31
0.0
  0
LINE
 8
UpperLeftFront-a
10
-269.093261042204
20
401.97234053153
30
-2.25597318603832e-014
11
-241.969638573791
21
377.860605938368
31
0.0
  0
LINE
 8
UpperLeftFront-a
10
-241.969638573791
20
377.860605938368
30
0.0
11
-231.278419892607
21
381.699334905505
31
-1.12798659301916e-014
  0
LINE
 8
UpperLeftFront-a
10
-257.074131222337
20
404.908627807125
30
-1.12798659301916e-014
11
-231.278419892607
21
381.699334905505
31
-1.12798659301916e-014
  0
LINE
 8
UpperLeftFront-a
10
-269.093261042204
20
401.97234053153
30
-2.25597318603832e-014
11
-257.074131222337
21
404.908627807125
31
-1.12798659301916e-014
  0
LINE
 8
UpperLeftFront-a
10
-292.94213168744
20
396.004223220491
30
-1.12798659301916e-014
11
-265.043821489459
21
371.782958135329
31
-2.25597318603832e-014
  0
LINE
 8
UpperLeftFront-a
10
-254.316575598123
20
374.967293709806
30
-1.12798659301916e-014
11
-265.043821489459
21
371.782958135329
31
-2.25597318603832e-014
  0
LINE
 8
UpperLeftFront-a
10
-254.316575598123
20
374.967293709806
30
-1.12798659301916e-014
11
-281.026531941043
21
398.985873428229
31
-1.12798659301916e-014
  0
LINE
 8
LeftRearLower-a
10
-383.616356763202
20
181.193113821751
30
3.72233619711907e-013
11
-246.129398986682
21
110.897100820962
31
-1.0152074935614e-013
  0
LINE
 8
LeftRearLower-a
10
-383.616356763202
20
181.193113821751
30
3.72233619711907e-013
11
-383.424701164142
21
110.897100820962
31
1.12779099457762e-014
  0
LINE
 8
LeftRearLower-a
10
-383.424701164142
20
110.897100820962
30
1.12779099457762e-014
11
-345.843870276151
21
110.897100820962
31
1.12779099457762e-014
  0
LINE
 8
LeftRearLower-a
10
-345.843870276151
20
110.897100820962
30
1.12779099457762e-014
11
-333.316926646821
21
110.897100820962
31
-1.1281821914607e-014
  0
LINE
 8
LeftRearLower-a
10
-333.316926646821
20
110.897100820962
30
-1.1281821914607e-014
11
-313.312638382502
21
110.897100820962
31
-3.38415537749902e-014
  0
LINE
 8
LeftRearLower-a
10
-313.312638382502
20
110.897100820962
30
-3.38415537749902e-014
11
-246.129398986682
21
110.897100820962
31
-1.0152074935614e-013
  0
LINE
 8
TailLeft-a
10
-282.101229418521
20
299.235675025988
30
0.0
11
-421.428334625724
21
221.235675025988
31
0.0
  0
LINE
 8
TailLeft-a
10
-421.428334625724
20
221.235675025988
30
0.0
11
-282.10122941852
21
221.235675025988
31
0.0
  0
LINE
 8
TailLeft-a
10
-282.10122941852
20
221.235675025988
30
0.0
11
-282.101229418521
21
299.235675025988
31
0.0
  0
LINE
 8
UpperRearLeft-b
10
-370.165239240747
20
188.545155893558
30
9.83138206506899e-015
11
-230.838134033544
21
188.545155893558
31
9.83138206506899e-015
  0
LINE
 8
UpperRearLeft-b
10
-370.165239240747
20
188.545155893558
30
9.83138206506899e-015
11
-230.838134033544
21
121.970755730805
31
5.49508457858353e-014
  0
LINE
 8
UpperRearLeft-b
10
-230.838134033544
20
188.545155893558
30
9.83138206506899e-015
11
-230.838134033544
21
121.970755730805
31
5.49508457858353e-014
  0
LINE
 8
LowerFrontLeft-b
10
-414.504662215584
20
329.015538203007
30
-4.73754369068047e-013
11
-297.487076161633
21
329.015538203007
31
-2.48157050464215e-013
  0
LINE
 8
LowerFrontLeft-b
10
-297.487076161633
20
329.015538203007
30
-2.48157050464215e-013
11
-150.889412277346
21
329.015538203007
31
0.0
  0
LINE
 8
LowerFrontLeft-b
10
-443.605060413428
20
359.864788082707
30
7.55751017322837e-013
11
-150.889412277346
21
329.015538203007
31
0.0
  0
LINE
 8
LowerFrontLeft-b
10
-443.605060413428
20
359.864788082707
30
7.55751017322837e-013
11
-414.504662215584
21
329.015538203007
31
-4.73754369068047e-013
  0
LINE
 8
Layer0
10
-558.064959383371
20
122.441668844026
30
0.0
11
-558.886127266583
21
109.941668844026
31
0.0
  0
LINE
 8
Layer0
10
-749.682871446694
20
122.441668844026
30
0.0
11
-621.137952084101
21
122.441668844026
31
0.0
  0
LINE
 8
Layer0
10
-573.601455733736
20
422.941668844026
30
0.0
11
-605.601455733736
21
422.941668844026
31
0.0
  0
LINE
 8
Layer0
10
-558.064959383371
20
122.441668844026
30
0.0
11
-429.306054119727
21
122.441668844026
31
0.0
  0
LINE
 8
Layer0
10
-762.673252503461
20
99.9416688440263
30
0.0
11
-749.682871446694
21
122.441668844026
31
0.0
  0
LINE
 8
Layer0
10
-429.306054119727
20
122.441668844026
30
0.0
11
-416.066821036433
21
99.5106444905132
31
0.0
  0
LINE
 8
Layer0
10
-619.005460422701
20
89.9804068871579
30
0.0
11
-762.673252503461
21
99.9416688440263
31
0.0
  0
LINE
 8
Layer0
10
-558.886127266583
20
109.941668844026
30
0.0
11
-560.202628754264
21
89.9015906426578
31
0.0
  0
LINE
 8
Layer0
10
-605.601455733736
20
422.941668844026
30
0.0
11
-609.556998013843
21
365.146801084691
31
0.0
  0
LINE
 8
Layer0
10
-614.601455733736
20
22.9416688440263
30
5.63993296509579e-015
11
-564.601455733736
21
22.9416688440263
31
5.63993296509579e-015
  0
LINE
 8
Layer0
10
-416.066821036433
20
99.5106444905132
30
0.0
11
-560.202628754264
21
89.9015906426578
31
0.0
  0
LINE
 8
Layer0
10
-620.316784200889
20
109.941668844026
30
0.0
11
-619.005460422701
21
89.9804068871579
31
0.0
  0
LINE
 8
Layer0
10
-621.137952084101
20
122.441668844026
30
0.0
11
-620.316784200889
21
109.941668844026
31
0.0
  0
LINE
 8
Layer0
10
-749.682871446694
20
122.441668844026
30
0.0
11
-609.556998013843
21
365.146801084691
31
0.0
  0
LINE
 8
Layer0
10
-619.005460422701
20
89.9804068871579
30
0.0
11
-614.601455733736
21
22.9416688440263
31
5.63993296509579e-015
  0
LINE
 8
Layer0
10
-569.67469152004
20
365.567280610581
30
0.0
11
-573.601455733736
21
422.941668844026
31
0.0
  0
LINE
 8
Layer0
10
-569.67469152004
20
365.567280610581
30
0.0
11
-429.306054119727
21
122.441668844026
31
0.0
 0
ENDSEC
 0
EOF
