 0
SECTION
 2
ENTITIES
  0
LINE
 8
LowerLeftFront-a
10
-119.510873904884
20
250.759568125175
30
1.80486330768927e-013
11
-18.9174417442837
21
357.39838123973
31
4.28643381233142e-013
  0
LINE
 8
LowerLeftFront-a
10
-242.215673233206
20
165.638044632321
30
8.47588586129763e-018
11
-18.9174417442837
21
357.39838123973
31
4.28643381233142e-013
  0
LINE
 8
LowerLeftFront-a
10
-199.806836967479
20
165.638044632321
30
-1.12713900443303e-014
11
-119.510873904884
21
250.759568125175
31
1.80486330768927e-013
  0
LINE
 8
LowerLeftFront-a
10
-242.215673233206
20
165.638044632321
30
8.47588586129763e-018
11
-199.806836967479
21
165.638044632321
31
-1.12713900443303e-014
  0
LINE
 8
LeftRearLower-a
10
-326.717127661578
20
133.424169760782
30
3.60955709766131e-013
11
-189.230169885059
21
63.1281567599932
31
-1.12798659301916e-013
  0
LINE
 8
LeftRearLower-a
10
-326.717127661578
20
133.424169760782
30
3.60955709766131e-013
11
-326.525472062519
21
63.1281567599931
31
0.0
  0
LINE
 8
LeftRearLower-a
10
-326.525472062519
20
63.1281567599931
30
0.0
11
-288.944641174528
21
63.1281567599931
31
0.0
  0
LINE
 8
LeftRearLower-a
10
-288.944641174528
20
63.1281567599931
30
0.0
11
-276.417697545198
21
63.1281567599931
31
-2.25597318603832e-014
  0
LINE
 8
LeftRearLower-a
10
-276.417697545198
20
63.1281567599931
30
-2.25597318603832e-014
11
-256.413409280879
21
63.1281567599931
31
-4.51194637207664e-014
  0
LINE
 8
LeftRearLower-a
10
-256.413409280879
20
63.1281567599931
30
-4.51194637207664e-014
11
-189.230169885059
21
63.1281567599932
31
-1.12798659301916e-013
  0
LINE
 8
Bottom
10
-702.901455733736
20
22.9416688440263
30
5.63993296509579e-015
11
-652.901455733736
21
22.9416688440263
31
5.63993296509579e-015
  0
LINE
 8
Bottom
10
-693.901455733736
20
422.941668844026
30
0.0
11
-701.891572198791
21
306.197189382388
31
0.0
  0
LINE
 8
Bottom
10
-661.901455733736
20
422.941668844026
30
0.0
11
-693.901455733736
21
422.941668844026
31
0.0
  0
LINE
 8
Bottom
10
-653.911339268681
20
306.197189382388
30
0.0
11
-661.901455733736
21
422.941668844026
31
0.0
  0
LINE
 8
Bottom
10
-648.502628754264
20
89.9015906426578
30
0.0
11
-652.901455733736
21
22.9416688440263
31
5.63993296509579e-015
  0
LINE
 8
Bottom
10
-822.12795304184
20
97.9416688440263
30
0.0
11
-807.982871446694
21
122.441668844026
31
0.0
  0
LINE
 8
Bottom
10
-647.186127266583
20
109.941668844026
30
0.0
11
-648.502628754264
21
89.9015906426578
31
0.0
  0
LINE
 8
Bottom
10
-646.364959383371
20
122.441668844026
30
0.0
11
-647.186127266583
21
109.941668844026
31
0.0
  0
LINE
 8
Bottom
10
-547.820040020778
20
122.441668844026
30
0.0
11
-646.364959383371
21
122.441668844026
31
0.0
  0
LINE
 8
Bottom
10
-547.820040020778
20
122.441668844026
30
0.0
11
-533.460972524582
21
97.5710343913033
31
0.0
  0
LINE
 8
Bottom
10
-648.502628754264
20
89.9015906426578
30
0.0
11
-533.460972524582
21
97.5710343913033
31
0.0
  0
LINE
 8
Bottom
10
-807.982871446694
20
122.441668844026
30
0.0
11
-709.437952084101
21
122.441668844026
31
0.0
  0
LINE
 8
Bottom
10
-822.12795304184
20
97.9416688440263
30
0.0
11
-707.305460422701
21
89.9804068871579
31
0.0
  0
LINE
 8
Bottom
10
-708.616784200889
20
109.941668844026
30
0.0
11
-707.305460422701
21
89.9804068871579
31
0.0
  0
LINE
 8
Bottom
10
-709.437952084101
20
122.441668844026
30
0.0
11
-708.616784200889
21
109.941668844026
31
0.0
  0
LINE
 8
Bottom
10
-653.911339268681
20
306.197189382388
30
0.0
11
-547.820040020778
21
122.441668844026
31
0.0
  0
LINE
 8
Bottom
10
-707.305460422701
20
89.9804068871579
30
0.0
11
-702.901455733736
21
22.9416688440263
31
5.63993296509579e-015
  0
LINE
 8
Bottom
10
-807.982871446694
20
122.441668844026
30
0.0
11
-701.891572198791
21
306.197189382388
31
0.0
  0
LINE
 8
UpperLeftFront-a
10
-196.479501168271
20
291.248137451851
30
-4.51194637207664e-014
11
-490.816258780817
21
291.248137451851
31
0.0
  0
LINE
 8
UpperLeftFront-a
10
-478.779084925804
20
361.222580080998
30
3.38395977905748e-014
11
-490.816258780817
21
291.248137451851
31
0.0
  0
LINE
 8
UpperLeftFront-a
10
-346.874524266817
20
318.738985064039
30
-1.12798659301916e-014
11
-358.790124013214
21
321.720635271777
31
-1.12798659301916e-014
  0
LINE
 8
UpperLeftFront-a
10
-406.221001245943
20
333.590285231538
30
1.12798659301916e-014
11
-394.381581857367
21
330.692067122541
31
0.00310112844535908
  0
LINE
 8
UpperLeftFront-a
10
-394.381581857367
20
330.692067122541
30
0.00310112844535908
11
-394.439297217268
21
330.64194454479
31
0.00154736236389423
  0
LINE
 8
UpperLeftFront-a
10
-196.479501168271
20
291.248137451851
30
-4.51194637207664e-014
11
-478.779084925804
21
361.222580080998
31
3.38395977905748e-014
  0
LINE
 8
UpperLeftFront-a
10
-433.97893494605
20
309.306235621744
30
1.12798659301916e-014
11
-422.33141903555
21
306.419130996924
31
0.0
  0
LINE
 8
UpperLeftFront-a
10
-433.97893494605
20
309.306235621744
30
1.12798659301916e-014
11
-406.221001245943
21
333.590285231538
31
1.12798659301916e-014
  0
LINE
 8
UpperLeftFront-a
10
-394.439297217268
20
330.64194454479
30
0.00154736236389423
11
-422.33141903555
21
306.419130996924
31
0.0
  0
LINE
 8
UpperLeftFront-a
10
-370.723394912053
20
324.707102375077
30
-2.25597318603832e-014
11
-397.847017380466
21
300.595367781915
31
0.0
  0
LINE
 8
UpperLeftFront-a
10
-397.847017380466
20
300.595367781915
30
0.0
11
-408.53823606165
21
304.434096749052
31
-1.12798659301916e-014
  0
LINE
 8
UpperLeftFront-a
10
-382.74252473192
20
327.643389650673
30
-1.12798659301916e-014
11
-408.53823606165
21
304.434096749052
31
-1.12798659301916e-014
  0
LINE
 8
UpperLeftFront-a
10
-370.723394912053
20
324.707102375077
30
-2.25597318603832e-014
11
-382.74252473192
21
327.643389650673
31
-1.12798659301916e-014
  0
LINE
 8
UpperLeftFront-a
10
-346.874524266817
20
318.738985064039
30
-1.12798659301916e-014
11
-374.772834464798
21
294.517719978876
31
-2.25597318603832e-014
  0
LINE
 8
UpperLeftFront-a
10
-385.500080356134
20
297.702055553354
30
-1.12798659301916e-014
11
-374.772834464798
21
294.517719978876
31
-2.25597318603832e-014
  0
LINE
 8
UpperLeftFront-a
10
-385.500080356134
20
297.702055553354
30
-1.12798659301916e-014
11
-358.790124013214
21
321.720635271777
31
-1.12798659301916e-014
  0
LINE
 8
UpperLeftRear-a
10
-342.386602770107
20
-74.4912149706691
30
0.0
11
-342.386602770107
21
-7.91681480791681
31
6.76791955811495e-014
  0
LINE
 8
UpperLeftRear-a
10
-203.059497562903
20
-74.4912149706691
30
0.0
11
-342.386602770107
21
-7.91681480791681
31
6.76791955811495e-014
  0
LINE
 8
UpperLeftRear-a
10
-203.059497562903
20
-74.4912149706691
30
0.0
11
-342.386602770107
21
-74.4912149706691
31
0.0
  0
LINE
 8
TailLeft-a
10
-999.664742743924
20
355.579666740594
30
0.0
11
-921.664742743924
21
216.252561533391
31
0.0
  0
LINE
 8
TailLeft-a
10
-921.664742743924
20
216.252561533391
30
0.0
11
-921.664742743924
21
355.579666740594
31
0.0
  0
LINE
 8
TailLeft-a
10
-921.664742743924
20
355.579666740594
30
0.0
11
-999.664742743924
21
355.579666740594
31
0.0
 0
ENDSEC
 0
EOF
