  0
SECTION
  2
HEADER
  9
$ACADVER
  1
AC1009
  9
$DWGCODEPAGE
  3
ansi_1252
  9
$INSBASE
 10
0.0
 20
0.0
 30
0.0
  9
$EXTMIN
 10
-733.82795304184
 20
22.9416688440263
 30
-0.0000000000004738
  9
$EXTMAX
 10
-189.230169885059
 20
422.941668844026
 30
0.0031011284453591
  9
$LIMMIN
 10
0.0
 20
0.0
  9
$LIMMAX
 10
12.0
 20
9.0
  9
$ORTHOMODE
 70
     0
  9
$REGENMODE
 70
     1
  9
$FILLMODE
 70
     1
  9
$QTEXTMODE
 70
     0
  9
$MIRRTEXT
 70
     1
  9
$DRAGMODE
 70
     2
  9
$LTSCALE
 40
1.0
  9
$OSMODE
 70
   511
  9
$ATTMODE
 70
     1
  9
$TEXTSIZE
 40
0.2
  9
$TRACEWID
 40
0.05
  9
$TEXTSTYLE
  7
STANDARD
  9
$CLAYER
  8
0
  9
$CELTYPE
  6
BYBLOCK
  9
$CECOLOR
 62
   256
  9
$DIMSCALE
 40
1.0
  9
$DIMASZ
 40
0.18
  9
$DIMEXO
 40
0.0625
  9
$DIMDLI
 40
0.38
  9
$DIMRND
 40
0.0
  9
$DIMDLE
 40
0.0
  9
$DIMEXE
 40
0.18
  9
$DIMTP
 40
0.0
  9
$DIMTM
 40
0.0
  9
$DIMTXT
 40
10.0
  9
$DIMCEN
 40
0.09
  9
$DIMTSZ
 40
0.0
  9
$DIMTOL
 70
     0
  9
$DIMLIM
 70
     0
  9
$DIMTIH
 70
     1
  9
$DIMTOH
 70
     1
  9
$DIMSE1
 70
     0
  9
$DIMSE2
 70
     0
  9
$DIMTAD
 70
     0
  9
$DIMZIN
 70
     0
  9
$DIMBLK
  1

  9
$DIMASO
 70
     1
  9
$DIMSHO
 70
     1
  9
$DIMPOST
  1

  9
$DIMAPOST
  1

  9
$DIMALT
 70
     0
  9
$DIMALTD
 70
     2
  9
$DIMALTF
 40
25.4
  9
$DIMLFAC
 40
1.0
  9
$DIMTOFL
 70
     0
  9
$DIMTVP
 40
0.0
  9
$DIMTIX
 70
     0
  9
$DIMSOXD
 70
     0
  9
$DIMSAH
 70
     0
  9
$DIMBLK1
  1

  9
$DIMBLK2
  1

  9
$DIMSTYLE
  2
STANDARD
  9
$DIMCLRD
 70
     0
  9
$DIMCLRE
 70
     0
  9
$DIMCLRT
 70
     0
  9
$DIMTFAC
 40
1.0
  9
$DIMGAP
 40
0.09
  9
$LUNITS
 70
     2
  9
$LUPREC
 70
     4
  9
$SKETCHINC
 40
0.1
  9
$FILLETRAD
 40
0.5
  9
$AUNITS
 70
     0
  9
$AUPREC
 70
     0
  9
$MENU
  1
.
  9
$ELEVATION
 40
0.0
  9
$PELEVATION
 40
0.0
  9
$THICKNESS
 40
0.0
  9
$LIMCHECK
 70
     0
  9
$CHAMFERA
 40
0.0
  9
$CHAMFERB
 40
0.0
  9
$SKPOLY
 70
     0
  9
$TDCREATE
 40
2456979.484212951
  9
$TDUPDATE
 40
2456979.489212951
  9
$TDINDWG
 40
0.0000000116
  9
$TDUSRTIMER
 40
2456979.44255787
  9
$USRTIMER
 70
     1
  9
$ANGBASE
 50
0.0
  9
$ANGDIR
 70
     0
  9
$PDMODE
 70
     0
  9
$PDSIZE
 40
0.0
  9
$PLINEWID
 40
0.0
  9
$COORDS
 70
     1
  9
$SPLFRAME
 70
     0
  9
$SPLINETYPE
 70
     6
  9
$SPLINESEGS
 70
     8
  9
$ATTDIA
 70
     0
  9
$ATTREQ
 70
     1
  9
$HANDLING
 70
     1
  9
$HANDSEED
  5
D5
  9
$SURFTAB1
 70
     6
  9
$SURFTAB2
 70
     6
  9
$SURFTYPE
 70
     6
  9
$SURFU
 70
     6
  9
$SURFV
 70
     6
  9
$UCSNAME
  2

  9
$UCSORG
 10
0.0
 20
0.0
 30
0.0
  9
$UCSXDIR
 10
1.0
 20
0.0
 30
0.0
  9
$UCSYDIR
 10
0.0
 20
1.0
 30
0.0
  9
$PUCSNAME
  2

  9
$PUCSORG
 10
0.0
 20
0.0
 30
0.0
  9
$PUCSXDIR
 10
1.0
 20
0.0
 30
0.0
  9
$PUCSYDIR
 10
0.0
 20
1.0
 30
0.0
  9
$USERI1
 70
     0
  9
$USERI2
 70
     0
  9
$USERI3
 70
     0
  9
$USERI4
 70
     0
  9
$USERI5
 70
     0
  9
$USERR1
 40
0.0
  9
$USERR2
 40
0.0
  9
$USERR3
 40
0.0
  9
$USERR4
 40
0.0
  9
$USERR5
 40
0.0
  9
$WORLDVIEW
 70
     1
  9
$SHADEDGE
 70
     3
  9
$SHADEDIF
 70
    70
  9
$TILEMODE
 70
     1
  9
$MAXACTVP
 70
    64
  9
$PLIMCHECK
 70
     0
  9
$PEXTMIN
 10
1.000000000000000E+20
 20
1.000000000000000E+20
 30
1.000000000000000E+20
  9
$PEXTMAX
 10
-1.000000000000000E+20
 20
-1.000000000000000E+20
 30
-1.000000000000000E+20
  9
$PLIMMIN
 10
0.0
 20
0.0
  9
$PLIMMAX
 10
0.0
 20
0.0
  9
$UNITMODE
 70
     0
  9
$VISRETAIN
 70
     1
  9
$PLINEGEN
 70
     0
  9
$PSLTSCALE
 70
     1
  0
ENDSEC
  0
SECTION
  2
TABLES
  0
TABLE
  2
VPORT
 70
     1
  0
VPORT
  2
*ACTIVE
 70
     0
 10
0.0
 20
0.0
 11
1.0
 21
1.0
 12
-205.8018144904935
 22
54.54124734944463
 13
0.0
 23
0.0
 14
0.5
 24
0.5
 15
0.5
 25
0.5
 16
0.0
 26
0.0
 36
1.0
 17
0.0
 27
0.0
 37
0.0
 40
499.6003610813204
 41
2.301369863013699
 42
50.0
 43
0.0
 44
0.0
 50
0.0
 51
0.0
 71
    16
 72
   100
 73
     1
 74
     3
 75
     0
 76
     0
 77
     0
 78
     0
  0
ENDTAB
  0
TABLE
  2
LTYPE
 70
     1
  0
LTYPE
  2
CONTINUOUS
 70
     0
  3
Solid line
 72
    65
 73
     0
 40
0.0
  0
ENDTAB
  0
TABLE
  2
LAYER
 70
     8
  0
LAYER
  2
0
 70
     0
 62
     7
  6
CONTINUOUS
  0
LAYER
  2
LOWERFRONTLEFT-B
 70
     0
 62
     7
  6
CONTINUOUS
  0
LAYER
  2
UPPERREARLEFT-B
 70
     0
 62
     7
  6
CONTINUOUS
  0
LAYER
  2
TAILLEFT-A
 70
     0
 62
     7
  6
CONTINUOUS
  0
LAYER
  2
BOTTOM
 70
     0
 62
     7
  6
CONTINUOUS
  0
LAYER
  2
LEFTREARLOWER-A
 70
     0
 62
     7
  6
CONTINUOUS
  0
LAYER
  2
UPPERLEFTFRONT-A
 70
     0
 62
     7
  6
CONTINUOUS
  0
LAYER
  2
DEFPOINTS
 70
     0
 62
     7
  6
CONTINUOUS
  0
ENDTAB
  0
TABLE
  2
STYLE
 70
     1
  0
STYLE
  2
STANDARD
 70
     0
 40
0.0
 41
1.0
 50
0.0
 71
     0
 42
0.2
  3
txt
  4

  0
ENDTAB
  0
TABLE
  2
VIEW
 70
     0
  0
ENDTAB
  0
TABLE
  2
UCS
 70
     0
  0
ENDTAB
  0
TABLE
  2
APPID
 70
     1
  0
APPID
  2
ACAD
 70
     0
  0
ENDTAB
  0
TABLE
  2
DIMSTYLE
 70
     1
  0
DIMSTYLE
  2
STANDARD
 70
     0
  3

  4

  5

  6

  7

 40
1.0
 41
0.18
 42
0.0625
 43
0.38
 44
0.18
 45
0.0
 46
0.0
 47
0.0
 48
0.0
140
0.18
141
0.09
142
0.0
143
25.4
144
1.0
145
0.0
146
1.0
147
0.09
 71
     0
 72
     0
 73
     1
 74
     1
 75
     0
 76
     0
 77
     0
 78
     0
170
     0
171
     2
172
     0
173
     0
174
     0
175
     0
176
     0
177
     0
178
     0
  0
ENDTAB
  0
ENDSEC
  0
SECTION
  2
BLOCKS
  0
BLOCK
  8
0
  2
$MODEL_SPACE
 70
     0
 10
0.0
 20
0.0
 30
0.0
  3
$MODEL_SPACE
  1

  0
ENDBLK
  5
7D
  8
0
  0
BLOCK
 67
     1
  8
0
  2
$PAPER_SPACE
 70
     0
 10
0.0
 20
0.0
 30
0.0
  3
$PAPER_SPACE
  1

  0
ENDBLK
  5
7F
 67
     1
  8
0
  0
BLOCK
  8
0
  2
*D0
 70
     1
 10
0.0
 20
0.0
 30
0.0
  3
*D0
  1

  0
LINE
  5
AB
  8
0
  6
BYBLOCK
 62
     0
 10
-378.221917096766
 20
230.771847980567
 30
0.0
 11
-413.9989225954002
 21
230.771847980567
 31
0.0
  0
LINE
  5
AC
  8
0
  6
BYBLOCK
 62
     0
 10
-378.221917096766
 20
152.771847980567
 30
0.0
 11
-413.9989225954002
 21
152.771847980567
 31
0.0
  0
LINE
  5
AD
  8
0
  6
BYBLOCK
 62
     0
 10
-413.8189225954002
 20
230.591847980567
 30
0.0
 11
-413.8189225954002
 21
196.861847980567
 31
0.0
  0
LINE
  5
AE
  8
0
  6
BYBLOCK
 62
     0
 10
-413.8189225954002
 20
152.951847980567
 30
0.0
 11
-413.8189225954002
 21
186.681847980567
 31
0.0
  0
SOLID
  5
AF
  8
0
 62
     0
 10
-413.7889225954003
 20
230.591847980567
 30
0.0
 11
-413.8489225954002
 21
230.591847980567
 31
0.0
 12
-413.8189225954002
 22
230.771847980567
 32
0.0
 13
-413.8189225954002
 23
230.771847980567
 33
0.0
  0
SOLID
  5
B0
  8
0
 62
     0
 10
-413.8489225954002
 20
152.951847980567
 30
0.0
 11
-413.7889225954003
 21
152.951847980567
 31
0.0
 12
-413.8189225954002
 22
152.771847980567
 32
0.0
 13
-413.8189225954002
 23
152.771847980567
 33
0.0
  0
TEXT
  5
B1
  8
0
  6
CONTINUOUS
 62
     0
 10
-440.4855892620669
 20
186.771847980567
 30
0.0
 40
10.0
  1
78.0000
  0
POINT
  5
B2
  8
DEFPOINTS
 62
     0
 10
-378.159417096766
 20
230.771847980567
 30
0.0
  0
POINT
  5
B3
  8
DEFPOINTS
 62
     0
 10
-378.159417096766
 20
152.771847980567
 30
0.0
  0
POINT
  5
B4
  8
DEFPOINTS
 62
     0
 10
-413.8189225954002
 20
152.771847980567
 30
0.0
  0
ENDBLK
  5
AA
  8
0
  0
BLOCK
  8
0
  2
*D1
 70
     1
 10
0.0
 20
0.0
 30
0.0
  3
*D1
  1

  0
LINE
  5
BB
  8
0
  6
BYBLOCK
 62
     0
 10
-382.156473297666
 20
133.551568825982
 30
0.0
 11
-401.4518815636776
 21
133.551568825982
 31
0.0
  0
LINE
  5
BC
  8
0
  6
BYBLOCK
 62
     0
 10
-382.156473297666
 20
66.9771686632296
 30
0.0
 11
-401.4518815636776
 21
66.9771686632296
 31
0.0
  0
LINE
  5
BD
  8
0
  6
BYBLOCK
 62
     0
 10
-401.2718815636776
 20
133.371568825982
 30
0.0
 11
-401.2718815636776
 21
105.3543687446058
 31
0.0
  0
LINE
  5
BE
  8
0
  6
BYBLOCK
 62
     0
 10
-401.2718815636776
 20
67.15716866322961
 30
0.0
 11
-401.2718815636776
 21
95.1743687446058
 31
0.0
  0
SOLID
  5
BF
  8
0
 62
     0
 10
-401.2418815636776
 20
133.371568825982
 30
0.0
 11
-401.3018815636776
 21
133.371568825982
 31
0.0
 12
-401.2718815636776
 22
133.551568825982
 32
0.0
 13
-401.2718815636776
 23
133.551568825982
 33
0.0
  0
SOLID
  5
C0
  8
0
 62
     0
 10
-401.3018815636776
 20
67.15716866322961
 30
0.0
 11
-401.2418815636776
 21
67.15716866322961
 31
0.0
 12
-401.2718815636776
 22
66.9771686632296
 32
0.0
 13
-401.2718815636776
 23
66.9771686632296
 33
0.0
  0
TEXT
  5
C1
  8
0
  6
CONTINUOUS
 62
     0
 10
-431.2718815636776
 20
95.2643687446058
 30
0.0
 40
10.0
  1
66.5744
  0
POINT
  5
C2
  8
DEFPOINTS
 62
     0
 10
-382.093973297666
 20
133.551568825982
 30
0.0
  0
POINT
  5
C3
  8
DEFPOINTS
 62
     0
 10
-382.093973297666
 20
66.9771686632296
 30
0.0
  0
POINT
  5
C4
  8
DEFPOINTS
 62
     0
 10
-401.2718815636776
 20
66.9771686632296
 30
0.0
  0
ENDBLK
  5
BA
  8
0
  0
BLOCK
  8
0
  2
*D2
 70
     1
 10
0.0
 20
0.0
 30
0.0
  3
*D2
  1

  0
LINE
  5
CB
  8
0
  6
BYBLOCK
 62
     0
 10
-189.1676701173483
 20
133.423999360927
 30
0.0
 11
-159.0846852743756
 21
133.3419808760163
 31
0.0
  0
LINE
  5
CC
  8
0
  6
BYBLOCK
 62
     0
 10
-189.3593257164083
 20
63.12798636013811
 30
0.0
 11
-159.2763408734356
 21
63.04596787522733
 31
0.0
  0
LINE
  5
CD
  8
0
  6
BYBLOCK
 62
     0
 10
-159.2651753569648
 20
133.1624722965919
 30
0.0
 11
-159.3466349891448
 21
103.2844651272042
 31
0.0
  0
LINE
  5
CE
  8
0
  6
BYBLOCK
 62
     0
 10
-159.45584945286
 20
63.22645795781647
 30
0.0
 11
-159.37438982068
 21
93.10446512720418
 31
0.0
  0
SOLID
  5
CF
  8
0
 62
     0
 10
-159.2351754684636
 20
133.1623905046615
 30
0.0
 11
-159.2951752454659
 21
133.1625540885223
 31
0.0
 12
-159.2646846053824
 22
133.3424716275986
 32
0.0
 13
-159.2646846053824
 23
133.3424716275986
 33
0.0
  0
SOLID
  5
D0
  8
0
 62
     0
 10
-159.4858493413612
 20
63.22653974974687
 30
0.0
 11
-159.4258495643589
 21
63.22637616588607
 31
0.0
 12
-159.4563402044424
 22
63.0464586268097
 32
0.0
 13
-159.4563402044424
 23
63.0464586268097
 33
0.0
  0
TEXT
  5
D1
  8
0
  6
CONTINUOUS
 62
     0
 10
-188.5271790715791
 20
93.19446512720417
 30
0.0
 40
10.0
  1
70.2963
  0
POINT
  5
D2
  8
DEFPOINTS
 62
     0
 10
-189.230169885059
 20
133.424169760782
 30
0.0
  0
POINT
  5
D3
  8
DEFPOINTS
 62
     0
 10
-189.421825484119
 20
63.1281567599931
 30
0.0
  0
POINT
  5
D4
  8
DEFPOINTS
 62
     0
 10
-159.4563402044424
 20
63.0464586268097
 30
0.0
  0
ENDBLK
  5
CA
  8
0
  0
ENDSEC
  0
SECTION
  2
ENTITIES
  0
LINE
  5
21
  8
UPPERLEFTFRONT-A
 10
-196.479501168271
 20
291.248137451851
 30
-0.0000000000000451
 11
-490.816258780817
 21
291.248137451851
 31
0.0
  0
LINE
  5
22
  8
UPPERLEFTFRONT-A
 10
-478.779084925804
 20
361.222580080998
 30
0.0000000000000338
 11
-490.816258780817
 21
291.248137451851
 31
0.0
  0
LINE
  5
23
  8
UPPERLEFTFRONT-A
 10
-346.874524266817
 20
318.738985064039
 30
-0.0000000000000113
 11
-358.790124013214
 21
321.720635271777
 31
-0.0000000000000113
  0
LINE
  5
24
  8
UPPERLEFTFRONT-A
 10
-406.221001245943
 20
333.590285231538
 30
0.0000000000000113
 11
-394.381581857367
 21
330.692067122541
 31
0.0031011284453591
  0
LINE
  5
25
  8
UPPERLEFTFRONT-A
 10
-394.381581857367
 20
330.692067122541
 30
0.0031011284453591
 11
-394.439297217268
 21
330.64194454479
 31
0.0015473623638942
  0
LINE
  5
26
  8
UPPERLEFTFRONT-A
 10
-196.479501168271
 20
291.248137451851
 30
-0.0000000000000451
 11
-478.779084925804
 21
361.222580080998
 31
0.0000000000000338
  0
LINE
  5
27
  8
UPPERLEFTFRONT-A
 10
-433.97893494605
 20
309.306235621744
 30
0.0000000000000113
 11
-422.33141903555
 21
306.419130996924
 31
0.0
  0
LINE
  5
28
  8
UPPERLEFTFRONT-A
 10
-433.97893494605
 20
309.306235621744
 30
0.0000000000000113
 11
-406.221001245943
 21
333.590285231538
 31
0.0000000000000113
  0
LINE
  5
29
  8
UPPERLEFTFRONT-A
 10
-394.439297217268
 20
330.64194454479
 30
0.0015473623638942
 11
-422.33141903555
 21
306.419130996924
 31
0.0
  0
LINE
  5
2A
  8
UPPERLEFTFRONT-A
 10
-370.723394912053
 20
324.707102375077
 30
-0.0000000000000226
 11
-397.847017380466
 21
300.595367781915
 31
0.0
  0
LINE
  5
2B
  8
UPPERLEFTFRONT-A
 10
-397.847017380466
 20
300.595367781915
 30
0.0
 11
-408.53823606165
 21
304.434096749052
 31
-0.0000000000000113
  0
LINE
  5
2C
  8
UPPERLEFTFRONT-A
 10
-382.74252473192
 20
327.643389650673
 30
-0.0000000000000113
 11
-408.53823606165
 21
304.434096749052
 31
-0.0000000000000113
  0
LINE
  5
2D
  8
UPPERLEFTFRONT-A
 10
-370.723394912053
 20
324.707102375077
 30
-0.0000000000000226
 11
-382.74252473192
 21
327.643389650673
 31
-0.0000000000000113
  0
LINE
  5
2E
  8
UPPERLEFTFRONT-A
 10
-346.874524266817
 20
318.738985064039
 30
-0.0000000000000113
 11
-374.772834464798
 21
294.517719978876
 31
-0.0000000000000226
  0
LINE
  5
2F
  8
UPPERLEFTFRONT-A
 10
-385.500080356134
 20
297.702055553354
 30
-0.0000000000000113
 11
-374.772834464798
 21
294.517719978876
 31
-0.0000000000000226
  0
LINE
  5
30
  8
UPPERLEFTFRONT-A
 10
-385.500080356134
 20
297.702055553354
 30
-0.0000000000000113
 11
-358.790124013214
 21
321.720635271777
 31
-0.0000000000000113
  0
LINE
  5
31
  8
LEFTREARLOWER-A
 10
-189.230169885059
 20
133.424169760782
 30
0.000000000000361
 11
-326.717127661578
 21
63.1281567599932
 31
-0.0000000000001128
  0
LINE
  5
32
  8
LEFTREARLOWER-A
 10
-189.230169885059
 20
133.424169760782
 30
0.000000000000361
 11
-189.421825484119
 21
63.1281567599931
 31
0.0
  0
LINE
  5
33
  8
LEFTREARLOWER-A
 10
-189.421825484119
 20
63.1281567599931
 30
0.0
 11
-227.002656372109
 21
63.1281567599931
 31
0.0
  0
LINE
  5
34
  8
LEFTREARLOWER-A
 10
-227.002656372109
 20
63.1281567599931
 30
0.0
 11
-239.52960000144
 21
63.1281567599931
 31
-0.0000000000000226
  0
LINE
  5
35
  8
LEFTREARLOWER-A
 10
-239.52960000144
 20
63.1281567599931
 30
-0.0000000000000226
 11
-259.533888265759
 21
63.1281567599931
 31
-0.0000000000000451
  0
LINE
  5
36
  8
LEFTREARLOWER-A
 10
-259.533888265759
 20
63.1281567599931
 30
-0.0000000000000451
 11
-326.717127661578
 21
63.1281567599932
 31
-0.0000000000001128
  0
LINE
  5
37
  8
BOTTOM
 10
-614.601455733736
 20
22.9416688440263
 30
0.0000000000000056
 11
-564.601455733736
 21
22.9416688440263
 31
0.0000000000000056
  0
LINE
  5
38
  8
BOTTOM
 10
-605.601455733736
 20
422.941668844026
 30
0.0
 11
-613.591572198791
 21
306.197189382388
 31
0.0
  0
LINE
  5
39
  8
BOTTOM
 10
-573.601455733736
 20
422.941668844026
 30
0.0
 11
-605.601455733736
 21
422.941668844026
 31
0.0
  0
LINE
  5
3A
  8
BOTTOM
 10
-565.611339268681
 20
306.197189382388
 30
0.0
 11
-573.601455733736
 21
422.941668844026
 31
0.0
  0
LINE
  5
3B
  8
BOTTOM
 10
-560.202628754264
 20
89.9015906426578
 30
0.0
 11
-564.601455733736
 21
22.9416688440263
 31
0.0000000000000056
  0
LINE
  5
3C
  8
BOTTOM
 10
-733.82795304184
 20
97.9416688440263
 30
0.0
 11
-719.682871446694
 21
122.441668844026
 31
0.0
  0
LINE
  5
3D
  8
BOTTOM
 10
-558.886127266583
 20
109.941668844026
 30
0.0
 11
-560.202628754264
 21
89.9015906426578
 31
0.0
  0
LINE
  5
3E
  8
BOTTOM
 10
-558.064959383371
 20
122.441668844026
 30
0.0
 11
-558.886127266583
 21
109.941668844026
 31
0.0
  0
LINE
  5
3F
  8
BOTTOM
 10
-459.520040020778
 20
122.441668844026
 30
0.0
 11
-558.064959383371
 21
122.441668844026
 31
0.0
  0
LINE
  5
40
  8
BOTTOM
 10
-459.520040020778
 20
122.441668844026
 30
0.0
 11
-445.160972524582
 21
97.5710343913033
 31
0.0
  0
LINE
  5
41
  8
BOTTOM
 10
-560.202628754264
 20
89.9015906426578
 30
0.0
 11
-445.160972524582
 21
97.5710343913033
 31
0.0
  0
LINE
  5
42
  8
BOTTOM
 10
-719.682871446694
 20
122.441668844026
 30
0.0
 11
-621.137952084101
 21
122.441668844026
 31
0.0
  0
LINE
  5
43
  8
BOTTOM
 10
-733.82795304184
 20
97.9416688440263
 30
0.0
 11
-619.005460422701
 21
89.9804068871579
 31
0.0
  0
LINE
  5
44
  8
BOTTOM
 10
-620.316784200889
 20
109.941668844026
 30
0.0
 11
-619.005460422701
 21
89.9804068871579
 31
0.0
  0
LINE
  5
45
  8
BOTTOM
 10
-621.137952084101
 20
122.441668844026
 30
0.0
 11
-620.316784200889
 21
109.941668844026
 31
0.0
  0
LINE
  5
46
  8
BOTTOM
 10
-565.611339268681
 20
306.197189382388
 30
0.0
 11
-459.520040020778
 21
122.441668844026
 31
0.0
  0
LINE
  5
47
  8
BOTTOM
 10
-619.005460422701
 20
89.9804068871579
 30
0.0
 11
-614.601455733736
 21
22.9416688440263
 31
0.0000000000000056
  0
LINE
  5
48
  8
BOTTOM
 10
-719.682871446694
 20
122.441668844026
 30
0.0
 11
-613.591572198791
 21
306.197189382388
 31
0.0
  0
LINE
  5
49
  8
TAILLEFT-A
 10
-378.159417096766
 20
230.771847980567
 30
0.0
 11
-238.832311889562
 21
152.771847980569
 31
0.0
  0
LINE
  5
4A
  8
TAILLEFT-A
 10
-238.832311889562
 20
152.771847980569
 30
0.0
 11
-378.159417096766
 21
152.771847980567
 31
0.0
  0
LINE
  5
4B
  8
TAILLEFT-A
 10
-378.159417096766
 20
152.771847980567
 30
0.0
 11
-378.159417096766
 21
230.771847980567
 31
0.0
  0
LINE
  5
4C
  8
UPPERREARLEFT-B
 10
-242.766868090463
 20
133.551568825982
 30
0.0000000000000098
 11
-382.093973297666
 21
133.551568825982
 31
0.0000000000000098
  0
LINE
  5
4D
  8
UPPERREARLEFT-B
 10
-242.766868090463
 20
133.551568825982
 30
0.0000000000000098
 11
-382.093973297666
 21
66.9771686632296
 31
0.000000000000055
  0
LINE
  5
4E
  8
UPPERREARLEFT-B
 10
-382.093973297666
 20
133.551568825982
 30
0.0000000000000098
 11
-382.093973297666
 21
66.9771686632296
 31
0.000000000000055
  0
LINE
  5
4F
  8
LOWERFRONTLEFT-B
 10
-227.468914470021
 20
251.750300046554
 30
-0.0000000000004738
 11
-344.486500523973
 21
251.750300046554
 31
-0.0000000000002482
  0
LINE
  5
50
  8
LOWERFRONTLEFT-B
 10
-344.486500523973
 20
251.750300046554
 30
-0.0000000000002482
 11
-491.08416440826
 21
251.750300046554
 31
0.0
  0
LINE
  5
51
  8
LOWERFRONTLEFT-B
 10
-198.368516272177
 20
282.599549926254
 30
0.0000000000007558
 11
-491.08416440826
 21
251.750300046554
 31
0.0
  0
LINE
  5
52
  8
LOWERFRONTLEFT-B
 10
-198.368516272177
 20
282.599549926254
 30
0.0000000000007558
 11
-227.468914470021
 21
251.750300046554
 31
-0.0000000000004738
  0
DIMENSION
  5
A5
  8
0
  6
BYBLOCK
  2
*D0
 10
-413.8189225954002
 20
152.771847980567
 30
0.0
 11
-413.8189225954002
 21
191.771847980567
 31
0.0
 70
    33
  3
STANDARD
 13
-378.159417096766
 23
230.771847980567
 33
0.0
 14
-378.159417096766
 24
152.771847980567
 34
0.0
1001
ACAD
1000
DSTYLE
1002
{
1070
   287
1070
     5
1070
   279
1070
     2
1070
   140
1040
10.0
1002
}
  0
DIMENSION
  5
B5
  8
0
  6
BYBLOCK
  2
*D1
 10
-401.2718815636776
 20
66.9771686632296
 30
0.0
 11
-401.2718815636776
 21
100.2643687446058
 31
0.0
 70
    33
  3
STANDARD
 13
-382.093973297666
 23
133.551568825982
 33
0.0000000000000098
 14
-382.093973297666
 24
66.9771686632296
 34
0.000000000000055
1001
ACAD
1000
DSTYLE
1002
{
1070
   287
1070
     5
1070
   279
1070
     2
1070
   140
1040
10.0
1002
}
  0
DIMENSION
  5
C5
  8
0
  6
BYBLOCK
  2
*D2
 10
-159.4563402044424
 20
63.0464586268097
 30
0.0
 11
-159.3605124049124
 21
98.19446512720417
 31
0.0
 70
    33
  3
STANDARD
 13
-189.230169885059
 23
133.424169760782
 33
0.000000000000361
 14
-189.421825484119
 24
63.1281567599931
 34
0.0
1001
ACAD
1000
DSTYLE
1002
{
1070
   287
1070
     5
1070
   279
1070
     2
1070
   140
1040
10.0
1002
}
  0
ENDSEC
  0
EOF
