 0
SECTION
 2
ENTITIES
  0
POLYLINE
 8
Layer0
 66
     1
70
    8
 10
0.0
 20
 0.0
 30
0.0
  0
VERTEX
  8
MY3DLAYER
10
116.0
20
137.0
30
0.0
 70
     32
  0
VERTEX
  8
MY3DLAYER
10
149.529820844558
20
428.105596840399
30
27.7021566704501
 70
     32
  0
VERTEX
  8
MY3DLAYER
10
150.0
20
139.327105207203
30
62.2888493795661
 70
     32
  0
VERTEX
  8
MY3DLAYER
10
116.0
20
137.0
30
0.0
 70
     32
  0
SEQEND
  0
POLYLINE
 8
Layer0
 66
     1
70
    8
 10
0.0
 20
 0.0
 30
0.0
  0
VERTEX
  8
MY3DLAYER
10
130.875720874598
20
202.656461239609
30
19.7046782778179
 70
     32
  0
VERTEX
  8
MY3DLAYER
10
130.895120191879
20
190.741629375044
30
21.1317050139501
 70
     32
  0
VERTEX
  8
MY3DLAYER
10
145.380750360913
20
214.870902708188
30
44.967867368048
 70
     32
  0
VERTEX
  8
MY3DLAYER
10
145.380750360913
20
226.976879913262
30
43.5477106185593
 70
     32
  0
VERTEX
  8
MY3DLAYER
10
145.349440633172
20
226.926745296842
30
43.499213495519
 70
     32
  0
VERTEX
  8
MY3DLAYER
10
130.875720874598
20
202.656461239609
30
19.7046782778179
 70
     32
  0
SEQEND
  0
POLYLINE
 8
Layer0
 66
     1
70
    8
 10
0.0
 20
 0.0
 30
0.0
  0
VERTEX
  8
MY3DLAYER
10
145.282326251119
20
251.194732472848
30
40.5451196904497
 70
     32
  0
VERTEX
  8
MY3DLAYER
10
130.949304328899
20
227.669220999479
30
16.91925603653
 70
     32
  0
VERTEX
  8
MY3DLAYER
10
131.521379842644
20
216.569932386015
30
19.2679831074409
 70
     32
  0
VERTEX
  8
MY3DLAYER
10
145.282326251119
20
238.905634191685
30
41.9801555881013
 70
     32
  0
VERTEX
  8
MY3DLAYER
10
145.282326251119
20
251.194732472848
30
40.5451196904497
 70
     32
  0
SEQEND
  0
POLYLINE
 8
Layer0
 66
     1
70
    8
 10
0.0
 20
 0.0
 30
0.0
  0
VERTEX
  8
MY3DLAYER
10
145.216200556875
20
275.598696764095
30
37.5737211046565
 70
     32
  0
VERTEX
  8
MY3DLAYER
10
130.743855325541
20
251.321994164486
30
13.7792190375044
 70
     32
  0
VERTEX
  8
MY3DLAYER
10
131.006686057356
20
240.27664557617
30
15.5526315763865
 70
     32
  0
VERTEX
  8
MY3DLAYER
10
145.249146873807
20
263.405782862113
30
39.0581470532014
 70
     32
  0
VERTEX
  8
MY3DLAYER
10
145.216200556875
20
275.598696764095
30
37.5737211046565
 70
     32
  0
SEQEND
  0
POLYLINE
 8
Layer0
 66
     1
70
    8
 10
0.0
 20
 0.0
 30
0.0
  0
VERTEX
  8
MY3DLAYER
10
125.0
20
0.0
30
0.0
 70
     32
  0
VERTEX
  8
MY3DLAYER
10
148.5
20
139.327105207203
30
62.2888493795661
 70
     32
  0
VERTEX
  8
MY3DLAYER
10
116.0
20
137.0
30
0.0
 70
     32
  0
VERTEX
  8
MY3DLAYER
10
118.463503649635
20
99.5
30
0.0
 70
     32
  0
VERTEX
  8
MY3DLAYER
10
119.284671532847
20
87.0
30
0.0
 70
     32
  0
VERTEX
  8
MY3DLAYER
10
120.595995311035
20
67.0387380431316
30
0.0
 70
     32
  0
VERTEX
  8
MY3DLAYER
10
125.0
20
0.0
30
0.0
 70
     32
  0
SEQEND
  0
POLYLINE
 8
Layer0
 66
     1
70
    8
 10
0.0
 20
 0.0
 30
0.0
  0
VERTEX
  8
MY3DLAYER
10
116.0
20
137.0
30
0.0
 70
     32
  0
VERTEX
  8
MY3DLAYER
10
126.009883534945
20
283.255520538362
30
0.0
 70
     32
  0
VERTEX
  8
MY3DLAYER
10
134.0
20
400.0
30
0.0
 70
     32
  0
VERTEX
  8
MY3DLAYER
10
149.529820844558
20
428.105596840399
30
27.7021566704501
 70
     32
  0
VERTEX
  8
MY3DLAYER
10
116.0
20
137.0
30
0.0
 70
     32
  0
SEQEND
  0
POLYLINE
 8
Layer0
 66
     1
70
    8
 10
0.0
 20
 0.0
 30
0.0
  0
VERTEX
  8
MY3DLAYER
10
148.5
20
139.327105207203
30
62.2888493795661
 70
     32
  0
VERTEX
  8
MY3DLAYER
10
125.0
20
0.0
30
0.0
 70
     32
  0
VERTEX
  8
MY3DLAYER
10
148.5
20
0.0
30
62.2888493795661
 70
     32
  0
VERTEX
  8
MY3DLAYER
10
148.5
20
139.327105207203
30
62.2888493795661
 70
     32
  0
SEQEND
 0
ENDSEC
 0
EOF
