 0
SECTION
 2
ENTITIES
  0
LINE
 8
Layer0
10
125.0
20
0.0
30
-2.99999999999999
11
175.0
21
0.0
31
-2.99999999999999
  0
LINE
 8
Layer0
10
134.0
20
400.0
30
-3.0
11
126.009883534945
21
283.255520538362
31
-3.0
  0
LINE
 8
Layer0
10
166.0
20
400.0
30
-3.0
11
134.0
21
400.0
31
-3.0
  0
LINE
 8
Layer0
10
173.990116465055
20
283.255520538361
30
-3.0
11
166.0
21
400.0
31
-3.0
  0
LINE
 8
Layer0
10
179.398826979472
20
66.9599217986315
30
-3.0
11
175.0
21
0.0
31
-2.99999999999999
  0
LINE
 8
Layer0
10
5.77350269189626
20
75.0
30
-3.0
11
19.918584287042
21
99.5
31
-3.0
  0
LINE
 8
Layer0
10
180.715328467153
20
87.0
30
-3.0
11
179.398826979472
21
66.9599217986315
31
-3.0
  0
LINE
 8
Layer0
10
181.536496350365
20
99.5
30
-3.0
11
180.715328467153
21
87.0
31
-3.0
  0
LINE
 8
Layer0
10
19.918584287042
20
99.5
30
-3.0
11
118.463503649635
21
99.5
31
-3.0
  0
LINE
 8
Layer0
10
5.77350269189626
20
75.0
30
-3.0
11
120.595995311035
21
67.0387380431316
31
-3.0
  0
LINE
 8
LowerLeftFront-a
10
-119.510873904884
20
250.759568125175
30
1.80486330768927e-013
11
-18.9174417442837
21
357.39838123973
31
4.28643381233142e-013
  0
LINE
 8
LowerLeftFront-a
10
-242.215673233206
20
165.638044632321
30
8.47588586129763e-018
11
-18.9174417442837
21
357.39838123973
31
4.28643381233142e-013
  0
LINE
 8
LowerLeftFront-a
10
-199.806836967479
20
165.638044632321
30
-1.12713900443303e-014
11
-119.510873904884
21
250.759568125175
31
1.80486330768927e-013
  0
LINE
 8
LowerLeftFront-a
10
-242.215673233206
20
165.638044632321
30
8.47588586129763e-018
11
-199.806836967479
21
165.638044632321
31
-1.12713900443303e-014
  0
LINE
 8
Layer0
10
119.284671532847
20
87.0
30
-3.0
11
120.595995311035
21
67.0387380431316
31
-3.0
  0
LINE
 8
Layer0
10
118.463503649635
20
99.5
30
-3.0
11
119.284671532847
21
87.0
31
-3.0
  0
LINE
 8
Layer0
10
173.990116465055
20
283.255520538361
30
-3.0
11
280.081415712958
21
99.5
31
-3.0
  0
LINE
 8
Layer0
10
120.595995311035
20
67.0387380431316
30
-3.0
11
125.0
21
0.0
31
-2.99999999999999
  0
LINE
 8
Layer0
10
280.081415712958
20
99.5
30
-3.0
11
181.536496350365
21
99.5
31
-3.0
  0
LINE
 8
Layer0
10
280.081415712958
20
99.5
30
-3.0
11
294.440483209154
21
74.629365547277
31
-3.0
  0
LINE
 8
Layer0
10
179.398826979472
20
66.9599217986315
30
-3.0
11
294.440483209154
21
74.629365547277
31
-3.0
  0
LINE
 8
Layer0
10
19.918584287042
20
99.5
30
-3.0
11
126.009883534945
21
283.255520538362
31
-3.0
  0
LINE
 8
UpperLeftFront-a
10
-196.479501168271
20
291.248137451851
30
-4.51194637207664e-014
11
-490.816258780817
21
291.248137451851
31
0.0
  0
LINE
 8
UpperLeftFront-a
10
-478.779084925804
20
361.222580080998
30
3.38395977905748e-014
11
-490.816258780817
21
291.248137451851
31
0.0
  0
LINE
 8
UpperLeftFront-a
10
-346.874524266817
20
318.738985064039
30
-1.12798659301916e-014
11
-358.790124013214
21
321.720635271777
31
-1.12798659301916e-014
  0
LINE
 8
UpperLeftFront-a
10
-406.221001245943
20
333.590285231538
30
1.12798659301916e-014
11
-394.381581857367
21
330.692067122541
31
0.00310112844535908
  0
LINE
 8
UpperLeftFront-a
10
-394.381581857367
20
330.692067122541
30
0.00310112844535908
11
-394.439297217268
21
330.64194454479
31
0.00154736236389423
  0
LINE
 8
UpperLeftFront-a
10
-196.479501168271
20
291.248137451851
30
-4.51194637207664e-014
11
-478.779084925804
21
361.222580080998
31
3.38395977905748e-014
  0
LINE
 8
UpperLeftFront-a
10
-433.97893494605
20
309.306235621744
30
1.12798659301916e-014
11
-422.33141903555
21
306.419130996924
31
0.0
  0
LINE
 8
UpperLeftFront-a
10
-433.97893494605
20
309.306235621744
30
1.12798659301916e-014
11
-406.221001245943
21
333.590285231538
31
1.12798659301916e-014
  0
LINE
 8
UpperLeftFront-a
10
-394.439297217268
20
330.64194454479
30
0.00154736236389423
11
-422.33141903555
21
306.419130996924
31
0.0
  0
LINE
 8
UpperLeftFront-a
10
-370.723394912053
20
324.707102375077
30
-2.25597318603832e-014
11
-397.847017380466
21
300.595367781915
31
0.0
  0
LINE
 8
UpperLeftFront-a
10
-397.847017380466
20
300.595367781915
30
0.0
11
-408.53823606165
21
304.434096749052
31
-1.12798659301916e-014
  0
LINE
 8
UpperLeftFront-a
10
-382.74252473192
20
327.643389650673
30
-1.12798659301916e-014
11
-408.53823606165
21
304.434096749052
31
-1.12798659301916e-014
  0
LINE
 8
UpperLeftFront-a
10
-370.723394912053
20
324.707102375077
30
-2.25597318603832e-014
11
-382.74252473192
21
327.643389650673
31
-1.12798659301916e-014
  0
LINE
 8
UpperLeftFront-a
10
-346.874524266817
20
318.738985064039
30
-1.12798659301916e-014
11
-374.772834464798
21
294.517719978876
31
-2.25597318603832e-014
  0
LINE
 8
UpperLeftFront-a
10
-385.500080356134
20
297.702055553354
30
-1.12798659301916e-014
11
-374.772834464798
21
294.517719978876
31
-2.25597318603832e-014
  0
LINE
 8
UpperLeftFront-a
10
-385.500080356134
20
297.702055553354
30
-1.12798659301916e-014
11
-358.790124013214
21
321.720635271777
31
-1.12798659301916e-014
 0
ENDSEC
 0
EOF
