 0
SECTION
 2
ENTITIES
  0
POLYLINE
 8
Layer0
 66
     1
70
    8
 10
0.0
 20
 0.0
 30
0.0
  0
VERTEX
  8
MY3DLAYER
10
148.5
20
136.999999999992
30
0.0
 70
     32
  0
VERTEX
  8
MY3DLAYER
10
150.0
20
140.0
30
0.0
 70
     32
  0
VERTEX
  8
MY3DLAYER
10
150.0
20
136.999999999986
30
5.16893712577557e-031
 70
     32
  0
VERTEX
  8
MY3DLAYER
10
148.5
20
136.999999999992
30
0.0
 70
     32
  0
SEQEND
  0
POLYLINE
 8
Layer0
 66
     1
70
    8
 10
0.0
 20
 0.0
 30
0.0
  0
VERTEX
  8
MY3DLAYER
10
150.0
20
140.0
30
0.0
 70
     32
  0
VERTEX
  8
MY3DLAYER
10
155.17638090205
20
140.0
30
0.681483474218638
 70
     32
  0
VERTEX
  8
MY3DLAYER
10
155.17638090205
20
113.8
30
0.681483474218638
 70
     32
  0
VERTEX
  8
MY3DLAYER
10
150.0
20
113.8
30
9.02841017964475e-030
 70
     32
  0
VERTEX
  8
MY3DLAYER
10
150.0
20
136.999999999986
30
5.16893712577557e-031
 70
     32
  0
VERTEX
  8
MY3DLAYER
10
150.0
20
140.0
30
0.0
 70
     32
  0
SEQEND
  0
POLYLINE
 8
Layer0
 66
     1
70
    8
 10
0.0
 20
 0.0
 30
0.0
  0
VERTEX
  8
MY3DLAYER
10
144.82361909795
20
140.0
30
0.681483474218635
 70
     32
  0
VERTEX
  8
MY3DLAYER
10
150.0
20
140.0
30
0.0
 70
     32
  0
VERTEX
  8
MY3DLAYER
10
150.0
20
136.999999999986
30
5.16893712577557e-031
 70
     32
  0
VERTEX
  8
MY3DLAYER
10
150.0
20
113.8
30
9.02841017964475e-030
 70
     32
  0
VERTEX
  8
MY3DLAYER
10
144.82361909795
20
113.8
30
0.681483474218635
 70
     32
  0
VERTEX
  8
MY3DLAYER
10
144.82361909795
20
140.0
30
0.681483474218635
 70
     32
  0
SEQEND
  0
POLYLINE
 8
Layer0
 66
     1
70
    8
 10
0.0
 20
 0.0
 30
0.0
  0
VERTEX
  8
MY3DLAYER
10
140.0
20
140.0
30
2.67949192431122
 70
     32
  0
VERTEX
  8
MY3DLAYER
10
144.82361909795
20
140.0
30
0.681483474218635
 70
     32
  0
VERTEX
  8
MY3DLAYER
10
144.82361909795
20
113.8
30
0.681483474218635
 70
     32
  0
VERTEX
  8
MY3DLAYER
10
140.0
20
113.8
30
2.67949192431122
 70
     32
  0
VERTEX
  8
MY3DLAYER
10
140.0
20
140.0
30
2.67949192431122
 70
     32
  0
SEQEND
  0
POLYLINE
 8
Layer0
 66
     1
70
    8
 10
0.0
 20
 0.0
 30
0.0
  0
VERTEX
  8
MY3DLAYER
10
135.857864376269
20
140.0
30
5.85786437626905
 70
     32
  0
VERTEX
  8
MY3DLAYER
10
140.0
20
140.0
30
2.67949192431122
 70
     32
  0
VERTEX
  8
MY3DLAYER
10
140.0
20
113.8
30
2.67949192431122
 70
     32
  0
VERTEX
  8
MY3DLAYER
10
135.857864376269
20
113.8
30
5.85786437626905
 70
     32
  0
VERTEX
  8
MY3DLAYER
10
135.857864376269
20
140.0
30
5.85786437626905
 70
     32
  0
SEQEND
  0
POLYLINE
 8
Layer0
 66
     1
70
    8
 10
0.0
 20
 0.0
 30
0.0
  0
VERTEX
  8
MY3DLAYER
10
132.679491924311
20
140.0
30
10.0
 70
     32
  0
VERTEX
  8
MY3DLAYER
10
135.857864376269
20
140.0
30
5.85786437626905
 70
     32
  0
VERTEX
  8
MY3DLAYER
10
135.857864376269
20
113.8
30
5.85786437626905
 70
     32
  0
VERTEX
  8
MY3DLAYER
10
132.679491924311
20
113.8
30
10.0
 70
     32
  0
VERTEX
  8
MY3DLAYER
10
132.679491924311
20
140.0
30
10.0
 70
     32
  0
SEQEND
  0
POLYLINE
 8
Layer0
 66
     1
70
    8
 10
0.0
 20
 0.0
 30
0.0
  0
VERTEX
  8
MY3DLAYER
10
130.681483474219
20
140.0
30
14.8236190979496
 70
     32
  0
VERTEX
  8
MY3DLAYER
10
132.679491924311
20
140.0
30
10.0
 70
     32
  0
VERTEX
  8
MY3DLAYER
10
132.679491924311
20
113.8
30
10.0
 70
     32
  0
VERTEX
  8
MY3DLAYER
10
130.681483474219
20
113.8
30
14.8236190979496
 70
     32
  0
VERTEX
  8
MY3DLAYER
10
130.681483474219
20
140.0
30
14.8236190979496
 70
     32
  0
SEQEND
  0
POLYLINE
 8
Layer0
 66
     1
70
    8
 10
0.0
 20
 0.0
 30
0.0
  0
VERTEX
  8
MY3DLAYER
10
130.0
20
140.0
30
20.0
 70
     32
  0
VERTEX
  8
MY3DLAYER
10
130.681483474219
20
140.0
30
14.8236190979496
 70
     32
  0
VERTEX
  8
MY3DLAYER
10
130.681483474219
20
113.8
30
14.8236190979496
 70
     32
  0
VERTEX
  8
MY3DLAYER
10
130.0
20
113.8
30
20.0
 70
     32
  0
VERTEX
  8
MY3DLAYER
10
130.0
20
140.0
30
20.0
 70
     32
  0
SEQEND
  0
POLYLINE
 8
Layer0
 66
     1
70
    8
 10
0.0
 20
 0.0
 30
0.0
  0
VERTEX
  8
MY3DLAYER
10
130.681483474219
20
140.0
30
25.1763809020504
 70
     32
  0
VERTEX
  8
MY3DLAYER
10
130.0
20
140.0
30
20.0
 70
     32
  0
VERTEX
  8
MY3DLAYER
10
130.0
20
113.8
30
20.0
 70
     32
  0
VERTEX
  8
MY3DLAYER
10
130.681483474219
20
113.8
30
25.1763809020504
 70
     32
  0
VERTEX
  8
MY3DLAYER
10
130.681483474219
20
140.0
30
25.1763809020504
 70
     32
  0
SEQEND
  0
POLYLINE
 8
Layer0
 66
     1
70
    8
 10
0.0
 20
 0.0
 30
0.0
  0
VERTEX
  8
MY3DLAYER
10
132.679491924311
20
140.0
30
30.0
 70
     32
  0
VERTEX
  8
MY3DLAYER
10
130.681483474219
20
140.0
30
25.1763809020504
 70
     32
  0
VERTEX
  8
MY3DLAYER
10
130.681483474219
20
113.8
30
25.1763809020504
 70
     32
  0
VERTEX
  8
MY3DLAYER
10
132.679491924311
20
113.8
30
30.0
 70
     32
  0
VERTEX
  8
MY3DLAYER
10
132.679491924311
20
140.0
30
30.0
 70
     32
  0
SEQEND
  0
POLYLINE
 8
Layer0
 66
     1
70
    8
 10
0.0
 20
 0.0
 30
0.0
  0
VERTEX
  8
MY3DLAYER
10
135.857864376269
20
140.0
30
34.142135623731
 70
     32
  0
VERTEX
  8
MY3DLAYER
10
132.679491924311
20
140.0
30
30.0
 70
     32
  0
VERTEX
  8
MY3DLAYER
10
132.679491924311
20
113.8
30
30.0
 70
     32
  0
VERTEX
  8
MY3DLAYER
10
135.857864376269
20
113.8
30
34.142135623731
 70
     32
  0
VERTEX
  8
MY3DLAYER
10
135.857864376269
20
140.0
30
34.142135623731
 70
     32
  0
SEQEND
  0
POLYLINE
 8
Layer0
 66
     1
70
    8
 10
0.0
 20
 0.0
 30
0.0
  0
VERTEX
  8
MY3DLAYER
10
140.0
20
140.0
30
37.3205080756888
 70
     32
  0
VERTEX
  8
MY3DLAYER
10
135.857864376269
20
140.0
30
34.142135623731
 70
     32
  0
VERTEX
  8
MY3DLAYER
10
135.857864376269
20
113.8
30
34.142135623731
 70
     32
  0
VERTEX
  8
MY3DLAYER
10
140.0
20
113.8
30
37.3205080756888
 70
     32
  0
VERTEX
  8
MY3DLAYER
10
140.0
20
140.0
30
37.3205080756888
 70
     32
  0
SEQEND
  0
POLYLINE
 8
Layer0
 66
     1
70
    8
 10
0.0
 20
 0.0
 30
0.0
  0
VERTEX
  8
MY3DLAYER
10
144.82361909795
20
140.0
30
39.3185165257814
 70
     32
  0
VERTEX
  8
MY3DLAYER
10
140.0
20
140.0
30
37.3205080756888
 70
     32
  0
VERTEX
  8
MY3DLAYER
10
140.0
20
113.8
30
37.3205080756888
 70
     32
  0
VERTEX
  8
MY3DLAYER
10
144.82361909795
20
113.8
30
39.3185165257814
 70
     32
  0
VERTEX
  8
MY3DLAYER
10
144.82361909795
20
140.0
30
39.3185165257814
 70
     32
  0
SEQEND
  0
POLYLINE
 8
Layer0
 66
     1
70
    8
 10
0.0
 20
 0.0
 30
0.0
  0
VERTEX
  8
MY3DLAYER
10
150.0
20
140.0
30
40.0
 70
     32
  0
VERTEX
  8
MY3DLAYER
10
144.82361909795
20
140.0
30
39.3185165257814
 70
     32
  0
VERTEX
  8
MY3DLAYER
10
144.82361909795
20
113.8
30
39.3185165257814
 70
     32
  0
VERTEX
  8
MY3DLAYER
10
150.0
20
113.8
30
40.0
 70
     32
  0
VERTEX
  8
MY3DLAYER
10
150.0
20
140.0
30
40.0
 70
     32
  0
SEQEND
  0
POLYLINE
 8
Layer0
 66
     1
70
    8
 10
0.0
 20
 0.0
 30
0.0
  0
VERTEX
  8
MY3DLAYER
10
155.17638090205
20
140.0
30
39.3185165257814
 70
     32
  0
VERTEX
  8
MY3DLAYER
10
150.0
20
140.0
30
40.0
 70
     32
  0
VERTEX
  8
MY3DLAYER
10
150.0
20
113.8
30
40.0
 70
     32
  0
VERTEX
  8
MY3DLAYER
10
155.17638090205
20
113.8
30
39.3185165257814
 70
     32
  0
VERTEX
  8
MY3DLAYER
10
155.17638090205
20
140.0
30
39.3185165257814
 70
     32
  0
SEQEND
  0
POLYLINE
 8
Layer0
 66
     1
70
    8
 10
0.0
 20
 0.0
 30
0.0
  0
VERTEX
  8
MY3DLAYER
10
160.0
20
140.0
30
37.3205080756888
 70
     32
  0
VERTEX
  8
MY3DLAYER
10
155.17638090205
20
140.0
30
39.3185165257814
 70
     32
  0
VERTEX
  8
MY3DLAYER
10
155.17638090205
20
113.8
30
39.3185165257814
 70
     32
  0
VERTEX
  8
MY3DLAYER
10
160.0
20
113.8
30
37.3205080756888
 70
     32
  0
VERTEX
  8
MY3DLAYER
10
160.0
20
140.0
30
37.3205080756888
 70
     32
  0
SEQEND
  0
POLYLINE
 8
Layer0
 66
     1
70
    8
 10
0.0
 20
 0.0
 30
0.0
  0
VERTEX
  8
MY3DLAYER
10
164.142135623731
20
140.0
30
34.142135623731
 70
     32
  0
VERTEX
  8
MY3DLAYER
10
160.0
20
140.0
30
37.3205080756888
 70
     32
  0
VERTEX
  8
MY3DLAYER
10
160.0
20
113.8
30
37.3205080756888
 70
     32
  0
VERTEX
  8
MY3DLAYER
10
164.142135623731
20
113.8
30
34.142135623731
 70
     32
  0
VERTEX
  8
MY3DLAYER
10
164.142135623731
20
140.0
30
34.142135623731
 70
     32
  0
SEQEND
  0
POLYLINE
 8
Layer0
 66
     1
70
    8
 10
0.0
 20
 0.0
 30
0.0
  0
VERTEX
  8
MY3DLAYER
10
167.320508075689
20
140.0
30
30.0
 70
     32
  0
VERTEX
  8
MY3DLAYER
10
164.142135623731
20
140.0
30
34.142135623731
 70
     32
  0
VERTEX
  8
MY3DLAYER
10
164.142135623731
20
113.8
30
34.142135623731
 70
     32
  0
VERTEX
  8
MY3DLAYER
10
167.320508075689
20
113.8
30
30.0
 70
     32
  0
VERTEX
  8
MY3DLAYER
10
167.320508075689
20
140.0
30
30.0
 70
     32
  0
SEQEND
  0
POLYLINE
 8
Layer0
 66
     1
70
    8
 10
0.0
 20
 0.0
 30
0.0
  0
VERTEX
  8
MY3DLAYER
10
169.318516525781
20
140.0
30
25.1763809020504
 70
     32
  0
VERTEX
  8
MY3DLAYER
10
167.320508075689
20
140.0
30
30.0
 70
     32
  0
VERTEX
  8
MY3DLAYER
10
167.320508075689
20
113.8
30
30.0
 70
     32
  0
VERTEX
  8
MY3DLAYER
10
169.318516525781
20
113.8
30
25.1763809020504
 70
     32
  0
VERTEX
  8
MY3DLAYER
10
169.318516525781
20
140.0
30
25.1763809020504
 70
     32
  0
SEQEND
  0
POLYLINE
 8
Layer0
 66
     1
70
    8
 10
0.0
 20
 0.0
 30
0.0
  0
VERTEX
  8
MY3DLAYER
10
170.0
20
140.0
30
20.0
 70
     32
  0
VERTEX
  8
MY3DLAYER
10
169.318516525781
20
140.0
30
25.1763809020504
 70
     32
  0
VERTEX
  8
MY3DLAYER
10
169.318516525781
20
113.8
30
25.1763809020504
 70
     32
  0
VERTEX
  8
MY3DLAYER
10
170.0
20
113.8
30
20.0
 70
     32
  0
VERTEX
  8
MY3DLAYER
10
170.0
20
140.0
30
20.0
 70
     32
  0
SEQEND
  0
POLYLINE
 8
Layer0
 66
     1
70
    8
 10
0.0
 20
 0.0
 30
0.0
  0
VERTEX
  8
MY3DLAYER
10
169.318516525781
20
140.0
30
14.8236190979496
 70
     32
  0
VERTEX
  8
MY3DLAYER
10
170.0
20
140.0
30
20.0
 70
     32
  0
VERTEX
  8
MY3DLAYER
10
170.0
20
113.8
30
20.0
 70
     32
  0
VERTEX
  8
MY3DLAYER
10
169.318516525781
20
113.8
30
14.8236190979496
 70
     32
  0
VERTEX
  8
MY3DLAYER
10
169.318516525781
20
140.0
30
14.8236190979496
 70
     32
  0
SEQEND
  0
POLYLINE
 8
Layer0
 66
     1
70
    8
 10
0.0
 20
 0.0
 30
0.0
  0
VERTEX
  8
MY3DLAYER
10
167.320508075689
20
140.0
30
10.0
 70
     32
  0
VERTEX
  8
MY3DLAYER
10
169.318516525781
20
140.0
30
14.8236190979496
 70
     32
  0
VERTEX
  8
MY3DLAYER
10
169.318516525781
20
113.8
30
14.8236190979496
 70
     32
  0
VERTEX
  8
MY3DLAYER
10
167.320508075689
20
113.8
30
10.0
 70
     32
  0
VERTEX
  8
MY3DLAYER
10
167.320508075689
20
140.0
30
10.0
 70
     32
  0
SEQEND
  0
POLYLINE
 8
Layer0
 66
     1
70
    8
 10
0.0
 20
 0.0
 30
0.0
  0
VERTEX
  8
MY3DLAYER
10
164.142135623731
20
140.0
30
5.85786437626905
 70
     32
  0
VERTEX
  8
MY3DLAYER
10
167.320508075689
20
140.0
30
10.0
 70
     32
  0
VERTEX
  8
MY3DLAYER
10
167.320508075689
20
113.8
30
10.0
 70
     32
  0
VERTEX
  8
MY3DLAYER
10
164.142135623731
20
113.8
30
5.85786437626905
 70
     32
  0
VERTEX
  8
MY3DLAYER
10
164.142135623731
20
140.0
30
5.85786437626905
 70
     32
  0
SEQEND
  0
POLYLINE
 8
Layer0
 66
     1
70
    8
 10
0.0
 20
 0.0
 30
0.0
  0
VERTEX
  8
MY3DLAYER
10
160.0
20
140.0
30
2.67949192431123
 70
     32
  0
VERTEX
  8
MY3DLAYER
10
164.142135623731
20
140.0
30
5.85786437626905
 70
     32
  0
VERTEX
  8
MY3DLAYER
10
164.142135623731
20
113.8
30
5.85786437626905
 70
     32
  0
VERTEX
  8
MY3DLAYER
10
160.0
20
113.8
30
2.67949192431123
 70
     32
  0
VERTEX
  8
MY3DLAYER
10
160.0
20
140.0
30
2.67949192431123
 70
     32
  0
SEQEND
  0
POLYLINE
 8
Layer0
 66
     1
70
    8
 10
0.0
 20
 0.0
 30
0.0
  0
VERTEX
  8
MY3DLAYER
10
155.17638090205
20
140.0
30
0.681483474218638
 70
     32
  0
VERTEX
  8
MY3DLAYER
10
160.0
20
140.0
30
2.67949192431123
 70
     32
  0
VERTEX
  8
MY3DLAYER
10
160.0
20
113.8
30
2.67949192431123
 70
     32
  0
VERTEX
  8
MY3DLAYER
10
155.17638090205
20
113.8
30
0.681483474218638
 70
     32
  0
VERTEX
  8
MY3DLAYER
10
155.17638090205
20
140.0
30
0.681483474218638
 70
     32
  0
SEQEND
  0
POLYLINE
 8
Layer0
 66
     1
70
    8
 10
0.0
 20
 0.0
 30
0.0
  0
VERTEX
  8
MY3DLAYER
10
151.5
20
136.999999999979
30
0.0
 70
     32
  0
VERTEX
  8
MY3DLAYER
10
150.0
20
136.999999999986
30
5.16893712577557e-031
 70
     32
  0
VERTEX
  8
MY3DLAYER
10
150.0
20
140.0
30
0.0
 70
     32
  0
VERTEX
  8
MY3DLAYER
10
151.5
20
136.999999999979
30
0.0
 70
     32
  0
SEQEND
  0
POLYLINE
 8
Layer0
 66
     1
70
    8
 10
0.0
 20
 0.0
 30
0.0
  0
VERTEX
  8
MY3DLAYER
10
294.440483209154
20
74.629365547277
30
0.0
 70
     32
  0
VERTEX
  8
MY3DLAYER
10
280.081415712958
20
99.5
30
0.0
 70
     32
  0
VERTEX
  8
MY3DLAYER
10
181.536496350365
20
99.5
30
0.0
 70
     32
  0
VERTEX
  8
MY3DLAYER
10
180.715328467153
20
87.0
30
0.0
 70
     32
  0
VERTEX
  8
MY3DLAYER
10
179.398826979472
20
66.9599217986315
30
0.0
 70
     32
  0
VERTEX
  8
MY3DLAYER
10
294.440483209154
20
74.629365547277
30
0.0
 70
     32
  0
SEQEND
  0
POLYLINE
 8
Layer0
 66
     1
70
    8
 10
0.0
 20
 0.0
 30
0.0
  0
VERTEX
  8
MY3DLAYER
10
151.5
20
0.0
30
62.2888493795661
 70
     32
  0
VERTEX
  8
MY3DLAYER
10
150.0
20
0.0
30
62.2888493795661
 70
     32
  0
VERTEX
  8
MY3DLAYER
10
148.5
20
0.0
30
62.2888493795661
 70
     32
  0
VERTEX
  8
MY3DLAYER
10
125.0
20
0.0
30
0.0
 70
     32
  0
VERTEX
  8
MY3DLAYER
10
125.0
20
2.08153855330344e-016
30
-0.547091589342942
 70
     32
  0
VERTEX
  8
MY3DLAYER
10
128.0
20
0.0
30
-0.547091589342939
 70
     32
  0
VERTEX
  8
MY3DLAYER
10
172.0
20
0.0
30
-0.547091589342919
 70
     32
  0
VERTEX
  8
MY3DLAYER
10
175.0
20
2.08153855330344e-016
30
-0.547091589342942
 70
     32
  0
VERTEX
  8
MY3DLAYER
10
175.0
20
0.0
30
0.0
 70
     32
  0
VERTEX
  8
MY3DLAYER
10
151.5
20
0.0
30
62.2888493795661
 70
     32
  0
SEQEND
  0
POLYLINE
 8
Layer0
 66
     1
70
    8
 10
0.0
 20
 0.0
 30
0.0
  0
VERTEX
  8
MY3DLAYER
10
172.0
20
0.0
30
-0.547091589342919
 70
     32
  0
VERTEX
  8
MY3DLAYER
10
171.793596245915
20
0.0
30
-7.03338064760864e-016
 70
     32
  0
VERTEX
  8
MY3DLAYER
10
128.206403754085
20
0.0
30
-1.65355587611057e-018
 70
     32
  0
VERTEX
  8
MY3DLAYER
10
128.0
20
0.0
30
-0.547091589342939
 70
     32
  0
VERTEX
  8
MY3DLAYER
10
128.0
20
0.0
30
0.0
 70
     32
  0
VERTEX
  8
MY3DLAYER
10
128.206403754085
20
0.0
30
-1.65355587611057e-018
 70
     32
  0
VERTEX
  8
MY3DLAYER
10
150.0
20
0.0
30
57.7658737872722
 70
     32
  0
VERTEX
  8
MY3DLAYER
10
149.425420010557
20
0.0
30
59.2888493795661
 70
     32
  0
VERTEX
  8
MY3DLAYER
10
150.0
20
0.0
30
59.2888493795661
 70
     32
  0
VERTEX
  8
MY3DLAYER
10
150.574579989443
20
0.0
30
59.2888493795661
 70
     32
  0
VERTEX
  8
MY3DLAYER
10
150.0
20
0.0
30
57.7658737872722
 70
     32
  0
VERTEX
  8
MY3DLAYER
10
171.793596245915
20
0.0
30
-7.03338064760864e-016
 70
     32
  0
VERTEX
  8
MY3DLAYER
10
172.0
20
0.0
30
-7.04991620636974e-016
 70
     32
  0
VERTEX
  8
MY3DLAYER
10
172.0
20
0.0
30
-0.547091589342919
 70
     32
  0
SEQEND
  0
LINE
 8
Layer0
10
116.0
20
137.0
30
0.0
11
116.0
21
137.0
31
-3.0
  0
POLYLINE
 8
Layer0
 66
     1
70
    8
 10
0.0
 20
 0.0
 30
0.0
  0
VERTEX
  8
MY3DLAYER
10
179.398826979472
20
66.9599217986315
30
-3.0
 70
     32
  0
VERTEX
  8
MY3DLAYER
10
180.715328467153
20
87.0
30
-3.0
 70
     32
  0
VERTEX
  8
MY3DLAYER
10
181.536496350365
20
99.5
30
-3.0
 70
     32
  0
VERTEX
  8
MY3DLAYER
10
280.081415712958
20
99.5
30
-3.0
 70
     32
  0
VERTEX
  8
MY3DLAYER
10
294.440483209154
20
74.629365547277
30
-3.0
 70
     32
  0
VERTEX
  8
MY3DLAYER
10
179.398826979472
20
66.9599217986315
30
-3.0
 70
     32
  0
SEQEND
  0
POLYLINE
 8
Layer0
 66
     1
70
    8
 10
0.0
 20
 0.0
 30
0.0
  0
VERTEX
  8
MY3DLAYER
10
294.440483209154
20
74.629365547277
30
0.0
 70
     32
  0
VERTEX
  8
MY3DLAYER
10
179.398826979472
20
66.9599217986315
30
0.0
 70
     32
  0
VERTEX
  8
MY3DLAYER
10
179.398826979472
20
66.9599217986315
30
-0.547091589342947
 70
     32
  0
VERTEX
  8
MY3DLAYER
10
179.398826979472
20
66.9599217986315
30
-3.0
 70
     32
  0
VERTEX
  8
MY3DLAYER
10
294.440483209154
20
74.629365547277
30
-3.0
 70
     32
  0
VERTEX
  8
MY3DLAYER
10
294.440483209154
20
74.629365547277
30
0.0
 70
     32
  0
SEQEND
  0
POLYLINE
 8
Layer0
 66
     1
70
    8
 10
0.0
 20
 0.0
 30
0.0
  0
VERTEX
  8
MY3DLAYER
10
120.595995311035
20
67.0387380431316
30
-3.0
 70
     32
  0
VERTEX
  8
MY3DLAYER
10
119.284671532847
20
87.0
30
-3.0
 70
     32
  0
VERTEX
  8
MY3DLAYER
10
118.463503649635
20
99.5
30
-3.0
 70
     32
  0
VERTEX
  8
MY3DLAYER
10
19.918584287042
20
99.5
30
-3.0
 70
     32
  0
VERTEX
  8
MY3DLAYER
10
5.77350269189626
20
75.0
30
-3.0
 70
     32
  0
VERTEX
  8
MY3DLAYER
10
120.595995311035
20
67.0387380431316
30
-3.0
 70
     32
  0
SEQEND
  0
POLYLINE
 8
Layer0
 66
     1
70
    8
 10
0.0
 20
 0.0
 30
0.0
  0
VERTEX
  8
MY3DLAYER
10
180.715328467153
20
87.0
30
0.0
 70
     32
  0
VERTEX
  8
MY3DLAYER
10
179.398826979472
20
66.9599217986315
30
0.0
 70
     32
  0
VERTEX
  8
MY3DLAYER
10
179.398826979472
20
66.9599217986315
30
-0.547091589342947
 70
     32
  0
VERTEX
  8
MY3DLAYER
10
179.398826979472
20
66.9599217986315
30
-3.0
 70
     32
  0
VERTEX
  8
MY3DLAYER
10
180.715328467153
20
87.0
30
-3.0
 70
     32
  0
VERTEX
  8
MY3DLAYER
10
180.715328467153
20
87.0
30
0.0
 70
     32
  0
SEQEND
  0
POLYLINE
 8
Layer0
 66
     1
70
    8
 10
0.0
 20
 0.0
 30
0.0
  0
VERTEX
  8
MY3DLAYER
10
179.398826979472
20
66.9599217986315
30
0.0
 70
     32
  0
VERTEX
  8
MY3DLAYER
10
175.0
20
0.0
30
0.0
 70
     32
  0
VERTEX
  8
MY3DLAYER
10
175.0
20
2.08153855330344e-016
30
-0.547091589342942
 70
     32
  0
VERTEX
  8
MY3DLAYER
10
179.398826979472
20
66.9599217986315
30
-0.547091589342947
 70
     32
  0
VERTEX
  8
MY3DLAYER
10
179.398826979472
20
66.9599217986315
30
0.0
 70
     32
  0
SEQEND
  0
POLYLINE
 8
Layer0
 66
     1
70
    8
 10
0.0
 20
 0.0
 30
0.0
  0
VERTEX
  8
MY3DLAYER
10
126.009883534945
20
283.255520538362
30
0.0
 70
     32
  0
VERTEX
  8
MY3DLAYER
10
134.0
20
400.0
30
0.0
 70
     32
  0
VERTEX
  8
MY3DLAYER
10
134.0
20
400.0
30
-3.0
 70
     32
  0
VERTEX
  8
MY3DLAYER
10
126.009883534945
20
283.255520538362
30
-3.0
 70
     32
  0
VERTEX
  8
MY3DLAYER
10
126.009883534945
20
283.255520538362
30
0.0
 70
     32
  0
SEQEND
  0
POLYLINE
 8
Layer0
 66
     1
70
    8
 10
0.0
 20
 0.0
 30
0.0
  0
VERTEX
  8
MY3DLAYER
10
166.0
20
400.0
30
0.0
 70
     32
  0
VERTEX
  8
MY3DLAYER
10
173.990116465055
20
283.255520538361
30
0.0
 70
     32
  0
VERTEX
  8
MY3DLAYER
10
173.990116465055
20
283.255520538361
30
-3.0
 70
     32
  0
VERTEX
  8
MY3DLAYER
10
166.0
20
400.0
30
-3.0
 70
     32
  0
VERTEX
  8
MY3DLAYER
10
166.0
20
400.0
30
0.0
 70
     32
  0
SEQEND
  0
POLYLINE
 8
Layer0
 66
     1
70
    8
 10
0.0
 20
 0.0
 30
0.0
  0
VERTEX
  8
MY3DLAYER
10
173.990116465055
20
283.255520538361
30
-3.0
 70
     32
  0
VERTEX
  8
MY3DLAYER
10
173.990116465055
20
283.255520538361
30
0.0
 70
     32
  0
VERTEX
  8
MY3DLAYER
10
280.081415712958
20
99.5
30
0.0
 70
     32
  0
VERTEX
  8
MY3DLAYER
10
280.081415712958
20
99.5
30
-3.0
 70
     32
  0
VERTEX
  8
MY3DLAYER
10
173.990116465055
20
283.255520538361
30
-3.0
 70
     32
  0
SEQEND
  0
POLYLINE
 8
Layer0
 66
     1
70
    8
 10
0.0
 20
 0.0
 30
0.0
  0
VERTEX
  8
MY3DLAYER
10
149.529820844558
20
428.105596840399
30
27.7021566704501
 70
     32
  0
VERTEX
  8
MY3DLAYER
10
166.0
20
400.0
30
0.0
 70
     32
  0
VERTEX
  8
MY3DLAYER
10
166.0
20
400.0
30
-3.0
 70
     32
  0
VERTEX
  8
MY3DLAYER
10
149.529820844558
20
428.105596840399
30
27.7021566704501
 70
     32
  0
SEQEND
  0
POLYLINE
 8
Layer0
 66
     1
70
    8
 10
0.0
 20
 0.0
 30
0.0
  0
VERTEX
  8
MY3DLAYER
10
149.529820844558
20
428.105596840399
30
27.7021566704501
 70
     32
  0
VERTEX
  8
MY3DLAYER
10
166.0
20
400.0
30
-3.0
 70
     32
  0
VERTEX
  8
MY3DLAYER
10
134.0
20
400.0
30
-3.0
 70
     32
  0
VERTEX
  8
MY3DLAYER
10
149.529820844558
20
428.105596840399
30
27.7021566704501
 70
     32
  0
SEQEND
  0
POLYLINE
 8
Layer0
 66
     1
70
    8
 10
0.0
 20
 0.0
 30
0.0
  0
VERTEX
  8
MY3DLAYER
10
161.586370076216
20
402.022410587199
30
-0.790747264583814
 70
     32
  0
VERTEX
  8
MY3DLAYER
10
149.609352334593
20
422.460635868138
30
21.5356811049929
 70
     32
  0
VERTEX
  8
MY3DLAYER
10
138.31615764472
20
402.022410587199
30
-0.790747264583814
 70
     32
  0
VERTEX
  8
MY3DLAYER
10
161.586370076216
20
402.022410587199
30
-0.790747264583814
 70
     32
  0
SEQEND
  0
POLYLINE
 8
Layer0
 66
     1
70
    8
 10
0.0
 20
 0.0
 30
0.0
  0
VERTEX
  8
MY3DLAYER
10
149.529820844558
20
428.105596840399
30
27.7021566704501
 70
     32
  0
VERTEX
  8
MY3DLAYER
10
134.0
20
400.0
30
-3.0
 70
     32
  0
VERTEX
  8
MY3DLAYER
10
134.0
20
400.0
30
0.0
 70
     32
  0
VERTEX
  8
MY3DLAYER
10
149.529820844558
20
428.105596840399
30
27.7021566704501
 70
     32
  0
SEQEND
  0
POLYLINE
 8
Layer0
 66
     1
70
    8
 10
0.0
 20
 0.0
 30
0.0
  0
VERTEX
  8
MY3DLAYER
10
116.0
20
137.0
30
0.0
 70
     32
  0
VERTEX
  8
MY3DLAYER
10
126.009883534945
20
283.255520538362
30
0.0
 70
     32
  0
VERTEX
  8
MY3DLAYER
10
134.0
20
400.0
30
0.0
 70
     32
  0
VERTEX
  8
MY3DLAYER
10
149.529820844558
20
428.105596840399
30
27.7021566704501
 70
     32
  0
VERTEX
  8
MY3DLAYER
10
116.0
20
137.0
30
0.0
 70
     32
  0
SEQEND
  0
POLYLINE
 8
Layer0
 66
     1
70
    8
 10
0.0
 20
 0.0
 30
0.0
  0
VERTEX
  8
MY3DLAYER
10
19.918584287042
20
99.5
30
-3.0
 70
     32
  0
VERTEX
  8
MY3DLAYER
10
118.463503649635
20
99.5
30
-3.0
 70
     32
  0
VERTEX
  8
MY3DLAYER
10
119.284671532847
20
87.0
30
-3.0
 70
     32
  0
VERTEX
  8
MY3DLAYER
10
120.595995311035
20
67.0387380431316
30
-3.0
 70
     32
  0
VERTEX
  8
MY3DLAYER
10
125.0
20
0.0
30
-2.99999999999999
 70
     32
  0
VERTEX
  8
MY3DLAYER
10
175.0
20
0.0
30
-2.99999999999999
 70
     32
  0
VERTEX
  8
MY3DLAYER
10
179.398826979472
20
66.9599217986315
30
-3.0
 70
     32
  0
VERTEX
  8
MY3DLAYER
10
180.715328467153
20
87.0
30
-3.0
 70
     32
  0
VERTEX
  8
MY3DLAYER
10
181.536496350365
20
99.5
30
-3.0
 70
     32
  0
VERTEX
  8
MY3DLAYER
10
280.081415712958
20
99.5
30
-3.0
 70
     32
  0
VERTEX
  8
MY3DLAYER
10
173.990116465055
20
283.255520538361
30
-3.0
 70
     32
  0
VERTEX
  8
MY3DLAYER
10
166.0
20
400.0
30
-3.0
 70
     32
  0
VERTEX
  8
MY3DLAYER
10
134.0
20
400.0
30
-3.0
 70
     32
  0
VERTEX
  8
MY3DLAYER
10
126.009883534945
20
283.255520538362
30
-3.0
 70
     32
  0
VERTEX
  8
MY3DLAYER
10
19.918584287042
20
99.5
30
-3.0
 70
     32
  0
SEQEND
  0
POLYLINE
 8
Layer0
 66
     1
70
    8
 10
0.0
 20
 0.0
 30
0.0
  0
VERTEX
  8
MY3DLAYER
10
125.0
20
0.0
30
0.0
 70
     32
  0
VERTEX
  8
MY3DLAYER
10
120.595995311035
20
67.0387380431316
30
0.0
 70
     32
  0
VERTEX
  8
MY3DLAYER
10
120.595995311035
20
67.0387380431316
30
-0.547091589342947
 70
     32
  0
VERTEX
  8
MY3DLAYER
10
125.0
20
2.08153855330344e-016
30
-0.547091589342942
 70
     32
  0
VERTEX
  8
MY3DLAYER
10
125.0
20
0.0
30
0.0
 70
     32
  0
SEQEND
  0
POLYLINE
 8
Layer0
 66
     1
70
    8
 10
0.0
 20
 0.0
 30
0.0
  0
VERTEX
  8
MY3DLAYER
10
5.77350269189626
20
75.0
30
-3.0
 70
     32
  0
VERTEX
  8
MY3DLAYER
10
120.595995311035
20
67.0387380431316
30
-3.0
 70
     32
  0
VERTEX
  8
MY3DLAYER
10
120.595995311035
20
67.0387380431316
30
-0.547091589342947
 70
     32
  0
VERTEX
  8
MY3DLAYER
10
120.595995311035
20
67.0387380431316
30
0.0
 70
     32
  0
VERTEX
  8
MY3DLAYER
10
5.77350269189626
20
75.0
30
0.0
 70
     32
  0
VERTEX
  8
MY3DLAYER
10
5.77350269189626
20
75.0
30
-3.0
 70
     32
  0
SEQEND
  0
POLYLINE
 8
Layer0
 66
     1
70
    8
 10
0.0
 20
 0.0
 30
0.0
  0
VERTEX
  8
MY3DLAYER
10
151.5
20
139.327105207203
30
62.2888493795661
 70
     32
  0
VERTEX
  8
MY3DLAYER
10
151.5
20
0.0
30
140.288849379566
 70
     32
  0
VERTEX
  8
MY3DLAYER
10
151.5
20
0.0
30
62.2888493795661
 70
     32
  0
VERTEX
  8
MY3DLAYER
10
151.5
20
139.327105207203
30
62.2888493795661
 70
     32
  0
SEQEND
  0
POLYLINE
 8
Layer0
 66
     1
70
    8
 10
0.0
 20
 0.0
 30
0.0
  0
VERTEX
  8
MY3DLAYER
10
151.5
20
139.327105207203
30
62.2888493795661
 70
     32
  0
VERTEX
  8
MY3DLAYER
10
150.0
20
139.327105207203
30
62.2888493795661
 70
     32
  0
VERTEX
  8
MY3DLAYER
10
148.5
20
139.327105207203
30
62.2888493795661
 70
     32
  0
VERTEX
  8
MY3DLAYER
10
148.5
20
0.0
30
140.288849379566
 70
     32
  0
VERTEX
  8
MY3DLAYER
10
151.5
20
0.0
30
140.288849379566
 70
     32
  0
VERTEX
  8
MY3DLAYER
10
151.5
20
139.327105207203
30
62.2888493795661
 70
     32
  0
SEQEND
  0
POLYLINE
 8
Layer0
 66
     1
70
    8
 10
0.0
 20
 0.0
 30
0.0
  0
VERTEX
  8
MY3DLAYER
10
150.0
20
0.0
30
62.2888493795661
 70
     32
  0
VERTEX
  8
MY3DLAYER
10
150.0
20
139.327105207203
30
62.2888493795661
 70
     32
  0
VERTEX
  8
MY3DLAYER
10
151.5
20
139.327105207203
30
62.2888493795661
 70
     32
  0
VERTEX
  8
MY3DLAYER
10
151.5
20
0.0
30
62.2888493795661
 70
     32
  0
VERTEX
  8
MY3DLAYER
10
150.0
20
0.0
30
62.2888493795661
 70
     32
  0
SEQEND
  0
POLYLINE
 8
Layer0
 66
     1
70
    8
 10
0.0
 20
 0.0
 30
0.0
  0
VERTEX
  8
MY3DLAYER
10
151.5
20
0.0
30
140.288849379566
 70
     32
  0
VERTEX
  8
MY3DLAYER
10
148.5
20
0.0
30
140.288849379566
 70
     32
  0
VERTEX
  8
MY3DLAYER
10
148.5
20
0.0
30
62.2888493795661
 70
     32
  0
VERTEX
  8
MY3DLAYER
10
150.0
20
0.0
30
62.2888493795661
 70
     32
  0
VERTEX
  8
MY3DLAYER
10
151.5
20
0.0
30
62.2888493795661
 70
     32
  0
VERTEX
  8
MY3DLAYER
10
151.5
20
0.0
30
140.288849379566
 70
     32
  0
SEQEND
  0
POLYLINE
 8
Layer0
 66
     1
70
    8
 10
0.0
 20
 0.0
 30
0.0
  0
VERTEX
  8
MY3DLAYER
10
148.5
20
0.0
30
140.288849379566
 70
     32
  0
VERTEX
  8
MY3DLAYER
10
148.5
20
139.327105207203
30
62.2888493795661
 70
     32
  0
VERTEX
  8
MY3DLAYER
10
148.5
20
0.0
30
62.2888493795661
 70
     32
  0
VERTEX
  8
MY3DLAYER
10
148.5
20
0.0
30
140.288849379566
 70
     32
  0
SEQEND
  0
POLYLINE
 8
Layer0
 66
     1
70
    8
 10
0.0
 20
 0.0
 30
0.0
  0
VERTEX
  8
MY3DLAYER
10
150.0
20
139.327105207203
30
62.2888493795661
 70
     32
  0
VERTEX
  8
MY3DLAYER
10
150.0
20
0.0
30
62.2888493795661
 70
     32
  0
VERTEX
  8
MY3DLAYER
10
148.5
20
0.0
30
62.2888493795661
 70
     32
  0
VERTEX
  8
MY3DLAYER
10
148.5
20
139.327105207203
30
62.2888493795661
 70
     32
  0
VERTEX
  8
MY3DLAYER
10
150.0
20
139.327105207203
30
62.2888493795661
 70
     32
  0
SEQEND
  0
POLYLINE
 8
Layer0
 66
     1
70
    8
 10
0.0
 20
 0.0
 30
0.0
  0
VERTEX
  8
MY3DLAYER
10
151.5
20
139.327105207203
30
62.2888493795661
 70
     32
  0
VERTEX
  8
MY3DLAYER
10
184.0
20
137.0
30
0.0
 70
     32
  0
VERTEX
  8
MY3DLAYER
10
150.0
20
139.327105207203
30
62.2888493795661
 70
     32
  0
VERTEX
  8
MY3DLAYER
10
151.5
20
139.327105207203
30
62.2888493795661
 70
     32
  0
SEQEND
  0
POLYLINE
 8
Layer0
 66
     1
70
    8
 10
0.0
 20
 0.0
 30
0.0
  0
VERTEX
  8
MY3DLAYER
10
116.0
20
137.0
30
0.0
 70
     32
  0
VERTEX
  8
MY3DLAYER
10
148.5
20
139.327105207203
30
62.2888493795661
 70
     32
  0
VERTEX
  8
MY3DLAYER
10
150.0
20
139.327105207203
30
62.2888493795661
 70
     32
  0
VERTEX
  8
MY3DLAYER
10
116.0
20
137.0
30
0.0
 70
     32
  0
SEQEND
  0
POLYLINE
 8
Layer0
 66
     1
70
    8
 10
0.0
 20
 0.0
 30
0.0
  0
VERTEX
  8
MY3DLAYER
10
148.5
20
139.327105207203
30
62.2888493795661
 70
     32
  0
VERTEX
  8
MY3DLAYER
10
125.0
20
0.0
30
0.0
 70
     32
  0
VERTEX
  8
MY3DLAYER
10
150.0
20
139.327105207203
30
62.2888493795661
 70
     32
  0
VERTEX
  8
MY3DLAYER
10
148.5
20
139.327105207203
30
62.2888493795661
 70
     32
  0
SEQEND
  0
POLYLINE
 8
Layer0
 66
     1
70
    8
 10
0.0
 20
 0.0
 30
0.0
  0
VERTEX
  8
MY3DLAYER
10
148.5
20
139.327105207203
30
62.2888493795661
 70
     32
  0
VERTEX
  8
MY3DLAYER
10
125.0
20
0.0
30
0.0
 70
     32
  0
VERTEX
  8
MY3DLAYER
10
148.5
20
0.0
30
62.2888493795661
 70
     32
  0
VERTEX
  8
MY3DLAYER
10
148.5
20
139.327105207203
30
62.2888493795661
 70
     32
  0
SEQEND
  0
POLYLINE
 8
Layer0
 66
     1
70
    8
 10
0.0
 20
 0.0
 30
0.0
  0
VERTEX
  8
MY3DLAYER
10
150.0
20
0.0
30
57.7658737872722
 70
     32
  0
VERTEX
  8
MY3DLAYER
10
150.574579989443
20
0.0
30
59.2888493795661
 70
     32
  0
VERTEX
  8
MY3DLAYER
10
150.0
20
0.0
30
59.2888493795661
 70
     32
  0
VERTEX
  8
MY3DLAYER
10
149.425420010557
20
0.0
30
59.2888493795661
 70
     32
  0
VERTEX
  8
MY3DLAYER
10
150.0
20
0.0
30
57.7658737872722
 70
     32
  0
SEQEND
  0
POLYLINE
 8
Layer0
 66
     1
70
    8
 10
0.0
 20
 0.0
 30
0.0
  0
VERTEX
  8
MY3DLAYER
10
128.206403754085
20
0.0
30
-1.65355587611057e-018
 70
     32
  0
VERTEX
  8
MY3DLAYER
10
128.0
20
0.0
30
0.0
 70
     32
  0
VERTEX
  8
MY3DLAYER
10
128.0
20
0.0
30
-0.547091589342939
 70
     32
  0
VERTEX
  8
MY3DLAYER
10
128.206403754085
20
0.0
30
-1.65355587611057e-018
 70
     32
  0
SEQEND
  0
POLYLINE
 8
Layer0
 66
     1
70
    8
 10
0.0
 20
 0.0
 30
0.0
  0
VERTEX
  8
MY3DLAYER
10
171.793596245915
20
0.0
30
-7.03338064760864e-016
 70
     32
  0
VERTEX
  8
MY3DLAYER
10
172.0
20
0.0
30
-0.547091589342919
 70
     32
  0
VERTEX
  8
MY3DLAYER
10
172.0
20
0.0
30
-7.04991620636974e-016
 70
     32
  0
VERTEX
  8
MY3DLAYER
10
171.793596245915
20
0.0
30
-7.03338064760864e-016
 70
     32
  0
SEQEND
  0
LINE
 8
Layer0
10
150.0
20
136.999999999986
30
5.16893712577557e-031
11
150.0
21
136.999999999986
31
-3.0
  0
LINE
 8
Layer0
10
148.5
20
136.999999999992
30
-3.0
11
148.5
21
136.999999999992
31
0.0
  0
POLYLINE
 8
Layer0
 66
     1
70
    8
 10
0.0
 20
 0.0
 30
0.0
  0
VERTEX
  8
MY3DLAYER
10
150.0
20
136.999999999986
30
5.16893712577557e-031
 70
     32
  0
VERTEX
  8
MY3DLAYER
10
148.5
20
136.999999999992
30
0.0
 70
     32
  0
VERTEX
  8
MY3DLAYER
10
134.0
20
137.0
30
0.0
 70
     32
  0
VERTEX
  8
MY3DLAYER
10
135.0
20
113.8
30
3.52495810318487e-016
 70
     32
  0
VERTEX
  8
MY3DLAYER
10
150.0
20
113.8
30
9.02841017964475e-030
 70
     32
  0
VERTEX
  8
MY3DLAYER
10
150.0
20
136.999999999986
30
5.16893712577557e-031
 70
     32
  0
SEQEND
  0
POLYLINE
 8
Layer0
 66
     1
70
    8
 10
0.0
 20
 0.0
 30
0.0
  0
VERTEX
  8
MY3DLAYER
10
150.0
20
113.8
30
9.02841017964475e-030
 70
     32
  0
VERTEX
  8
MY3DLAYER
10
165.0
20
113.8
30
0.0
 70
     32
  0
VERTEX
  8
MY3DLAYER
10
166.000000000001
20
136.999999999946
30
0.0
 70
     32
  0
VERTEX
  8
MY3DLAYER
10
151.5
20
136.999999999979
30
0.0
 70
     32
  0
VERTEX
  8
MY3DLAYER
10
150.0
20
136.999999999986
30
5.16893712577557e-031
 70
     32
  0
VERTEX
  8
MY3DLAYER
10
150.0
20
113.8
30
9.02841017964475e-030
 70
     32
  0
SEQEND
  0
LINE
 8
Layer0
10
151.5
20
136.999999999979
30
-3.0
11
151.5
21
136.999999999979
31
0.0
  0
POLYLINE
 8
Layer0
 66
     1
70
    8
 10
0.0
 20
 0.0
 30
0.0
  0
VERTEX
  8
MY3DLAYER
10
184.0
20
137.0
30
0.0
 70
     32
  0
VERTEX
  8
MY3DLAYER
10
166.000000000001
20
136.999999999946
30
0.0
 70
     32
  0
VERTEX
  8
MY3DLAYER
10
165.0
20
113.8
30
0.0
 70
     32
  0
VERTEX
  8
MY3DLAYER
10
150.0
20
113.8
30
9.02841017964475e-030
 70
     32
  0
VERTEX
  8
MY3DLAYER
10
135.0
20
113.8
30
3.52495810318487e-016
 70
     32
  0
VERTEX
  8
MY3DLAYER
10
134.0
20
137.0
30
0.0
 70
     32
  0
VERTEX
  8
MY3DLAYER
10
134.0
20
87.0
30
0.0
 70
     32
  0
VERTEX
  8
MY3DLAYER
10
180.715328467153
20
87.0
30
0.0
 70
     32
  0
VERTEX
  8
MY3DLAYER
10
181.536496350365
20
99.5
30
0.0
 70
     32
  0
VERTEX
  8
MY3DLAYER
10
184.0
20
137.0
30
0.0
 70
     32
  0
SEQEND
  0
LINE
 8
Layer0
10
184.0
20
137.0
30
-3.0
11
184.0
21
137.0
31
0.0
  0
LINE
 8
Layer0
10
166.000000000001
20
136.999999999946
30
-3.0
11
166.000000000001
21
136.999999999946
31
0.0
  0
LINE
 8
Layer0
10
134.0
20
137.0
30
-3.0
11
134.0
21
137.0
31
0.0
  0
LINE
 8
Layer0
10
135.0
20
113.8
30
-3.0
11
135.0
21
113.8
31
3.52495810318487e-016
  0
LINE
 8
Layer0
10
150.0
20
113.8
30
-3.0
11
150.0
21
113.8
31
9.02841017964475e-030
  0
LINE
 8
Layer0
10
165.0
20
113.8
30
-3.0
11
165.0
21
113.8
31
0.0
  0
POLYLINE
 8
Layer0
 66
     1
70
    8
 10
0.0
 20
 0.0
 30
0.0
  0
VERTEX
  8
MY3DLAYER
10
150.0
20
65.0
30
-3.52495810318487e-016
 70
     32
  0
VERTEX
  8
MY3DLAYER
10
150.0
20
65.0
30
-0.547091589342945
 70
     32
  0
VERTEX
  8
MY3DLAYER
10
120.595995311035
20
67.0387380431316
30
-0.547091589342947
 70
     32
  0
VERTEX
  8
MY3DLAYER
10
120.595995311035
20
67.0387380431316
30
0.0
 70
     32
  0
VERTEX
  8
MY3DLAYER
10
150.0
20
65.0
30
-3.52495810318487e-016
 70
     32
  0
SEQEND
  0
POLYLINE
 8
Layer0
 66
     1
70
    8
 10
0.0
 20
 0.0
 30
0.0
  0
VERTEX
  8
MY3DLAYER
10
179.398826979472
20
66.9599217986315
30
0.0
 70
     32
  0
VERTEX
  8
MY3DLAYER
10
179.398826979472
20
66.9599217986315
30
-0.547091589342947
 70
     32
  0
VERTEX
  8
MY3DLAYER
10
150.0
20
65.0
30
-0.547091589342945
 70
     32
  0
VERTEX
  8
MY3DLAYER
10
150.0
20
65.0
30
-3.52495810318487e-016
 70
     32
  0
VERTEX
  8
MY3DLAYER
10
179.398826979472
20
66.9599217986315
30
0.0
 70
     32
  0
SEQEND
  0
LINE
 8
Layer0
10
134.0
20
87.0
30
0.0
11
134.0
21
87.0
31
-3.0
  0
POLYLINE
 8
Layer0
 66
     1
70
    8
 10
0.0
 20
 0.0
 30
0.0
  0
VERTEX
  8
MY3DLAYER
10
125.0
20
0.0
30
-2.99999999999999
 70
     32
  0
VERTEX
  8
MY3DLAYER
10
175.0
20
0.0
30
-2.99999999999999
 70
     32
  0
VERTEX
  8
MY3DLAYER
10
175.0
20
2.08153855330344e-016
30
-0.547091589342942
 70
     32
  0
VERTEX
  8
MY3DLAYER
10
172.0
20
0.0
30
-0.547091589342919
 70
     32
  0
VERTEX
  8
MY3DLAYER
10
128.0
20
0.0
30
-0.547091589342939
 70
     32
  0
VERTEX
  8
MY3DLAYER
10
125.0
20
2.08153855330344e-016
30
-0.547091589342942
 70
     32
  0
VERTEX
  8
MY3DLAYER
10
125.0
20
0.0
30
-2.99999999999999
 70
     32
  0
SEQEND
  0
POLYLINE
 8
Layer0
 66
     1
70
    8
 10
0.0
 20
 0.0
 30
0.0
  0
VERTEX
  8
MY3DLAYER
10
120.595995311035
20
67.0387380431316
30
-3.0
 70
     32
  0
VERTEX
  8
MY3DLAYER
10
125.0
20
0.0
30
-2.99999999999999
 70
     32
  0
VERTEX
  8
MY3DLAYER
10
125.0
20
2.08153855330344e-016
30
-0.547091589342942
 70
     32
  0
VERTEX
  8
MY3DLAYER
10
120.595995311035
20
67.0387380431316
30
-0.547091589342947
 70
     32
  0
VERTEX
  8
MY3DLAYER
10
120.595995311035
20
67.0387380431316
30
-3.0
 70
     32
  0
SEQEND
  0
POLYLINE
 8
Layer0
 66
     1
70
    8
 10
0.0
 20
 0.0
 30
0.0
  0
VERTEX
  8
MY3DLAYER
10
175.0
20
0.0
30
-2.99999999999999
 70
     32
  0
VERTEX
  8
MY3DLAYER
10
179.398826979472
20
66.9599217986315
30
-3.0
 70
     32
  0
VERTEX
  8
MY3DLAYER
10
179.398826979472
20
66.9599217986315
30
-0.547091589342947
 70
     32
  0
VERTEX
  8
MY3DLAYER
10
175.0
20
2.08153855330344e-016
30
-0.547091589342942
 70
     32
  0
VERTEX
  8
MY3DLAYER
10
175.0
20
0.0
30
-2.99999999999999
 70
     32
  0
SEQEND
  0
POLYLINE
 8
Servo
 66
     1
70
    8
 10
0.0
 20
 0.0
 30
0.0
  0
VERTEX
  8
MY3DLAYER
10
192.994492998249
20
152.435674396517
30
17.4999999999998
 70
     32
  0
VERTEX
  8
MY3DLAYER
10
192.994492998249
20
149.435674396517
30
17.4999999999998
 70
     32
  0
VERTEX
  8
MY3DLAYER
10
194.994492998249
20
149.435674396517
30
17.4999999999998
 70
     32
  0
VERTEX
  8
MY3DLAYER
10
194.994492998249
20
152.435674396517
30
17.4999999999998
 70
     32
  0
VERTEX
  8
MY3DLAYER
10
192.994492998249
20
152.435674396517
30
17.4999999999998
 70
     32
  0
SEQEND
  0
POLYLINE
 8
Servo
 66
     1
70
    8
 10
0.0
 20
 0.0
 30
0.0
  0
VERTEX
  8
MY3DLAYER
10
172.994492998249
20
135.935674396517
30
-1.12798659301916e-014
 70
     32
  0
VERTEX
  8
MY3DLAYER
10
172.994492998249
20
155.935674396517
30
-1.12798659301916e-014
 70
     32
  0
VERTEX
  8
MY3DLAYER
10
182.994492998249
20
155.935674396517
30
-9.02389274415327e-014
 70
     32
  0
VERTEX
  8
MY3DLAYER
10
182.994492998249
20
135.935674396517
30
-9.02389274415327e-014
 70
     32
  0
VERTEX
  8
MY3DLAYER
10
172.994492998249
20
135.935674396517
30
-1.12798659301916e-014
 70
     32
  0
SEQEND
  0
POLYLINE
 8
Servo
 66
     1
70
    8
 10
0.0
 20
 0.0
 30
0.0
  0
VERTEX
  8
MY3DLAYER
10
172.994492998249
20
135.935674396517
30
15.0
 70
     32
  0
VERTEX
  8
MY3DLAYER
10
172.994492998249
20
135.935674396517
30
-1.12798659301916e-014
 70
     32
  0
VERTEX
  8
MY3DLAYER
10
182.994492998249
20
135.935674396517
30
-9.02389274415327e-014
 70
     32
  0
VERTEX
  8
MY3DLAYER
10
182.994492998249
20
135.935674396517
30
14.9999999999999
 70
     32
  0
VERTEX
  8
MY3DLAYER
10
172.994492998249
20
135.935674396517
30
15.0
 70
     32
  0
SEQEND
  0
POLYLINE
 8
Servo
 66
     1
70
    8
 10
0.0
 20
 0.0
 30
0.0
  0
VERTEX
  8
MY3DLAYER
10
187.994492998249
20
147.400140490584
30
3.96446609406713
 70
     32
  0
VERTEX
  8
MY3DLAYER
10
187.994492998249
20
148.435674396517
30
3.16987298107767
 70
     32
  0
VERTEX
  8
MY3DLAYER
10
192.994492998249
20
148.435674396517
30
3.16987298107763
 70
     32
  0
VERTEX
  8
MY3DLAYER
10
192.994492998249
20
147.400140490584
30
3.96446609406709
 70
     32
  0
VERTEX
  8
MY3DLAYER
10
187.994492998249
20
147.400140490584
30
3.96446609406713
 70
     32
  0
SEQEND
  0
POLYLINE
 8
Servo
 66
     1
70
    8
 10
0.0
 20
 0.0
 30
0.0
  0
VERTEX
  8
MY3DLAYER
10
187.994492998249
20
148.435674396517
30
3.16987298107767
 70
     32
  0
VERTEX
  8
MY3DLAYER
10
187.994492998249
20
149.641579171004
30
2.67037086855455
 70
     32
  0
VERTEX
  8
MY3DLAYER
10
192.994492998249
20
149.641579171004
30
2.67037086855451
 70
     32
  0
VERTEX
  8
MY3DLAYER
10
192.994492998249
20
148.435674396517
30
3.16987298107763
 70
     32
  0
VERTEX
  8
MY3DLAYER
10
187.994492998249
20
148.435674396517
30
3.16987298107767
 70
     32
  0
SEQEND
  0
POLYLINE
 8
Servo
 66
     1
70
    8
 10
0.0
 20
 0.0
 30
0.0
  0
VERTEX
  8
MY3DLAYER
10
187.994492998249
20
154.47120830245
30
3.96446609406713
 70
     32
  0
VERTEX
  8
MY3DLAYER
10
187.994492998249
20
155.265801415439
30
4.99999999999986
 70
     32
  0
VERTEX
  8
MY3DLAYER
10
192.994492998249
20
155.265801415439
30
4.99999999999982
 70
     32
  0
VERTEX
  8
MY3DLAYER
10
192.994492998249
20
154.47120830245
30
3.96446609406709
 70
     32
  0
VERTEX
  8
MY3DLAYER
10
187.994492998249
20
154.47120830245
30
3.96446609406713
 70
     32
  0
SEQEND
  0
POLYLINE
 8
Servo
 66
     1
70
    8
 10
0.0
 20
 0.0
 30
0.0
  0
VERTEX
  8
MY3DLAYER
10
182.994492998249
20
135.935674396517
30
14.9999999999999
 70
     32
  0
VERTEX
  8
MY3DLAYER
10
182.994492998249
20
135.935674396517
30
-9.02389274415327e-014
 70
     32
  0
VERTEX
  8
MY3DLAYER
10
182.994492998249
20
155.935674396517
30
-9.02389274415327e-014
 70
     32
  0
VERTEX
  8
MY3DLAYER
10
182.994492998249
20
155.935674396517
30
14.9999999999999
 70
     32
  0
VERTEX
  8
MY3DLAYER
10
182.994492998249
20
135.935674396517
30
14.9999999999999
 70
     32
  0
SEQEND
  0
POLYLINE
 8
Servo
 66
     1
70
    8
 10
0.0
 20
 0.0
 30
0.0
  0
VERTEX
  8
MY3DLAYER
10
187.994492998249
20
149.641579171004
30
2.67037086855455
 70
     32
  0
VERTEX
  8
MY3DLAYER
10
187.994492998249
20
150.935674396517
30
2.49999999999989
 70
     32
  0
VERTEX
  8
MY3DLAYER
10
192.994492998249
20
150.935674396517
30
2.49999999999985
 70
     32
  0
VERTEX
  8
MY3DLAYER
10
192.994492998249
20
149.641579171004
30
2.67037086855451
 70
     32
  0
VERTEX
  8
MY3DLAYER
10
187.994492998249
20
149.641579171004
30
2.67037086855455
 70
     32
  0
SEQEND
  0
POLYLINE
 8
Servo
 66
     1
70
    8
 10
0.0
 20
 0.0
 30
0.0
  0
VERTEX
  8
MY3DLAYER
10
172.994492998249
20
155.935674396517
30
15.0
 70
     32
  0
VERTEX
  8
MY3DLAYER
10
172.994492998249
20
135.935674396517
30
15.0
 70
     32
  0
VERTEX
  8
MY3DLAYER
10
182.994492998249
20
135.935674396517
30
14.9999999999999
 70
     32
  0
VERTEX
  8
MY3DLAYER
10
182.994492998249
20
155.935674396517
30
14.9999999999999
 70
     32
  0
VERTEX
  8
MY3DLAYER
10
172.994492998249
20
155.935674396517
30
15.0
 70
     32
  0
SEQEND
  0
POLYLINE
 8
Servo
 66
     1
70
    8
 10
0.0
 20
 0.0
 30
0.0
  0
VERTEX
  8
MY3DLAYER
10
182.994492998249
20
155.935674396517
30
-9.02389274415327e-014
 70
     32
  0
VERTEX
  8
MY3DLAYER
10
182.994492998249
20
155.935674396517
30
14.9999999999999
 70
     32
  0
VERTEX
  8
MY3DLAYER
10
187.994492998249
20
155.935674396517
30
14.9999999999999
 70
     32
  0
VERTEX
  8
MY3DLAYER
10
187.994492998249
20
155.935674396517
30
7.49999999999988
 70
     32
  0
VERTEX
  8
MY3DLAYER
10
187.994492998249
20
155.935674396517
30
-1.29718458197203e-013
 70
     32
  0
VERTEX
  8
MY3DLAYER
10
182.994492998249
20
155.935674396517
30
-9.02389274415327e-014
 70
     32
  0
SEQEND
  0
POLYLINE
 8
Servo
 66
     1
70
    8
 10
0.0
 20
 0.0
 30
0.0
  0
VERTEX
  8
MY3DLAYER
10
182.994492998249
20
135.935674396517
30
-9.02389274415327e-014
 70
     32
  0
VERTEX
  8
MY3DLAYER
10
182.994492998249
20
155.935674396517
30
-9.02389274415327e-014
 70
     32
  0
VERTEX
  8
MY3DLAYER
10
187.994492998249
20
155.935674396517
30
-1.29718458197203e-013
 70
     32
  0
VERTEX
  8
MY3DLAYER
10
187.994492998249
20
135.935674396517
30
-1.29718458197203e-013
 70
     32
  0
VERTEX
  8
MY3DLAYER
10
182.994492998249
20
135.935674396517
30
-9.02389274415327e-014
 70
     32
  0
SEQEND
  0
POLYLINE
 8
Servo
 66
     1
70
    8
 10
0.0
 20
 0.0
 30
0.0
  0
VERTEX
  8
MY3DLAYER
10
194.994492998249
20
149.435674396517
30
7.49999999999982
 70
     32
  0
VERTEX
  8
MY3DLAYER
10
194.994492998249
20
152.435674396517
30
7.49999999999982
 70
     32
  0
VERTEX
  8
MY3DLAYER
10
194.994492998249
20
152.435674396517
30
17.4999999999998
 70
     32
  0
VERTEX
  8
MY3DLAYER
10
194.994492998249
20
149.435674396517
30
17.4999999999998
 70
     32
  0
VERTEX
  8
MY3DLAYER
10
194.994492998249
20
149.435674396517
30
7.49999999999982
 70
     32
  0
SEQEND
  0
POLYLINE
 8
Servo
 66
     1
70
    8
 10
0.0
 20
 0.0
 30
0.0
  0
VERTEX
  8
MY3DLAYER
10
172.994492998249
20
135.935674396517
30
-1.12798659301916e-014
 70
     32
  0
VERTEX
  8
MY3DLAYER
10
172.994492998249
20
135.935674396517
30
15.0
 70
     32
  0
VERTEX
  8
MY3DLAYER
10
172.994492998249
20
155.935674396517
30
15.0
 70
     32
  0
VERTEX
  8
MY3DLAYER
10
172.994492998249
20
155.935674396517
30
-1.12798659301916e-014
 70
     32
  0
VERTEX
  8
MY3DLAYER
10
172.994492998249
20
135.935674396517
30
-1.12798659301916e-014
 70
     32
  0
SEQEND
  0
POLYLINE
 8
Servo
 66
     1
70
    8
 10
0.0
 20
 0.0
 30
0.0
  0
VERTEX
  8
MY3DLAYER
10
182.994492998249
20
135.935674396517
30
14.9999999999999
 70
     32
  0
VERTEX
  8
MY3DLAYER
10
182.994492998249
20
135.935674396517
30
-9.02389274415327e-014
 70
     32
  0
VERTEX
  8
MY3DLAYER
10
187.994492998249
20
135.935674396517
30
-1.29718458197203e-013
 70
     32
  0
VERTEX
  8
MY3DLAYER
10
187.994492998249
20
135.935674396517
30
14.9999999999999
 70
     32
  0
VERTEX
  8
MY3DLAYER
10
182.994492998249
20
135.935674396517
30
14.9999999999999
 70
     32
  0
SEQEND
  0
POLYLINE
 8
Servo
 66
     1
70
    8
 10
0.0
 20
 0.0
 30
0.0
  0
VERTEX
  8
MY3DLAYER
10
182.994492998249
20
155.935674396517
30
14.9999999999999
 70
     32
  0
VERTEX
  8
MY3DLAYER
10
182.994492998249
20
135.935674396517
30
14.9999999999999
 70
     32
  0
VERTEX
  8
MY3DLAYER
10
187.994492998249
20
135.935674396517
30
14.9999999999999
 70
     32
  0
VERTEX
  8
MY3DLAYER
10
187.994492998249
20
155.935674396517
30
14.9999999999999
 70
     32
  0
VERTEX
  8
MY3DLAYER
10
182.994492998249
20
155.935674396517
30
14.9999999999999
 70
     32
  0
SEQEND
  0
POLYLINE
 8
Servo
 66
     1
70
    8
 10
0.0
 20
 0.0
 30
0.0
  0
VERTEX
  8
MY3DLAYER
10
187.994492998249
20
155.765303527962
30
6.20590477448725
 70
     32
  0
VERTEX
  8
MY3DLAYER
10
187.994492998249
20
155.935674396517
30
7.49999999999988
 70
     32
  0
VERTEX
  8
MY3DLAYER
10
192.994492998249
20
155.935674396517
30
7.49999999999984
 70
     32
  0
VERTEX
  8
MY3DLAYER
10
192.994492998249
20
155.765303527962
30
6.20590477448721
 70
     32
  0
VERTEX
  8
MY3DLAYER
10
187.994492998249
20
155.765303527962
30
6.20590477448725
 70
     32
  0
SEQEND
  0
POLYLINE
 8
Servo
 66
     1
70
    8
 10
0.0
 20
 0.0
 30
0.0
  0
VERTEX
  8
MY3DLAYER
10
187.994492998249
20
135.935674396517
30
14.9999999999999
 70
     32
  0
VERTEX
  8
MY3DLAYER
10
187.994492998249
20
135.935674396517
30
-1.29718458197203e-013
 70
     32
  0
VERTEX
  8
MY3DLAYER
10
187.994492998249
20
155.935674396517
30
-1.29718458197203e-013
 70
     32
  0
VERTEX
  8
MY3DLAYER
10
187.994492998249
20
155.935674396517
30
7.49999999999988
 70
     32
  0
VERTEX
  8
MY3DLAYER
10
187.994492998249
20
155.935674396517
30
14.9999999999999
 70
     32
  0
VERTEX
  8
MY3DLAYER
10
187.994492998249
20
135.935674396517
30
14.9999999999999
 70
     32
  0
SEQEND
  0
POLYLINE
 8
Servo
 66
     1
70
    8
 10
0.0
 20
 0.0
 30
0.0
  0
VERTEX
  8
MY3DLAYER
10
172.994492998249
20
155.935674396517
30
-1.12798659301916e-014
 70
     32
  0
VERTEX
  8
MY3DLAYER
10
172.994492998249
20
155.935674396517
30
15.0
 70
     32
  0
VERTEX
  8
MY3DLAYER
10
182.994492998249
20
155.935674396517
30
14.9999999999999
 70
     32
  0
VERTEX
  8
MY3DLAYER
10
182.994492998249
20
155.935674396517
30
-9.02389274415327e-014
 70
     32
  0
VERTEX
  8
MY3DLAYER
10
172.994492998249
20
155.935674396517
30
-1.12798659301916e-014
 70
     32
  0
SEQEND
  0
POLYLINE
 8
Servo
 66
     1
70
    8
 10
0.0
 20
 0.0
 30
0.0
  0
VERTEX
  8
MY3DLAYER
10
187.994492998249
20
150.935674396517
30
2.49999999999989
 70
     32
  0
VERTEX
  8
MY3DLAYER
10
187.994492998249
20
152.22976962203
30
2.67037086855455
 70
     32
  0
VERTEX
  8
MY3DLAYER
10
192.994492998249
20
152.22976962203
30
2.67037086855451
 70
     32
  0
VERTEX
  8
MY3DLAYER
10
192.994492998249
20
150.935674396517
30
2.49999999999985
 70
     32
  0
VERTEX
  8
MY3DLAYER
10
187.994492998249
20
150.935674396517
30
2.49999999999989
 70
     32
  0
SEQEND
  0
POLYLINE
 8
Servo
 66
     1
70
    8
 10
0.0
 20
 0.0
 30
0.0
  0
VERTEX
  8
MY3DLAYER
10
192.994492998249
20
152.435674396517
30
17.4999999999998
 70
     32
  0
VERTEX
  8
MY3DLAYER
10
192.994492998249
20
152.435674396517
30
12.2443405812951
 70
     32
  0
VERTEX
  8
MY3DLAYER
10
192.994492998249
20
152.22976962203
30
12.3296291314452
 70
     32
  0
VERTEX
  8
MY3DLAYER
10
192.994492998249
20
150.935674396517
30
12.4999999999998
 70
     32
  0
VERTEX
  8
MY3DLAYER
10
192.994492998249
20
149.641579171004
30
12.3296291314452
 70
     32
  0
VERTEX
  8
MY3DLAYER
10
192.994492998249
20
149.435674396517
30
12.2443405812951
 70
     32
  0
VERTEX
  8
MY3DLAYER
10
192.994492998249
20
149.435674396517
30
17.4999999999998
 70
     32
  0
VERTEX
  8
MY3DLAYER
10
192.994492998249
20
152.435674396517
30
17.4999999999998
 70
     32
  0
SEQEND
  0
POLYLINE
 8
Servo
 66
     1
70
    8
 10
0.0
 20
 0.0
 30
0.0
  0
VERTEX
  8
MY3DLAYER
10
187.994492998249
20
146.605547377595
30
4.99999999999986
 70
     32
  0
VERTEX
  8
MY3DLAYER
10
187.994492998249
20
147.400140490584
30
3.96446609406713
 70
     32
  0
VERTEX
  8
MY3DLAYER
10
192.994492998249
20
147.400140490584
30
3.96446609406709
 70
     32
  0
VERTEX
  8
MY3DLAYER
10
192.994492998249
20
146.605547377595
30
4.99999999999982
 70
     32
  0
VERTEX
  8
MY3DLAYER
10
187.994492998249
20
146.605547377595
30
4.99999999999986
 70
     32
  0
SEQEND
  0
POLYLINE
 8
Servo
 66
     1
70
    8
 10
0.0
 20
 0.0
 30
0.0
  0
VERTEX
  8
MY3DLAYER
10
192.994492998249
20
149.435674396517
30
7.49999999999984
 70
     32
  0
VERTEX
  8
MY3DLAYER
10
192.994492998249
20
152.435674396517
30
7.49999999999984
 70
     32
  0
VERTEX
  8
MY3DLAYER
10
194.994492998249
20
152.435674396517
30
7.49999999999982
 70
     32
  0
VERTEX
  8
MY3DLAYER
10
194.994492998249
20
149.435674396517
30
7.49999999999982
 70
     32
  0
VERTEX
  8
MY3DLAYER
10
192.994492998249
20
149.435674396517
30
7.49999999999984
 70
     32
  0
SEQEND
  0
POLYLINE
 8
Servo
 66
     1
70
    8
 10
0.0
 20
 0.0
 30
0.0
  0
VERTEX
  8
MY3DLAYER
10
192.994492998249
20
152.435674396517
30
7.49999999999984
 70
     32
  0
VERTEX
  8
MY3DLAYER
10
192.994492998249
20
152.435674396517
30
12.2443405812951
 70
     32
  0
VERTEX
  8
MY3DLAYER
10
192.994492998249
20
152.435674396517
30
17.4999999999998
 70
     32
  0
VERTEX
  8
MY3DLAYER
10
194.994492998249
20
152.435674396517
30
17.4999999999998
 70
     32
  0
VERTEX
  8
MY3DLAYER
10
194.994492998249
20
152.435674396517
30
7.49999999999982
 70
     32
  0
VERTEX
  8
MY3DLAYER
10
192.994492998249
20
152.435674396517
30
7.49999999999984
 70
     32
  0
SEQEND
  0
POLYLINE
 8
Servo
 66
     1
70
    8
 10
0.0
 20
 0.0
 30
0.0
  0
VERTEX
  8
MY3DLAYER
10
187.994492998249
20
155.935674396517
30
7.49999999999988
 70
     32
  0
VERTEX
  8
MY3DLAYER
10
187.994492998249
20
155.765303527962
30
6.20590477448725
 70
     32
  0
VERTEX
  8
MY3DLAYER
10
187.994492998249
20
155.265801415439
30
4.99999999999986
 70
     32
  0
VERTEX
  8
MY3DLAYER
10
187.994492998249
20
154.47120830245
30
3.96446609406713
 70
     32
  0
VERTEX
  8
MY3DLAYER
10
187.994492998249
20
153.435674396517
30
3.16987298107767
 70
     32
  0
VERTEX
  8
MY3DLAYER
10
187.994492998249
20
152.22976962203
30
2.67037086855455
 70
     32
  0
VERTEX
  8
MY3DLAYER
10
187.994492998249
20
150.935674396517
30
2.49999999999989
 70
     32
  0
VERTEX
  8
MY3DLAYER
10
187.994492998249
20
149.641579171004
30
2.67037086855455
 70
     32
  0
VERTEX
  8
MY3DLAYER
10
187.994492998249
20
148.435674396517
30
3.16987298107767
 70
     32
  0
VERTEX
  8
MY3DLAYER
10
187.994492998249
20
147.400140490584
30
3.96446609406713
 70
     32
  0
VERTEX
  8
MY3DLAYER
10
187.994492998249
20
146.605547377595
30
4.99999999999986
 70
     32
  0
VERTEX
  8
MY3DLAYER
10
187.994492998249
20
146.106045265072
30
6.20590477448725
 70
     32
  0
VERTEX
  8
MY3DLAYER
10
187.994492998249
20
145.935674396517
30
7.49999999999988
 70
     32
  0
VERTEX
  8
MY3DLAYER
10
187.994492998249
20
146.106045265072
30
8.79409522551246
 70
     32
  0
VERTEX
  8
MY3DLAYER
10
187.994492998249
20
146.605547377595
30
9.9999999999999
 70
     32
  0
VERTEX
  8
MY3DLAYER
10
187.994492998249
20
147.400140490584
30
11.0355339059326
 70
     32
  0
VERTEX
  8
MY3DLAYER
10
187.994492998249
20
148.435674396517
30
11.8301270189221
 70
     32
  0
VERTEX
  8
MY3DLAYER
10
187.994492998249
20
149.641579171004
30
12.3296291314452
 70
     32
  0
VERTEX
  8
MY3DLAYER
10
187.994492998249
20
150.935674396517
30
12.4999999999999
 70
     32
  0
VERTEX
  8
MY3DLAYER
10
187.994492998249
20
152.22976962203
30
12.3296291314452
 70
     32
  0
VERTEX
  8
MY3DLAYER
10
187.994492998249
20
153.435674396517
30
11.8301270189221
 70
     32
  0
VERTEX
  8
MY3DLAYER
10
187.994492998249
20
154.47120830245
30
11.0355339059326
 70
     32
  0
VERTEX
  8
MY3DLAYER
10
187.994492998249
20
155.265801415439
30
9.9999999999999
 70
     32
  0
VERTEX
  8
MY3DLAYER
10
187.994492998249
20
155.765303527962
30
8.7940952255125
 70
     32
  0
VERTEX
  8
MY3DLAYER
10
187.994492998249
20
155.935674396517
30
7.49999999999988
 70
     32
  0
SEQEND
  0
POLYLINE
 8
Servo
 66
     1
70
    8
 10
0.0
 20
 0.0
 30
0.0
  0
VERTEX
  8
MY3DLAYER
10
187.994492998249
20
146.605547377595
30
9.9999999999999
 70
     32
  0
VERTEX
  8
MY3DLAYER
10
187.994492998249
20
146.106045265072
30
8.79409522551246
 70
     32
  0
VERTEX
  8
MY3DLAYER
10
192.994492998249
20
146.106045265072
30
8.79409522551242
 70
     32
  0
VERTEX
  8
MY3DLAYER
10
192.994492998249
20
146.605547377595
30
9.99999999999986
 70
     32
  0
VERTEX
  8
MY3DLAYER
10
187.994492998249
20
146.605547377595
30
9.9999999999999
 70
     32
  0
SEQEND
  0
POLYLINE
 8
Servo
 66
     1
70
    8
 10
0.0
 20
 0.0
 30
0.0
  0
VERTEX
  8
MY3DLAYER
10
187.994492998249
20
148.435674396517
30
11.8301270189221
 70
     32
  0
VERTEX
  8
MY3DLAYER
10
187.994492998249
20
147.400140490584
30
11.0355339059326
 70
     32
  0
VERTEX
  8
MY3DLAYER
10
192.994492998249
20
147.400140490584
30
11.0355339059326
 70
     32
  0
VERTEX
  8
MY3DLAYER
10
192.994492998249
20
148.435674396517
30
11.8301270189221
 70
     32
  0
VERTEX
  8
MY3DLAYER
10
187.994492998249
20
148.435674396517
30
11.8301270189221
 70
     32
  0
SEQEND
  0
POLYLINE
 8
Servo
 66
     1
70
    8
 10
0.0
 20
 0.0
 30
0.0
  0
VERTEX
  8
MY3DLAYER
10
187.994492998249
20
149.641579171004
30
12.3296291314452
 70
     32
  0
VERTEX
  8
MY3DLAYER
10
187.994492998249
20
148.435674396517
30
11.8301270189221
 70
     32
  0
VERTEX
  8
MY3DLAYER
10
192.994492998249
20
148.435674396517
30
11.8301270189221
 70
     32
  0
VERTEX
  8
MY3DLAYER
10
192.994492998249
20
149.435674396517
30
12.2443405812951
 70
     32
  0
VERTEX
  8
MY3DLAYER
10
192.994492998249
20
149.641579171004
30
12.3296291314452
 70
     32
  0
VERTEX
  8
MY3DLAYER
10
187.994492998249
20
149.641579171004
30
12.3296291314452
 70
     32
  0
SEQEND
  0
POLYLINE
 8
Servo
 66
     1
70
    8
 10
0.0
 20
 0.0
 30
0.0
  0
VERTEX
  8
MY3DLAYER
10
187.994492998249
20
146.106045265072
30
8.79409522551246
 70
     32
  0
VERTEX
  8
MY3DLAYER
10
187.994492998249
20
145.935674396517
30
7.49999999999988
 70
     32
  0
VERTEX
  8
MY3DLAYER
10
192.994492998249
20
145.935674396517
30
7.49999999999984
 70
     32
  0
VERTEX
  8
MY3DLAYER
10
192.994492998249
20
146.106045265072
30
8.79409522551242
 70
     32
  0
VERTEX
  8
MY3DLAYER
10
187.994492998249
20
146.106045265072
30
8.79409522551246
 70
     32
  0
SEQEND
  0
POLYLINE
 8
Servo
 66
     1
70
    8
 10
0.0
 20
 0.0
 30
0.0
  0
VERTEX
  8
MY3DLAYER
10
187.994492998249
20
154.47120830245
30
11.0355339059326
 70
     32
  0
VERTEX
  8
MY3DLAYER
10
187.994492998249
20
153.435674396517
30
11.8301270189221
 70
     32
  0
VERTEX
  8
MY3DLAYER
10
192.994492998249
20
153.435674396517
30
11.8301270189221
 70
     32
  0
VERTEX
  8
MY3DLAYER
10
192.994492998249
20
154.47120830245
30
11.0355339059326
 70
     32
  0
VERTEX
  8
MY3DLAYER
10
187.994492998249
20
154.47120830245
30
11.0355339059326
 70
     32
  0
SEQEND
  0
POLYLINE
 8
Servo
 66
     1
70
    8
 10
0.0
 20
 0.0
 30
0.0
  0
VERTEX
  8
MY3DLAYER
10
187.994492998249
20
153.435674396517
30
11.8301270189221
 70
     32
  0
VERTEX
  8
MY3DLAYER
10
187.994492998249
20
152.22976962203
30
12.3296291314452
 70
     32
  0
VERTEX
  8
MY3DLAYER
10
192.994492998249
20
152.22976962203
30
12.3296291314452
 70
     32
  0
VERTEX
  8
MY3DLAYER
10
192.994492998249
20
152.435674396517
30
12.2443405812951
 70
     32
  0
VERTEX
  8
MY3DLAYER
10
192.994492998249
20
153.435674396517
30
11.8301270189221
 70
     32
  0
VERTEX
  8
MY3DLAYER
10
187.994492998249
20
153.435674396517
30
11.8301270189221
 70
     32
  0
SEQEND
  0
POLYLINE
 8
Servo
 66
     1
70
    8
 10
0.0
 20
 0.0
 30
0.0
  0
VERTEX
  8
MY3DLAYER
10
187.994492998249
20
146.106045265072
30
6.20590477448725
 70
     32
  0
VERTEX
  8
MY3DLAYER
10
187.994492998249
20
146.605547377595
30
4.99999999999986
 70
     32
  0
VERTEX
  8
MY3DLAYER
10
192.994492998249
20
146.605547377595
30
4.99999999999982
 70
     32
  0
VERTEX
  8
MY3DLAYER
10
192.994492998249
20
146.106045265072
30
6.20590477448721
 70
     32
  0
VERTEX
  8
MY3DLAYER
10
187.994492998249
20
146.106045265072
30
6.20590477448725
 70
     32
  0
SEQEND
  0
POLYLINE
 8
Servo
 66
     1
70
    8
 10
0.0
 20
 0.0
 30
0.0
  0
VERTEX
  8
MY3DLAYER
10
187.994492998249
20
145.935674396517
30
7.49999999999988
 70
     32
  0
VERTEX
  8
MY3DLAYER
10
187.994492998249
20
146.106045265072
30
6.20590477448725
 70
     32
  0
VERTEX
  8
MY3DLAYER
10
192.994492998249
20
146.106045265072
30
6.20590477448721
 70
     32
  0
VERTEX
  8
MY3DLAYER
10
192.994492998249
20
145.935674396517
30
7.49999999999984
 70
     32
  0
VERTEX
  8
MY3DLAYER
10
187.994492998249
20
145.935674396517
30
7.49999999999988
 70
     32
  0
SEQEND
  0
POLYLINE
 8
Servo
 66
     1
70
    8
 10
0.0
 20
 0.0
 30
0.0
  0
VERTEX
  8
MY3DLAYER
10
187.994492998249
20
155.265801415439
30
4.99999999999986
 70
     32
  0
VERTEX
  8
MY3DLAYER
10
187.994492998249
20
155.765303527962
30
6.20590477448725
 70
     32
  0
VERTEX
  8
MY3DLAYER
10
192.994492998249
20
155.765303527962
30
6.20590477448721
 70
     32
  0
VERTEX
  8
MY3DLAYER
10
192.994492998249
20
155.265801415439
30
4.99999999999982
 70
     32
  0
VERTEX
  8
MY3DLAYER
10
187.994492998249
20
155.265801415439
30
4.99999999999986
 70
     32
  0
SEQEND
  0
POLYLINE
 8
Servo
 66
     1
70
    8
 10
0.0
 20
 0.0
 30
0.0
  0
VERTEX
  8
MY3DLAYER
10
187.994492998249
20
150.935674396517
30
12.4999999999999
 70
     32
  0
VERTEX
  8
MY3DLAYER
10
187.994492998249
20
149.641579171004
30
12.3296291314452
 70
     32
  0
VERTEX
  8
MY3DLAYER
10
192.994492998249
20
149.641579171004
30
12.3296291314452
 70
     32
  0
VERTEX
  8
MY3DLAYER
10
192.994492998249
20
150.935674396517
30
12.4999999999998
 70
     32
  0
VERTEX
  8
MY3DLAYER
10
187.994492998249
20
150.935674396517
30
12.4999999999999
 70
     32
  0
SEQEND
  0
POLYLINE
 8
Servo
 66
     1
70
    8
 10
0.0
 20
 0.0
 30
0.0
  0
VERTEX
  8
MY3DLAYER
10
187.994492998249
20
152.22976962203
30
12.3296291314452
 70
     32
  0
VERTEX
  8
MY3DLAYER
10
187.994492998249
20
150.935674396517
30
12.4999999999999
 70
     32
  0
VERTEX
  8
MY3DLAYER
10
192.994492998249
20
150.935674396517
30
12.4999999999998
 70
     32
  0
VERTEX
  8
MY3DLAYER
10
192.994492998249
20
152.22976962203
30
12.3296291314452
 70
     32
  0
VERTEX
  8
MY3DLAYER
10
187.994492998249
20
152.22976962203
30
12.3296291314452
 70
     32
  0
SEQEND
  0
POLYLINE
 8
Servo
 66
     1
70
    8
 10
0.0
 20
 0.0
 30
0.0
  0
VERTEX
  8
MY3DLAYER
10
187.994492998249
20
152.22976962203
30
2.67037086855455
 70
     32
  0
VERTEX
  8
MY3DLAYER
10
187.994492998249
20
153.435674396517
30
3.16987298107767
 70
     32
  0
VERTEX
  8
MY3DLAYER
10
192.994492998249
20
153.435674396517
30
3.16987298107763
 70
     32
  0
VERTEX
  8
MY3DLAYER
10
192.994492998249
20
152.22976962203
30
2.67037086855451
 70
     32
  0
VERTEX
  8
MY3DLAYER
10
187.994492998249
20
152.22976962203
30
2.67037086855455
 70
     32
  0
SEQEND
  0
POLYLINE
 8
Servo
 66
     1
70
    8
 10
0.0
 20
 0.0
 30
0.0
  0
VERTEX
  8
MY3DLAYER
10
187.994492998249
20
147.400140490584
30
11.0355339059326
 70
     32
  0
VERTEX
  8
MY3DLAYER
10
187.994492998249
20
146.605547377595
30
9.9999999999999
 70
     32
  0
VERTEX
  8
MY3DLAYER
10
192.994492998249
20
146.605547377595
30
9.99999999999986
 70
     32
  0
VERTEX
  8
MY3DLAYER
10
192.994492998249
20
147.400140490584
30
11.0355339059326
 70
     32
  0
VERTEX
  8
MY3DLAYER
10
187.994492998249
20
147.400140490584
30
11.0355339059326
 70
     32
  0
SEQEND
  0
POLYLINE
 8
Servo
 66
     1
70
    8
 10
0.0
 20
 0.0
 30
0.0
  0
VERTEX
  8
MY3DLAYER
10
187.994492998249
20
155.265801415439
30
9.9999999999999
 70
     32
  0
VERTEX
  8
MY3DLAYER
10
187.994492998249
20
154.47120830245
30
11.0355339059326
 70
     32
  0
VERTEX
  8
MY3DLAYER
10
192.994492998249
20
154.47120830245
30
11.0355339059326
 70
     32
  0
VERTEX
  8
MY3DLAYER
10
192.994492998249
20
155.265801415439
30
9.99999999999986
 70
     32
  0
VERTEX
  8
MY3DLAYER
10
187.994492998249
20
155.265801415439
30
9.9999999999999
 70
     32
  0
SEQEND
  0
POLYLINE
 8
Servo
 66
     1
70
    8
 10
0.0
 20
 0.0
 30
0.0
  0
VERTEX
  8
MY3DLAYER
10
187.994492998249
20
155.765303527962
30
8.7940952255125
 70
     32
  0
VERTEX
  8
MY3DLAYER
10
187.994492998249
20
155.265801415439
30
9.9999999999999
 70
     32
  0
VERTEX
  8
MY3DLAYER
10
192.994492998249
20
155.265801415439
30
9.99999999999986
 70
     32
  0
VERTEX
  8
MY3DLAYER
10
192.994492998249
20
155.765303527962
30
8.79409522551246
 70
     32
  0
VERTEX
  8
MY3DLAYER
10
187.994492998249
20
155.765303527962
30
8.7940952255125
 70
     32
  0
SEQEND
  0
POLYLINE
 8
Servo
 66
     1
70
    8
 10
0.0
 20
 0.0
 30
0.0
  0
VERTEX
  8
MY3DLAYER
10
187.994492998249
20
155.935674396517
30
7.49999999999988
 70
     32
  0
VERTEX
  8
MY3DLAYER
10
187.994492998249
20
155.765303527962
30
8.7940952255125
 70
     32
  0
VERTEX
  8
MY3DLAYER
10
192.994492998249
20
155.765303527962
30
8.79409522551246
 70
     32
  0
VERTEX
  8
MY3DLAYER
10
192.994492998249
20
155.935674396517
30
7.49999999999984
 70
     32
  0
VERTEX
  8
MY3DLAYER
10
187.994492998249
20
155.935674396517
30
7.49999999999988
 70
     32
  0
SEQEND
  0
POLYLINE
 8
Servo
 66
     1
70
    8
 10
0.0
 20
 0.0
 30
0.0
  0
VERTEX
  8
MY3DLAYER
10
187.994492998249
20
153.435674396517
30
3.16987298107767
 70
     32
  0
VERTEX
  8
MY3DLAYER
10
187.994492998249
20
154.47120830245
30
3.96446609406713
 70
     32
  0
VERTEX
  8
MY3DLAYER
10
192.994492998249
20
154.47120830245
30
3.96446609406709
 70
     32
  0
VERTEX
  8
MY3DLAYER
10
192.994492998249
20
153.435674396517
30
3.16987298107763
 70
     32
  0
VERTEX
  8
MY3DLAYER
10
187.994492998249
20
153.435674396517
30
3.16987298107767
 70
     32
  0
SEQEND
  0
POLYLINE
 8
Servo
 66
     1
70
    8
 10
0.0
 20
 0.0
 30
0.0
  0
VERTEX
  8
MY3DLAYER
10
192.994492998249
20
153.435674396517
30
11.8301270189221
 70
     32
  0
VERTEX
  8
MY3DLAYER
10
192.994492998249
20
152.435674396517
30
12.2443405812951
 70
     32
  0
VERTEX
  8
MY3DLAYER
10
192.994492998249
20
152.435674396517
30
7.49999999999984
 70
     32
  0
VERTEX
  8
MY3DLAYER
10
192.994492998249
20
149.435674396517
30
7.49999999999984
 70
     32
  0
VERTEX
  8
MY3DLAYER
10
192.994492998249
20
149.435674396517
30
12.2443405812951
 70
     32
  0
VERTEX
  8
MY3DLAYER
10
192.994492998249
20
148.435674396517
30
11.8301270189221
 70
     32
  0
VERTEX
  8
MY3DLAYER
10
192.994492998249
20
147.400140490584
30
11.0355339059326
 70
     32
  0
VERTEX
  8
MY3DLAYER
10
192.994492998249
20
146.605547377595
30
9.99999999999986
 70
     32
  0
VERTEX
  8
MY3DLAYER
10
192.994492998249
20
146.106045265072
30
8.79409522551242
 70
     32
  0
VERTEX
  8
MY3DLAYER
10
192.994492998249
20
145.935674396517
30
7.49999999999984
 70
     32
  0
VERTEX
  8
MY3DLAYER
10
192.994492998249
20
146.106045265072
30
6.20590477448721
 70
     32
  0
VERTEX
  8
MY3DLAYER
10
192.994492998249
20
146.605547377595
30
4.99999999999982
 70
     32
  0
VERTEX
  8
MY3DLAYER
10
192.994492998249
20
147.400140490584
30
3.96446609406709
 70
     32
  0
VERTEX
  8
MY3DLAYER
10
192.994492998249
20
148.435674396517
30
3.16987298107763
 70
     32
  0
VERTEX
  8
MY3DLAYER
10
192.994492998249
20
149.641579171004
30
2.67037086855451
 70
     32
  0
VERTEX
  8
MY3DLAYER
10
192.994492998249
20
150.935674396517
30
2.49999999999985
 70
     32
  0
VERTEX
  8
MY3DLAYER
10
192.994492998249
20
152.22976962203
30
2.67037086855451
 70
     32
  0
VERTEX
  8
MY3DLAYER
10
192.994492998249
20
153.435674396517
30
3.16987298107763
 70
     32
  0
VERTEX
  8
MY3DLAYER
10
192.994492998249
20
154.47120830245
30
3.96446609406709
 70
     32
  0
VERTEX
  8
MY3DLAYER
10
192.994492998249
20
155.265801415439
30
4.99999999999982
 70
     32
  0
VERTEX
  8
MY3DLAYER
10
192.994492998249
20
155.765303527962
30
6.20590477448721
 70
     32
  0
VERTEX
  8
MY3DLAYER
10
192.994492998249
20
155.935674396517
30
7.49999999999984
 70
     32
  0
VERTEX
  8
MY3DLAYER
10
192.994492998249
20
155.765303527962
30
8.79409522551246
 70
     32
  0
VERTEX
  8
MY3DLAYER
10
192.994492998249
20
155.265801415439
30
9.99999999999986
 70
     32
  0
VERTEX
  8
MY3DLAYER
10
192.994492998249
20
154.47120830245
30
11.0355339059326
 70
     32
  0
VERTEX
  8
MY3DLAYER
10
192.994492998249
20
153.435674396517
30
11.8301270189221
 70
     32
  0
SEQEND
  0
POLYLINE
 8
Servo
 66
     1
70
    8
 10
0.0
 20
 0.0
 30
0.0
  0
VERTEX
  8
MY3DLAYER
10
192.994492998249
20
149.435674396517
30
7.49999999999984
 70
     32
  0
VERTEX
  8
MY3DLAYER
10
194.994492998249
20
149.435674396517
30
7.49999999999982
 70
     32
  0
VERTEX
  8
MY3DLAYER
10
194.994492998249
20
149.435674396517
30
17.4999999999998
 70
     32
  0
VERTEX
  8
MY3DLAYER
10
192.994492998249
20
149.435674396517
30
17.4999999999998
 70
     32
  0
VERTEX
  8
MY3DLAYER
10
192.994492998249
20
149.435674396517
30
12.2443405812951
 70
     32
  0
VERTEX
  8
MY3DLAYER
10
192.994492998249
20
149.435674396517
30
7.49999999999984
 70
     32
  0
SEQEND
  0
POLYLINE
 8
Servo
 66
     1
70
    8
 10
0.0
 20
 0.0
 30
0.0
  0
VERTEX
  8
MY3DLAYER
10
107.295977715351
20
152.435674396517
30
17.5
 70
     32
  0
VERTEX
  8
MY3DLAYER
10
107.295977715351
20
149.435674396517
30
17.5
 70
     32
  0
VERTEX
  8
MY3DLAYER
10
105.295977715351
20
149.435674396517
30
17.5
 70
     32
  0
VERTEX
  8
MY3DLAYER
10
105.295977715351
20
152.435674396517
30
17.5
 70
     32
  0
VERTEX
  8
MY3DLAYER
10
107.295977715351
20
152.435674396517
30
17.5
 70
     32
  0
SEQEND
  0
POLYLINE
 8
Servo
 66
     1
70
    8
 10
0.0
 20
 0.0
 30
0.0
  0
VERTEX
  8
MY3DLAYER
10
127.295977715351
20
135.935674396517
30
-5.63993296509579e-015
 70
     32
  0
VERTEX
  8
MY3DLAYER
10
127.295977715351
20
155.935674396517
30
-5.63993296509579e-015
 70
     32
  0
VERTEX
  8
MY3DLAYER
10
117.295977715351
20
155.935674396517
30
-2.8199664825479e-015
 70
     32
  0
VERTEX
  8
MY3DLAYER
10
117.295977715351
20
135.935674396517
30
-2.8199664825479e-015
 70
     32
  0
VERTEX
  8
MY3DLAYER
10
127.295977715351
20
135.935674396517
30
-5.63993296509579e-015
 70
     32
  0
SEQEND
  0
POLYLINE
 8
Servo
 66
     1
70
    8
 10
0.0
 20
 0.0
 30
0.0
  0
VERTEX
  8
MY3DLAYER
10
127.295977715351
20
135.935674396517
30
15.0
 70
     32
  0
VERTEX
  8
MY3DLAYER
10
127.295977715351
20
135.935674396517
30
-5.63993296509579e-015
 70
     32
  0
VERTEX
  8
MY3DLAYER
10
117.295977715351
20
135.935674396517
30
-2.8199664825479e-015
 70
     32
  0
VERTEX
  8
MY3DLAYER
10
117.295977715351
20
135.935674396517
30
15.0
 70
     32
  0
VERTEX
  8
MY3DLAYER
10
127.295977715351
20
135.935674396517
30
15.0
 70
     32
  0
SEQEND
  0
POLYLINE
 8
Servo
 66
     1
70
    8
 10
0.0
 20
 0.0
 30
0.0
  0
VERTEX
  8
MY3DLAYER
10
112.295977715351
20
147.400140490584
30
3.96446609406726
 70
     32
  0
VERTEX
  8
MY3DLAYER
10
112.295977715351
20
148.435674396517
30
3.1698729810778
 70
     32
  0
VERTEX
  8
MY3DLAYER
10
107.295977715351
20
148.435674396517
30
3.1698729810778
 70
     32
  0
VERTEX
  8
MY3DLAYER
10
107.295977715351
20
147.400140490584
30
3.96446609406727
 70
     32
  0
VERTEX
  8
MY3DLAYER
10
112.295977715351
20
147.400140490584
30
3.96446609406726
 70
     32
  0
SEQEND
  0
POLYLINE
 8
Servo
 66
     1
70
    8
 10
0.0
 20
 0.0
 30
0.0
  0
VERTEX
  8
MY3DLAYER
10
112.295977715351
20
148.435674396517
30
3.1698729810778
 70
     32
  0
VERTEX
  8
MY3DLAYER
10
112.295977715351
20
149.641579171004
30
2.67037086855468
 70
     32
  0
VERTEX
  8
MY3DLAYER
10
107.295977715351
20
149.641579171004
30
2.67037086855469
 70
     32
  0
VERTEX
  8
MY3DLAYER
10
107.295977715351
20
148.435674396517
30
3.1698729810778
 70
     32
  0
VERTEX
  8
MY3DLAYER
10
112.295977715351
20
148.435674396517
30
3.1698729810778
 70
     32
  0
SEQEND
  0
POLYLINE
 8
Servo
 66
     1
70
    8
 10
0.0
 20
 0.0
 30
0.0
  0
VERTEX
  8
MY3DLAYER
10
112.295977715351
20
154.47120830245
30
3.96446609406726
 70
     32
  0
VERTEX
  8
MY3DLAYER
10
112.295977715351
20
155.265801415439
30
4.99999999999999
 70
     32
  0
VERTEX
  8
MY3DLAYER
10
107.295977715351
20
155.265801415439
30
4.99999999999999
 70
     32
  0
VERTEX
  8
MY3DLAYER
10
107.295977715351
20
154.47120830245
30
3.96446609406727
 70
     32
  0
VERTEX
  8
MY3DLAYER
10
112.295977715351
20
154.47120830245
30
3.96446609406726
 70
     32
  0
SEQEND
  0
POLYLINE
 8
Servo
 66
     1
70
    8
 10
0.0
 20
 0.0
 30
0.0
  0
VERTEX
  8
MY3DLAYER
10
117.295977715351
20
135.935674396517
30
15.0
 70
     32
  0
VERTEX
  8
MY3DLAYER
10
117.295977715351
20
135.935674396517
30
-2.8199664825479e-015
 70
     32
  0
VERTEX
  8
MY3DLAYER
10
117.295977715351
20
155.935674396517
30
-2.8199664825479e-015
 70
     32
  0
VERTEX
  8
MY3DLAYER
10
117.295977715351
20
155.935674396517
30
15.0
 70
     32
  0
VERTEX
  8
MY3DLAYER
10
117.295977715351
20
135.935674396517
30
15.0
 70
     32
  0
SEQEND
  0
POLYLINE
 8
Servo
 66
     1
70
    8
 10
0.0
 20
 0.0
 30
0.0
  0
VERTEX
  8
MY3DLAYER
10
112.295977715351
20
149.641579171004
30
2.67037086855468
 70
     32
  0
VERTEX
  8
MY3DLAYER
10
112.295977715351
20
150.935674396517
30
2.50000000000002
 70
     32
  0
VERTEX
  8
MY3DLAYER
10
107.295977715351
20
150.935674396517
30
2.50000000000002
 70
     32
  0
VERTEX
  8
MY3DLAYER
10
107.295977715351
20
149.641579171004
30
2.67037086855469
 70
     32
  0
VERTEX
  8
MY3DLAYER
10
112.295977715351
20
149.641579171004
30
2.67037086855468
 70
     32
  0
SEQEND
  0
POLYLINE
 8
Servo
 66
     1
70
    8
 10
0.0
 20
 0.0
 30
0.0
  0
VERTEX
  8
MY3DLAYER
10
127.295977715351
20
155.935674396517
30
15.0
 70
     32
  0
VERTEX
  8
MY3DLAYER
10
127.295977715351
20
135.935674396517
30
15.0
 70
     32
  0
VERTEX
  8
MY3DLAYER
10
117.295977715351
20
135.935674396517
30
15.0
 70
     32
  0
VERTEX
  8
MY3DLAYER
10
117.295977715351
20
155.935674396517
30
15.0
 70
     32
  0
VERTEX
  8
MY3DLAYER
10
127.295977715351
20
155.935674396517
30
15.0
 70
     32
  0
SEQEND
  0
POLYLINE
 8
Servo
 66
     1
70
    8
 10
0.0
 20
 0.0
 30
0.0
  0
VERTEX
  8
MY3DLAYER
10
117.295977715351
20
155.935674396517
30
-2.8199664825479e-015
 70
     32
  0
VERTEX
  8
MY3DLAYER
10
117.295977715351
20
155.935674396517
30
15.0
 70
     32
  0
VERTEX
  8
MY3DLAYER
10
112.295977715351
20
155.935674396517
30
15.0
 70
     32
  0
VERTEX
  8
MY3DLAYER
10
112.295977715351
20
155.935674396517
30
7.50000000000001
 70
     32
  0
VERTEX
  8
MY3DLAYER
10
112.295977715351
20
155.935674396517
30
0.0
 70
     32
  0
VERTEX
  8
MY3DLAYER
10
117.295977715351
20
155.935674396517
30
-2.8199664825479e-015
 70
     32
  0
SEQEND
  0
POLYLINE
 8
Servo
 66
     1
70
    8
 10
0.0
 20
 0.0
 30
0.0
  0
VERTEX
  8
MY3DLAYER
10
117.295977715351
20
135.935674396517
30
-2.8199664825479e-015
 70
     32
  0
VERTEX
  8
MY3DLAYER
10
117.295977715351
20
155.935674396517
30
-2.8199664825479e-015
 70
     32
  0
VERTEX
  8
MY3DLAYER
10
112.295977715351
20
155.935674396517
30
0.0
 70
     32
  0
VERTEX
  8
MY3DLAYER
10
112.295977715351
20
135.935674396517
30
0.0
 70
     32
  0
VERTEX
  8
MY3DLAYER
10
117.295977715351
20
135.935674396517
30
-2.8199664825479e-015
 70
     32
  0
SEQEND
  0
POLYLINE
 8
Servo
 66
     1
70
    8
 10
0.0
 20
 0.0
 30
0.0
  0
VERTEX
  8
MY3DLAYER
10
105.295977715351
20
149.435674396517
30
7.50000000000001
 70
     32
  0
VERTEX
  8
MY3DLAYER
10
105.295977715351
20
152.435674396517
30
7.50000000000001
 70
     32
  0
VERTEX
  8
MY3DLAYER
10
105.295977715351
20
152.435674396517
30
17.5
 70
     32
  0
VERTEX
  8
MY3DLAYER
10
105.295977715351
20
149.435674396517
30
17.5
 70
     32
  0
VERTEX
  8
MY3DLAYER
10
105.295977715351
20
149.435674396517
30
7.50000000000001
 70
     32
  0
SEQEND
  0
POLYLINE
 8
Servo
 66
     1
70
    8
 10
0.0
 20
 0.0
 30
0.0
  0
VERTEX
  8
MY3DLAYER
10
127.295977715351
20
135.935674396517
30
-5.63993296509579e-015
 70
     32
  0
VERTEX
  8
MY3DLAYER
10
127.295977715351
20
135.935674396517
30
15.0
 70
     32
  0
VERTEX
  8
MY3DLAYER
10
127.295977715351
20
155.935674396517
30
15.0
 70
     32
  0
VERTEX
  8
MY3DLAYER
10
127.295977715351
20
155.935674396517
30
-5.63993296509579e-015
 70
     32
  0
VERTEX
  8
MY3DLAYER
10
127.295977715351
20
135.935674396517
30
-5.63993296509579e-015
 70
     32
  0
SEQEND
  0
POLYLINE
 8
Servo
 66
     1
70
    8
 10
0.0
 20
 0.0
 30
0.0
  0
VERTEX
  8
MY3DLAYER
10
117.295977715351
20
135.935674396517
30
15.0
 70
     32
  0
VERTEX
  8
MY3DLAYER
10
117.295977715351
20
135.935674396517
30
-2.8199664825479e-015
 70
     32
  0
VERTEX
  8
MY3DLAYER
10
112.295977715351
20
135.935674396517
30
0.0
 70
     32
  0
VERTEX
  8
MY3DLAYER
10
112.295977715351
20
135.935674396517
30
15.0
 70
     32
  0
VERTEX
  8
MY3DLAYER
10
117.295977715351
20
135.935674396517
30
15.0
 70
     32
  0
SEQEND
  0
POLYLINE
 8
Servo
 66
     1
70
    8
 10
0.0
 20
 0.0
 30
0.0
  0
VERTEX
  8
MY3DLAYER
10
117.295977715351
20
155.935674396517
30
15.0
 70
     32
  0
VERTEX
  8
MY3DLAYER
10
117.295977715351
20
135.935674396517
30
15.0
 70
     32
  0
VERTEX
  8
MY3DLAYER
10
112.295977715351
20
135.935674396517
30
15.0
 70
     32
  0
VERTEX
  8
MY3DLAYER
10
112.295977715351
20
155.935674396517
30
15.0
 70
     32
  0
VERTEX
  8
MY3DLAYER
10
117.295977715351
20
155.935674396517
30
15.0
 70
     32
  0
SEQEND
  0
POLYLINE
 8
Servo
 66
     1
70
    8
 10
0.0
 20
 0.0
 30
0.0
  0
VERTEX
  8
MY3DLAYER
10
112.295977715351
20
155.765303527962
30
6.20590477448738
 70
     32
  0
VERTEX
  8
MY3DLAYER
10
112.295977715351
20
155.935674396517
30
7.50000000000001
 70
     32
  0
VERTEX
  8
MY3DLAYER
10
107.295977715351
20
155.935674396517
30
7.50000000000001
 70
     32
  0
VERTEX
  8
MY3DLAYER
10
107.295977715351
20
155.765303527962
30
6.20590477448739
 70
     32
  0
VERTEX
  8
MY3DLAYER
10
112.295977715351
20
155.765303527962
30
6.20590477448738
 70
     32
  0
SEQEND
  0
POLYLINE
 8
Servo
 66
     1
70
    8
 10
0.0
 20
 0.0
 30
0.0
  0
VERTEX
  8
MY3DLAYER
10
112.295977715351
20
135.935674396517
30
15.0
 70
     32
  0
VERTEX
  8
MY3DLAYER
10
112.295977715351
20
135.935674396517
30
0.0
 70
     32
  0
VERTEX
  8
MY3DLAYER
10
112.295977715351
20
155.935674396517
30
0.0
 70
     32
  0
VERTEX
  8
MY3DLAYER
10
112.295977715351
20
155.935674396517
30
7.50000000000001
 70
     32
  0
VERTEX
  8
MY3DLAYER
10
112.295977715351
20
155.935674396517
30
15.0
 70
     32
  0
VERTEX
  8
MY3DLAYER
10
112.295977715351
20
135.935674396517
30
15.0
 70
     32
  0
SEQEND
  0
POLYLINE
 8
Servo
 66
     1
70
    8
 10
0.0
 20
 0.0
 30
0.0
  0
VERTEX
  8
MY3DLAYER
10
127.295977715351
20
155.935674396517
30
-5.63993296509579e-015
 70
     32
  0
VERTEX
  8
MY3DLAYER
10
127.295977715351
20
155.935674396517
30
15.0
 70
     32
  0
VERTEX
  8
MY3DLAYER
10
117.295977715351
20
155.935674396517
30
15.0
 70
     32
  0
VERTEX
  8
MY3DLAYER
10
117.295977715351
20
155.935674396517
30
-2.8199664825479e-015
 70
     32
  0
VERTEX
  8
MY3DLAYER
10
127.295977715351
20
155.935674396517
30
-5.63993296509579e-015
 70
     32
  0
SEQEND
  0
POLYLINE
 8
Servo
 66
     1
70
    8
 10
0.0
 20
 0.0
 30
0.0
  0
VERTEX
  8
MY3DLAYER
10
112.295977715351
20
150.935674396517
30
2.50000000000002
 70
     32
  0
VERTEX
  8
MY3DLAYER
10
112.295977715351
20
152.22976962203
30
2.67037086855468
 70
     32
  0
VERTEX
  8
MY3DLAYER
10
107.295977715351
20
152.22976962203
30
2.67037086855469
 70
     32
  0
VERTEX
  8
MY3DLAYER
10
107.295977715351
20
150.935674396517
30
2.50000000000002
 70
     32
  0
VERTEX
  8
MY3DLAYER
10
112.295977715351
20
150.935674396517
30
2.50000000000002
 70
     32
  0
SEQEND
  0
POLYLINE
 8
Servo
 66
     1
70
    8
 10
0.0
 20
 0.0
 30
0.0
  0
VERTEX
  8
MY3DLAYER
10
107.295977715351
20
152.435674396517
30
17.5
 70
     32
  0
VERTEX
  8
MY3DLAYER
10
107.295977715351
20
152.435674396517
30
12.2443405812953
 70
     32
  0
VERTEX
  8
MY3DLAYER
10
107.295977715351
20
152.22976962203
30
12.3296291314453
 70
     32
  0
VERTEX
  8
MY3DLAYER
10
107.295977715351
20
150.935674396517
30
12.5
 70
     32
  0
VERTEX
  8
MY3DLAYER
10
107.295977715351
20
149.641579171004
30
12.3296291314453
 70
     32
  0
VERTEX
  8
MY3DLAYER
10
107.295977715351
20
149.435674396517
30
12.2443405812953
 70
     32
  0
VERTEX
  8
MY3DLAYER
10
107.295977715351
20
149.435674396517
30
17.5
 70
     32
  0
VERTEX
  8
MY3DLAYER
10
107.295977715351
20
152.435674396517
30
17.5
 70
     32
  0
SEQEND
  0
POLYLINE
 8
Servo
 66
     1
70
    8
 10
0.0
 20
 0.0
 30
0.0
  0
VERTEX
  8
MY3DLAYER
10
112.295977715351
20
146.605547377595
30
4.99999999999999
 70
     32
  0
VERTEX
  8
MY3DLAYER
10
112.295977715351
20
147.400140490584
30
3.96446609406726
 70
     32
  0
VERTEX
  8
MY3DLAYER
10
107.295977715351
20
147.400140490584
30
3.96446609406727
 70
     32
  0
VERTEX
  8
MY3DLAYER
10
107.295977715351
20
146.605547377595
30
4.99999999999999
 70
     32
  0
VERTEX
  8
MY3DLAYER
10
112.295977715351
20
146.605547377595
30
4.99999999999999
 70
     32
  0
SEQEND
  0
POLYLINE
 8
Servo
 66
     1
70
    8
 10
0.0
 20
 0.0
 30
0.0
  0
VERTEX
  8
MY3DLAYER
10
107.295977715351
20
149.435674396517
30
7.50000000000001
 70
     32
  0
VERTEX
  8
MY3DLAYER
10
107.295977715351
20
152.435674396517
30
7.50000000000001
 70
     32
  0
VERTEX
  8
MY3DLAYER
10
105.295977715351
20
152.435674396517
30
7.50000000000001
 70
     32
  0
VERTEX
  8
MY3DLAYER
10
105.295977715351
20
149.435674396517
30
7.50000000000001
 70
     32
  0
VERTEX
  8
MY3DLAYER
10
107.295977715351
20
149.435674396517
30
7.50000000000001
 70
     32
  0
SEQEND
  0
POLYLINE
 8
Servo
 66
     1
70
    8
 10
0.0
 20
 0.0
 30
0.0
  0
VERTEX
  8
MY3DLAYER
10
107.295977715351
20
152.435674396517
30
7.50000000000001
 70
     32
  0
VERTEX
  8
MY3DLAYER
10
107.295977715351
20
152.435674396517
30
12.2443405812953
 70
     32
  0
VERTEX
  8
MY3DLAYER
10
107.295977715351
20
152.435674396517
30
17.5
 70
     32
  0
VERTEX
  8
MY3DLAYER
10
105.295977715351
20
152.435674396517
30
17.5
 70
     32
  0
VERTEX
  8
MY3DLAYER
10
105.295977715351
20
152.435674396517
30
7.50000000000001
 70
     32
  0
VERTEX
  8
MY3DLAYER
10
107.295977715351
20
152.435674396517
30
7.50000000000001
 70
     32
  0
SEQEND
  0
POLYLINE
 8
Servo
 66
     1
70
    8
 10
0.0
 20
 0.0
 30
0.0
  0
VERTEX
  8
MY3DLAYER
10
112.295977715351
20
155.935674396517
30
7.50000000000001
 70
     32
  0
VERTEX
  8
MY3DLAYER
10
112.295977715351
20
155.765303527962
30
6.20590477448738
 70
     32
  0
VERTEX
  8
MY3DLAYER
10
112.295977715351
20
155.265801415439
30
4.99999999999999
 70
     32
  0
VERTEX
  8
MY3DLAYER
10
112.295977715351
20
154.47120830245
30
3.96446609406726
 70
     32
  0
VERTEX
  8
MY3DLAYER
10
112.295977715351
20
153.435674396517
30
3.1698729810778
 70
     32
  0
VERTEX
  8
MY3DLAYER
10
112.295977715351
20
152.22976962203
30
2.67037086855468
 70
     32
  0
VERTEX
  8
MY3DLAYER
10
112.295977715351
20
150.935674396517
30
2.50000000000002
 70
     32
  0
VERTEX
  8
MY3DLAYER
10
112.295977715351
20
149.641579171004
30
2.67037086855468
 70
     32
  0
VERTEX
  8
MY3DLAYER
10
112.295977715351
20
148.435674396517
30
3.1698729810778
 70
     32
  0
VERTEX
  8
MY3DLAYER
10
112.295977715351
20
147.400140490584
30
3.96446609406726
 70
     32
  0
VERTEX
  8
MY3DLAYER
10
112.295977715351
20
146.605547377595
30
4.99999999999999
 70
     32
  0
VERTEX
  8
MY3DLAYER
10
112.295977715351
20
146.106045265072
30
6.20590477448738
 70
     32
  0
VERTEX
  8
MY3DLAYER
10
112.295977715351
20
145.935674396517
30
7.50000000000001
 70
     32
  0
VERTEX
  8
MY3DLAYER
10
112.295977715351
20
146.106045265072
30
8.79409522551259
 70
     32
  0
VERTEX
  8
MY3DLAYER
10
112.295977715351
20
146.605547377595
30
10.0
 70
     32
  0
VERTEX
  8
MY3DLAYER
10
112.295977715351
20
147.400140490584
30
11.0355339059328
 70
     32
  0
VERTEX
  8
MY3DLAYER
10
112.295977715351
20
148.435674396517
30
11.8301270189222
 70
     32
  0
VERTEX
  8
MY3DLAYER
10
112.295977715351
20
149.641579171004
30
12.3296291314453
 70
     32
  0
VERTEX
  8
MY3DLAYER
10
112.295977715351
20
150.935674396517
30
12.5
 70
     32
  0
VERTEX
  8
MY3DLAYER
10
112.295977715351
20
152.22976962203
30
12.3296291314453
 70
     32
  0
VERTEX
  8
MY3DLAYER
10
112.295977715351
20
153.435674396517
30
11.8301270189222
 70
     32
  0
VERTEX
  8
MY3DLAYER
10
112.295977715351
20
154.47120830245
30
11.0355339059328
 70
     32
  0
VERTEX
  8
MY3DLAYER
10
112.295977715351
20
155.265801415439
30
10.0
 70
     32
  0
VERTEX
  8
MY3DLAYER
10
112.295977715351
20
155.765303527962
30
8.79409522551263
 70
     32
  0
VERTEX
  8
MY3DLAYER
10
112.295977715351
20
155.935674396517
30
7.50000000000001
 70
     32
  0
SEQEND
  0
POLYLINE
 8
Servo
 66
     1
70
    8
 10
0.0
 20
 0.0
 30
0.0
  0
VERTEX
  8
MY3DLAYER
10
112.295977715351
20
146.605547377595
30
10.0
 70
     32
  0
VERTEX
  8
MY3DLAYER
10
112.295977715351
20
146.106045265072
30
8.79409522551259
 70
     32
  0
VERTEX
  8
MY3DLAYER
10
107.295977715351
20
146.106045265072
30
8.79409522551259
 70
     32
  0
VERTEX
  8
MY3DLAYER
10
107.295977715351
20
146.605547377595
30
10.0
 70
     32
  0
VERTEX
  8
MY3DLAYER
10
112.295977715351
20
146.605547377595
30
10.0
 70
     32
  0
SEQEND
  0
POLYLINE
 8
Servo
 66
     1
70
    8
 10
0.0
 20
 0.0
 30
0.0
  0
VERTEX
  8
MY3DLAYER
10
112.295977715351
20
148.435674396517
30
11.8301270189222
 70
     32
  0
VERTEX
  8
MY3DLAYER
10
112.295977715351
20
147.400140490584
30
11.0355339059328
 70
     32
  0
VERTEX
  8
MY3DLAYER
10
107.295977715351
20
147.400140490584
30
11.0355339059328
 70
     32
  0
VERTEX
  8
MY3DLAYER
10
107.295977715351
20
148.435674396517
30
11.8301270189222
 70
     32
  0
VERTEX
  8
MY3DLAYER
10
112.295977715351
20
148.435674396517
30
11.8301270189222
 70
     32
  0
SEQEND
  0
POLYLINE
 8
Servo
 66
     1
70
    8
 10
0.0
 20
 0.0
 30
0.0
  0
VERTEX
  8
MY3DLAYER
10
112.295977715351
20
149.641579171004
30
12.3296291314453
 70
     32
  0
VERTEX
  8
MY3DLAYER
10
112.295977715351
20
148.435674396517
30
11.8301270189222
 70
     32
  0
VERTEX
  8
MY3DLAYER
10
107.295977715351
20
148.435674396517
30
11.8301270189222
 70
     32
  0
VERTEX
  8
MY3DLAYER
10
107.295977715351
20
149.435674396517
30
12.2443405812953
 70
     32
  0
VERTEX
  8
MY3DLAYER
10
107.295977715351
20
149.641579171004
30
12.3296291314453
 70
     32
  0
VERTEX
  8
MY3DLAYER
10
112.295977715351
20
149.641579171004
30
12.3296291314453
 70
     32
  0
SEQEND
  0
POLYLINE
 8
Servo
 66
     1
70
    8
 10
0.0
 20
 0.0
 30
0.0
  0
VERTEX
  8
MY3DLAYER
10
112.295977715351
20
146.106045265072
30
8.79409522551259
 70
     32
  0
VERTEX
  8
MY3DLAYER
10
112.295977715351
20
145.935674396517
30
7.50000000000001
 70
     32
  0
VERTEX
  8
MY3DLAYER
10
107.295977715351
20
145.935674396517
30
7.50000000000001
 70
     32
  0
VERTEX
  8
MY3DLAYER
10
107.295977715351
20
146.106045265072
30
8.79409522551259
 70
     32
  0
VERTEX
  8
MY3DLAYER
10
112.295977715351
20
146.106045265072
30
8.79409522551259
 70
     32
  0
SEQEND
  0
POLYLINE
 8
Servo
 66
     1
70
    8
 10
0.0
 20
 0.0
 30
0.0
  0
VERTEX
  8
MY3DLAYER
10
112.295977715351
20
154.47120830245
30
11.0355339059328
 70
     32
  0
VERTEX
  8
MY3DLAYER
10
112.295977715351
20
153.435674396517
30
11.8301270189222
 70
     32
  0
VERTEX
  8
MY3DLAYER
10
107.295977715351
20
153.435674396517
30
11.8301270189222
 70
     32
  0
VERTEX
  8
MY3DLAYER
10
107.295977715351
20
154.47120830245
30
11.0355339059328
 70
     32
  0
VERTEX
  8
MY3DLAYER
10
112.295977715351
20
154.47120830245
30
11.0355339059328
 70
     32
  0
SEQEND
  0
POLYLINE
 8
Servo
 66
     1
70
    8
 10
0.0
 20
 0.0
 30
0.0
  0
VERTEX
  8
MY3DLAYER
10
112.295977715351
20
153.435674396517
30
11.8301270189222
 70
     32
  0
VERTEX
  8
MY3DLAYER
10
112.295977715351
20
152.22976962203
30
12.3296291314453
 70
     32
  0
VERTEX
  8
MY3DLAYER
10
107.295977715351
20
152.22976962203
30
12.3296291314453
 70
     32
  0
VERTEX
  8
MY3DLAYER
10
107.295977715351
20
152.435674396517
30
12.2443405812953
 70
     32
  0
VERTEX
  8
MY3DLAYER
10
107.295977715351
20
153.435674396517
30
11.8301270189222
 70
     32
  0
VERTEX
  8
MY3DLAYER
10
112.295977715351
20
153.435674396517
30
11.8301270189222
 70
     32
  0
SEQEND
  0
POLYLINE
 8
Servo
 66
     1
70
    8
 10
0.0
 20
 0.0
 30
0.0
  0
VERTEX
  8
MY3DLAYER
10
112.295977715351
20
146.106045265072
30
6.20590477448738
 70
     32
  0
VERTEX
  8
MY3DLAYER
10
112.295977715351
20
146.605547377595
30
4.99999999999999
 70
     32
  0
VERTEX
  8
MY3DLAYER
10
107.295977715351
20
146.605547377595
30
4.99999999999999
 70
     32
  0
VERTEX
  8
MY3DLAYER
10
107.295977715351
20
146.106045265072
30
6.20590477448739
 70
     32
  0
VERTEX
  8
MY3DLAYER
10
112.295977715351
20
146.106045265072
30
6.20590477448738
 70
     32
  0
SEQEND
  0
POLYLINE
 8
Servo
 66
     1
70
    8
 10
0.0
 20
 0.0
 30
0.0
  0
VERTEX
  8
MY3DLAYER
10
112.295977715351
20
145.935674396517
30
7.50000000000001
 70
     32
  0
VERTEX
  8
MY3DLAYER
10
112.295977715351
20
146.106045265072
30
6.20590477448738
 70
     32
  0
VERTEX
  8
MY3DLAYER
10
107.295977715351
20
146.106045265072
30
6.20590477448739
 70
     32
  0
VERTEX
  8
MY3DLAYER
10
107.295977715351
20
145.935674396517
30
7.50000000000001
 70
     32
  0
VERTEX
  8
MY3DLAYER
10
112.295977715351
20
145.935674396517
30
7.50000000000001
 70
     32
  0
SEQEND
  0
POLYLINE
 8
Servo
 66
     1
70
    8
 10
0.0
 20
 0.0
 30
0.0
  0
VERTEX
  8
MY3DLAYER
10
112.295977715351
20
155.265801415439
30
4.99999999999999
 70
     32
  0
VERTEX
  8
MY3DLAYER
10
112.295977715351
20
155.765303527962
30
6.20590477448738
 70
     32
  0
VERTEX
  8
MY3DLAYER
10
107.295977715351
20
155.765303527962
30
6.20590477448739
 70
     32
  0
VERTEX
  8
MY3DLAYER
10
107.295977715351
20
155.265801415439
30
4.99999999999999
 70
     32
  0
VERTEX
  8
MY3DLAYER
10
112.295977715351
20
155.265801415439
30
4.99999999999999
 70
     32
  0
SEQEND
  0
POLYLINE
 8
Servo
 66
     1
70
    8
 10
0.0
 20
 0.0
 30
0.0
  0
VERTEX
  8
MY3DLAYER
10
112.295977715351
20
150.935674396517
30
12.5
 70
     32
  0
VERTEX
  8
MY3DLAYER
10
112.295977715351
20
149.641579171004
30
12.3296291314453
 70
     32
  0
VERTEX
  8
MY3DLAYER
10
107.295977715351
20
149.641579171004
30
12.3296291314453
 70
     32
  0
VERTEX
  8
MY3DLAYER
10
107.295977715351
20
150.935674396517
30
12.5
 70
     32
  0
VERTEX
  8
MY3DLAYER
10
112.295977715351
20
150.935674396517
30
12.5
 70
     32
  0
SEQEND
  0
POLYLINE
 8
Servo
 66
     1
70
    8
 10
0.0
 20
 0.0
 30
0.0
  0
VERTEX
  8
MY3DLAYER
10
112.295977715351
20
152.22976962203
30
12.3296291314453
 70
     32
  0
VERTEX
  8
MY3DLAYER
10
112.295977715351
20
150.935674396517
30
12.5
 70
     32
  0
VERTEX
  8
MY3DLAYER
10
107.295977715351
20
150.935674396517
30
12.5
 70
     32
  0
VERTEX
  8
MY3DLAYER
10
107.295977715351
20
152.22976962203
30
12.3296291314453
 70
     32
  0
VERTEX
  8
MY3DLAYER
10
112.295977715351
20
152.22976962203
30
12.3296291314453
 70
     32
  0
SEQEND
  0
POLYLINE
 8
Servo
 66
     1
70
    8
 10
0.0
 20
 0.0
 30
0.0
  0
VERTEX
  8
MY3DLAYER
10
112.295977715351
20
152.22976962203
30
2.67037086855468
 70
     32
  0
VERTEX
  8
MY3DLAYER
10
112.295977715351
20
153.435674396517
30
3.1698729810778
 70
     32
  0
VERTEX
  8
MY3DLAYER
10
107.295977715351
20
153.435674396517
30
3.1698729810778
 70
     32
  0
VERTEX
  8
MY3DLAYER
10
107.295977715351
20
152.22976962203
30
2.67037086855469
 70
     32
  0
VERTEX
  8
MY3DLAYER
10
112.295977715351
20
152.22976962203
30
2.67037086855468
 70
     32
  0
SEQEND
  0
POLYLINE
 8
Servo
 66
     1
70
    8
 10
0.0
 20
 0.0
 30
0.0
  0
VERTEX
  8
MY3DLAYER
10
112.295977715351
20
147.400140490584
30
11.0355339059328
 70
     32
  0
VERTEX
  8
MY3DLAYER
10
112.295977715351
20
146.605547377595
30
10.0
 70
     32
  0
VERTEX
  8
MY3DLAYER
10
107.295977715351
20
146.605547377595
30
10.0
 70
     32
  0
VERTEX
  8
MY3DLAYER
10
107.295977715351
20
147.400140490584
30
11.0355339059328
 70
     32
  0
VERTEX
  8
MY3DLAYER
10
112.295977715351
20
147.400140490584
30
11.0355339059328
 70
     32
  0
SEQEND
  0
POLYLINE
 8
Servo
 66
     1
70
    8
 10
0.0
 20
 0.0
 30
0.0
  0
VERTEX
  8
MY3DLAYER
10
112.295977715351
20
155.265801415439
30
10.0
 70
     32
  0
VERTEX
  8
MY3DLAYER
10
112.295977715351
20
154.47120830245
30
11.0355339059328
 70
     32
  0
VERTEX
  8
MY3DLAYER
10
107.295977715351
20
154.47120830245
30
11.0355339059328
 70
     32
  0
VERTEX
  8
MY3DLAYER
10
107.295977715351
20
155.265801415439
30
10.0
 70
     32
  0
VERTEX
  8
MY3DLAYER
10
112.295977715351
20
155.265801415439
30
10.0
 70
     32
  0
SEQEND
  0
POLYLINE
 8
Servo
 66
     1
70
    8
 10
0.0
 20
 0.0
 30
0.0
  0
VERTEX
  8
MY3DLAYER
10
112.295977715351
20
155.765303527962
30
8.79409522551263
 70
     32
  0
VERTEX
  8
MY3DLAYER
10
112.295977715351
20
155.265801415439
30
10.0
 70
     32
  0
VERTEX
  8
MY3DLAYER
10
107.295977715351
20
155.265801415439
30
10.0
 70
     32
  0
VERTEX
  8
MY3DLAYER
10
107.295977715351
20
155.765303527962
30
8.79409522551264
 70
     32
  0
VERTEX
  8
MY3DLAYER
10
112.295977715351
20
155.765303527962
30
8.79409522551263
 70
     32
  0
SEQEND
  0
POLYLINE
 8
Servo
 66
     1
70
    8
 10
0.0
 20
 0.0
 30
0.0
  0
VERTEX
  8
MY3DLAYER
10
112.295977715351
20
155.935674396517
30
7.50000000000001
 70
     32
  0
VERTEX
  8
MY3DLAYER
10
112.295977715351
20
155.765303527962
30
8.79409522551263
 70
     32
  0
VERTEX
  8
MY3DLAYER
10
107.295977715351
20
155.765303527962
30
8.79409522551264
 70
     32
  0
VERTEX
  8
MY3DLAYER
10
107.295977715351
20
155.935674396517
30
7.50000000000001
 70
     32
  0
VERTEX
  8
MY3DLAYER
10
112.295977715351
20
155.935674396517
30
7.50000000000001
 70
     32
  0
SEQEND
  0
POLYLINE
 8
Servo
 66
     1
70
    8
 10
0.0
 20
 0.0
 30
0.0
  0
VERTEX
  8
MY3DLAYER
10
112.295977715351
20
153.435674396517
30
3.1698729810778
 70
     32
  0
VERTEX
  8
MY3DLAYER
10
112.295977715351
20
154.47120830245
30
3.96446609406726
 70
     32
  0
VERTEX
  8
MY3DLAYER
10
107.295977715351
20
154.47120830245
30
3.96446609406727
 70
     32
  0
VERTEX
  8
MY3DLAYER
10
107.295977715351
20
153.435674396517
30
3.1698729810778
 70
     32
  0
VERTEX
  8
MY3DLAYER
10
112.295977715351
20
153.435674396517
30
3.1698729810778
 70
     32
  0
SEQEND
  0
POLYLINE
 8
Servo
 66
     1
70
    8
 10
0.0
 20
 0.0
 30
0.0
  0
VERTEX
  8
MY3DLAYER
10
107.295977715351
20
153.435674396517
30
11.8301270189222
 70
     32
  0
VERTEX
  8
MY3DLAYER
10
107.295977715351
20
152.435674396517
30
12.2443405812953
 70
     32
  0
VERTEX
  8
MY3DLAYER
10
107.295977715351
20
152.435674396517
30
7.50000000000001
 70
     32
  0
VERTEX
  8
MY3DLAYER
10
107.295977715351
20
149.435674396517
30
7.50000000000001
 70
     32
  0
VERTEX
  8
MY3DLAYER
10
107.295977715351
20
149.435674396517
30
12.2443405812953
 70
     32
  0
VERTEX
  8
MY3DLAYER
10
107.295977715351
20
148.435674396517
30
11.8301270189222
 70
     32
  0
VERTEX
  8
MY3DLAYER
10
107.295977715351
20
147.400140490584
30
11.0355339059328
 70
     32
  0
VERTEX
  8
MY3DLAYER
10
107.295977715351
20
146.605547377595
30
10.0
 70
     32
  0
VERTEX
  8
MY3DLAYER
10
107.295977715351
20
146.106045265072
30
8.79409522551259
 70
     32
  0
VERTEX
  8
MY3DLAYER
10
107.295977715351
20
145.935674396517
30
7.50000000000001
 70
     32
  0
VERTEX
  8
MY3DLAYER
10
107.295977715351
20
146.106045265072
30
6.20590477448739
 70
     32
  0
VERTEX
  8
MY3DLAYER
10
107.295977715351
20
146.605547377595
30
4.99999999999999
 70
     32
  0
VERTEX
  8
MY3DLAYER
10
107.295977715351
20
147.400140490584
30
3.96446609406727
 70
     32
  0
VERTEX
  8
MY3DLAYER
10
107.295977715351
20
148.435674396517
30
3.1698729810778
 70
     32
  0
VERTEX
  8
MY3DLAYER
10
107.295977715351
20
149.641579171004
30
2.67037086855469
 70
     32
  0
VERTEX
  8
MY3DLAYER
10
107.295977715351
20
150.935674396517
30
2.50000000000002
 70
     32
  0
VERTEX
  8
MY3DLAYER
10
107.295977715351
20
152.22976962203
30
2.67037086855469
 70
     32
  0
VERTEX
  8
MY3DLAYER
10
107.295977715351
20
153.435674396517
30
3.1698729810778
 70
     32
  0
VERTEX
  8
MY3DLAYER
10
107.295977715351
20
154.47120830245
30
3.96446609406727
 70
     32
  0
VERTEX
  8
MY3DLAYER
10
107.295977715351
20
155.265801415439
30
4.99999999999999
 70
     32
  0
VERTEX
  8
MY3DLAYER
10
107.295977715351
20
155.765303527962
30
6.20590477448739
 70
     32
  0
VERTEX
  8
MY3DLAYER
10
107.295977715351
20
155.935674396517
30
7.50000000000001
 70
     32
  0
VERTEX
  8
MY3DLAYER
10
107.295977715351
20
155.765303527962
30
8.79409522551264
 70
     32
  0
VERTEX
  8
MY3DLAYER
10
107.295977715351
20
155.265801415439
30
10.0
 70
     32
  0
VERTEX
  8
MY3DLAYER
10
107.295977715351
20
154.47120830245
30
11.0355339059328
 70
     32
  0
VERTEX
  8
MY3DLAYER
10
107.295977715351
20
153.435674396517
30
11.8301270189222
 70
     32
  0
SEQEND
  0
POLYLINE
 8
Servo
 66
     1
70
    8
 10
0.0
 20
 0.0
 30
0.0
  0
VERTEX
  8
MY3DLAYER
10
107.295977715351
20
149.435674396517
30
7.50000000000001
 70
     32
  0
VERTEX
  8
MY3DLAYER
10
105.295977715351
20
149.435674396517
30
7.50000000000001
 70
     32
  0
VERTEX
  8
MY3DLAYER
10
105.295977715351
20
149.435674396517
30
17.5
 70
     32
  0
VERTEX
  8
MY3DLAYER
10
107.295977715351
20
149.435674396517
30
17.5
 70
     32
  0
VERTEX
  8
MY3DLAYER
10
107.295977715351
20
149.435674396517
30
12.2443405812953
 70
     32
  0
VERTEX
  8
MY3DLAYER
10
107.295977715351
20
149.435674396517
30
7.50000000000001
 70
     32
  0
SEQEND
  0
LINE
 8
Layer0
10
106.703262787878
20
97.5045873215328
30
12.4271492747301
11
106.295977715351
21
152.435674396517
31
16.5
  0
POLYLINE
 8
Control Horn
 66
     1
70
    8
 10
0.0
 20
 0.0
 30
0.0
  0
VERTEX
  8
MY3DLAYER
10
105.295977715351
20
97.5
30
0.0
 70
     32
  0
VERTEX
  8
MY3DLAYER
10
105.295977715351
20
97.5
30
12.5
 70
     32
  0
VERTEX
  8
MY3DLAYER
10
105.295977715351
20
87.5
30
0.0
 70
     32
  0
VERTEX
  8
MY3DLAYER
10
105.295977715351
20
97.5
30
0.0
 70
     32
  0
SEQEND
  0
POLYLINE
 8
Control Horn
 66
     1
70
    8
 10
0.0
 20
 0.0
 30
0.0
  0
VERTEX
  8
MY3DLAYER
10
108.295977715351
20
97.5
30
0.0
 70
     32
  0
VERTEX
  8
MY3DLAYER
10
108.295977715351
20
97.5
30
12.5
 70
     32
  0
VERTEX
  8
MY3DLAYER
10
108.295977715351
20
87.5
30
0.0
 70
     32
  0
VERTEX
  8
MY3DLAYER
10
108.295977715351
20
97.5
30
0.0
 70
     32
  0
SEQEND
  0
POLYLINE
 8
Control Horn
 66
     1
70
    8
 10
0.0
 20
 0.0
 30
0.0
  0
VERTEX
  8
MY3DLAYER
10
105.295977715351
20
97.5
30
0.0
 70
     32
  0
VERTEX
  8
MY3DLAYER
10
105.295977715351
20
97.5
30
12.5
 70
     32
  0
VERTEX
  8
MY3DLAYER
10
108.295977715351
20
97.5
30
12.5
 70
     32
  0
VERTEX
  8
MY3DLAYER
10
108.295977715351
20
97.5
30
0.0
 70
     32
  0
VERTEX
  8
MY3DLAYER
10
105.295977715351
20
97.5
30
0.0
 70
     32
  0
SEQEND
  0
POLYLINE
 8
Control Horn
 66
     1
70
    8
 10
0.0
 20
 0.0
 30
0.0
  0
VERTEX
  8
MY3DLAYER
10
105.295977715351
20
87.5
30
0.0
 70
     32
  0
VERTEX
  8
MY3DLAYER
10
105.295977715351
20
97.5
30
0.0
 70
     32
  0
VERTEX
  8
MY3DLAYER
10
108.295977715351
20
97.5
30
0.0
 70
     32
  0
VERTEX
  8
MY3DLAYER
10
108.295977715351
20
87.5
30
0.0
 70
     32
  0
VERTEX
  8
MY3DLAYER
10
105.295977715351
20
87.5
30
0.0
 70
     32
  0
SEQEND
  0
POLYLINE
 8
Control Horn
 66
     1
70
    8
 10
0.0
 20
 0.0
 30
0.0
  0
VERTEX
  8
MY3DLAYER
10
105.295977715351
20
97.5
30
12.5
 70
     32
  0
VERTEX
  8
MY3DLAYER
10
105.295977715351
20
87.5
30
0.0
 70
     32
  0
VERTEX
  8
MY3DLAYER
10
108.295977715351
20
87.5
30
0.0
 70
     32
  0
VERTEX
  8
MY3DLAYER
10
108.295977715351
20
97.5
30
12.5
 70
     32
  0
VERTEX
  8
MY3DLAYER
10
105.295977715351
20
97.5
30
12.5
 70
     32
  0
SEQEND
  0
POLYLINE
 8
Control Horn
 66
     1
70
    8
 10
0.0
 20
 0.0
 30
0.0
  0
VERTEX
  8
MY3DLAYER
10
192.388088704972
20
97.5
30
0.0
 70
     32
  0
VERTEX
  8
MY3DLAYER
10
192.388088704972
20
97.5
30
12.5
 70
     32
  0
VERTEX
  8
MY3DLAYER
10
192.388088704972
20
87.5
30
0.0
 70
     32
  0
VERTEX
  8
MY3DLAYER
10
192.388088704972
20
97.5
30
0.0
 70
     32
  0
SEQEND
  0
POLYLINE
 8
Control Horn
 66
     1
70
    8
 10
0.0
 20
 0.0
 30
0.0
  0
VERTEX
  8
MY3DLAYER
10
195.388088704972
20
97.5
30
0.0
 70
     32
  0
VERTEX
  8
MY3DLAYER
10
195.388088704972
20
97.5
30
12.5
 70
     32
  0
VERTEX
  8
MY3DLAYER
10
195.388088704972
20
87.5
30
0.0
 70
     32
  0
VERTEX
  8
MY3DLAYER
10
195.388088704972
20
97.5
30
0.0
 70
     32
  0
SEQEND
  0
POLYLINE
 8
Control Horn
 66
     1
70
    8
 10
0.0
 20
 0.0
 30
0.0
  0
VERTEX
  8
MY3DLAYER
10
192.388088704972
20
97.5
30
0.0
 70
     32
  0
VERTEX
  8
MY3DLAYER
10
192.388088704972
20
97.5
30
12.5
 70
     32
  0
VERTEX
  8
MY3DLAYER
10
195.388088704972
20
97.5
30
12.5
 70
     32
  0
VERTEX
  8
MY3DLAYER
10
195.388088704972
20
97.5
30
0.0
 70
     32
  0
VERTEX
  8
MY3DLAYER
10
192.388088704972
20
97.5
30
0.0
 70
     32
  0
SEQEND
  0
POLYLINE
 8
Control Horn
 66
     1
70
    8
 10
0.0
 20
 0.0
 30
0.0
  0
VERTEX
  8
MY3DLAYER
10
192.388088704972
20
87.5
30
0.0
 70
     32
  0
VERTEX
  8
MY3DLAYER
10
192.388088704972
20
97.5
30
0.0
 70
     32
  0
VERTEX
  8
MY3DLAYER
10
195.388088704972
20
97.5
30
0.0
 70
     32
  0
VERTEX
  8
MY3DLAYER
10
195.388088704972
20
87.5
30
0.0
 70
     32
  0
VERTEX
  8
MY3DLAYER
10
192.388088704972
20
87.5
30
0.0
 70
     32
  0
SEQEND
  0
POLYLINE
 8
Control Horn
 66
     1
70
    8
 10
0.0
 20
 0.0
 30
0.0
  0
VERTEX
  8
MY3DLAYER
10
192.388088704972
20
97.5
30
12.5
 70
     32
  0
VERTEX
  8
MY3DLAYER
10
192.388088704972
20
87.5
30
0.0
 70
     32
  0
VERTEX
  8
MY3DLAYER
10
195.388088704972
20
87.5
30
0.0
 70
     32
  0
VERTEX
  8
MY3DLAYER
10
195.388088704972
20
97.5
30
12.5
 70
     32
  0
VERTEX
  8
MY3DLAYER
10
192.388088704972
20
97.5
30
12.5
 70
     32
  0
SEQEND
  0
LINE
 8
Layer0
10
193.905110129984
20
97.5
30
11.5
11
193.994492998249
21
152.422461864872
31
15.7001532791538
  0
POLYLINE
 8
Layer0
 66
     1
70
    8
 10
0.0
 20
 0.0
 30
0.0
  0
VERTEX
  8
MY3DLAYER
10
151.5
20
139.327105207203
30
62.2888493795661
 70
     32
  0
VERTEX
  8
MY3DLAYER
10
175.0
20
0.0
30
0.0
 70
     32
  0
VERTEX
  8
MY3DLAYER
10
179.398826979472
20
66.9599217986315
30
0.0
 70
     32
  0
VERTEX
  8
MY3DLAYER
10
180.715328467153
20
87.0
30
0.0
 70
     32
  0
VERTEX
  8
MY3DLAYER
10
181.536496350365
20
99.5
30
0.0
 70
     32
  0
VERTEX
  8
MY3DLAYER
10
184.0
20
137.0
30
0.0
 70
     32
  0
VERTEX
  8
MY3DLAYER
10
151.5
20
139.327105207203
30
62.2888493795661
 70
     32
  0
SEQEND
  0
POLYLINE
 8
Layer0
 66
     1
70
    8
 10
0.0
 20
 0.0
 30
0.0
  0
VERTEX
  8
MY3DLAYER
10
175.0
20
0.0
30
0.0
 70
     32
  0
VERTEX
  8
MY3DLAYER
10
151.5
20
139.327105207203
30
62.2888493795661
 70
     32
  0
VERTEX
  8
MY3DLAYER
10
151.5
20
0.0
30
62.2888493795661
 70
     32
  0
VERTEX
  8
MY3DLAYER
10
175.0
20
0.0
30
0.0
 70
     32
  0
SEQEND
  0
POLYLINE
 8
Layer0
 66
     1
70
    8
 10
0.0
 20
 0.0
 30
0.0
  0
VERTEX
  8
MY3DLAYER
10
125.0
20
0.0
30
0.0
 70
     32
  0
VERTEX
  8
MY3DLAYER
10
148.5
20
139.327105207203
30
62.2888493795661
 70
     32
  0
VERTEX
  8
MY3DLAYER
10
116.0
20
137.0
30
0.0
 70
     32
  0
VERTEX
  8
MY3DLAYER
10
118.463503649635
20
99.5
30
0.0
 70
     32
  0
VERTEX
  8
MY3DLAYER
10
119.284671532847
20
87.0
30
0.0
 70
     32
  0
VERTEX
  8
MY3DLAYER
10
120.595995311035
20
67.0387380431316
30
0.0
 70
     32
  0
VERTEX
  8
MY3DLAYER
10
125.0
20
0.0
30
0.0
 70
     32
  0
SEQEND
  0
POLYLINE
 8
Layer0
 66
     1
70
    8
 10
0.0
 20
 0.0
 30
0.0
  0
VERTEX
  8
MY3DLAYER
10
125.0
20
0.0
30
0.0
 70
     32
  0
VERTEX
  8
MY3DLAYER
10
150.0
20
139.327105207203
30
62.2888493795661
 70
     32
  0
VERTEX
  8
MY3DLAYER
10
116.0
20
137.0
30
0.0
 70
     32
  0
VERTEX
  8
MY3DLAYER
10
118.463503649635
20
99.5
30
0.0
 70
     32
  0
VERTEX
  8
MY3DLAYER
10
119.284671532847
20
87.0
30
0.0
 70
     32
  0
VERTEX
  8
MY3DLAYER
10
120.595995311035
20
67.0387380431316
30
0.0
 70
     32
  0
VERTEX
  8
MY3DLAYER
10
125.0
20
0.0
30
0.0
 70
     32
  0
SEQEND
  0
POLYLINE
 8
Layer0
 66
     1
70
    8
 10
0.0
 20
 0.0
 30
0.0
  0
VERTEX
  8
MY3DLAYER
10
5.77350269189626
20
75.0
30
0.0
 70
     32
  0
VERTEX
  8
MY3DLAYER
10
19.9185842870421
20
99.5
30
0.0
 70
     32
  0
VERTEX
  8
MY3DLAYER
10
19.918584287042
20
99.5
30
-3.0
 70
     32
  0
VERTEX
  8
MY3DLAYER
10
5.77350269189626
20
75.0
30
-3.0
 70
     32
  0
VERTEX
  8
MY3DLAYER
10
5.77350269189626
20
75.0
30
0.0
 70
     32
  0
SEQEND
  0
POLYLINE
 8
Layer0
 66
     1
70
    8
 10
0.0
 20
 0.0
 30
0.0
  0
VERTEX
  8
MY3DLAYER
10
120.595995311035
20
67.0387380431316
30
0.0
 70
     32
  0
VERTEX
  8
MY3DLAYER
10
119.284671532847
20
87.0
30
0.0
 70
     32
  0
VERTEX
  8
MY3DLAYER
10
118.463503649635
20
99.5
30
0.0
 70
     32
  0
VERTEX
  8
MY3DLAYER
10
19.9185842870421
20
99.5
30
0.0
 70
     32
  0
VERTEX
  8
MY3DLAYER
10
5.77350269189626
20
75.0
30
0.0
 70
     32
  0
VERTEX
  8
MY3DLAYER
10
120.595995311035
20
67.0387380431316
30
0.0
 70
     32
  0
SEQEND
  0
POLYLINE
 8
Layer0
 66
     1
70
    8
 10
0.0
 20
 0.0
 30
0.0
  0
VERTEX
  8
MY3DLAYER
10
119.284671532847
20
87.0
30
0.0
 70
     32
  0
VERTEX
  8
MY3DLAYER
10
134.0
20
87.0
30
0.0
 70
     32
  0
VERTEX
  8
MY3DLAYER
10
134.0
20
137.0
30
0.0
 70
     32
  0
VERTEX
  8
MY3DLAYER
10
116.0
20
137.0
30
0.0
 70
     32
  0
VERTEX
  8
MY3DLAYER
10
118.463503649635
20
99.5
30
0.0
 70
     32
  0
VERTEX
  8
MY3DLAYER
10
119.284671532847
20
87.0
30
0.0
 70
     32
  0
SEQEND
  0
POLYLINE
 8
Layer0
 66
     1
70
    8
 10
0.0
 20
 0.0
 30
0.0
  0
VERTEX
  8
MY3DLAYER
10
150.0
20
65.0
30
-3.52495810318487e-016
 70
     32
  0
VERTEX
  8
MY3DLAYER
10
120.595995311035
20
67.0387380431316
30
0.0
 70
     32
  0
VERTEX
  8
MY3DLAYER
10
119.284671532847
20
87.0
30
0.0
 70
     32
  0
VERTEX
  8
MY3DLAYER
10
134.0
20
87.0
30
0.0
 70
     32
  0
VERTEX
  8
MY3DLAYER
10
180.715328467153
20
87.0
30
0.0
 70
     32
  0
VERTEX
  8
MY3DLAYER
10
179.398826979472
20
66.9599217986315
30
0.0
 70
     32
  0
VERTEX
  8
MY3DLAYER
10
150.0
20
65.0
30
-3.52495810318487e-016
 70
     32
  0
SEQEND
  0
POLYLINE
 8
Layer0
 66
     1
70
    8
 10
0.0
 20
 0.0
 30
0.0
  0
VERTEX
  8
MY3DLAYER
10
120.595995311035
20
67.0387380431316
30
0.0
 70
     32
  0
VERTEX
  8
MY3DLAYER
10
119.284671532847
20
87.0
30
0.0
 70
     32
  0
VERTEX
  8
MY3DLAYER
10
119.284671532847
20
87.0
30
-3.0
 70
     32
  0
VERTEX
  8
MY3DLAYER
10
120.595995311035
20
67.0387380431316
30
-3.0
 70
     32
  0
VERTEX
  8
MY3DLAYER
10
120.595995311035
20
67.0387380431316
30
-0.547091589342947
 70
     32
  0
VERTEX
  8
MY3DLAYER
10
120.595995311035
20
67.0387380431316
30
0.0
 70
     32
  0
SEQEND
  0
POLYLINE
 8
Layer0
 66
     1
70
    8
 10
0.0
 20
 0.0
 30
0.0
  0
VERTEX
  8
MY3DLAYER
10
126.009883534945
20
283.255520538362
30
0.0
 70
     32
  0
VERTEX
  8
MY3DLAYER
10
19.9185842870421
20
99.5
30
0.0
 70
     32
  0
VERTEX
  8
MY3DLAYER
10
118.463503649635
20
99.5
30
0.0
 70
     32
  0
VERTEX
  8
MY3DLAYER
10
116.0
20
137.0
30
0.0
 70
     32
  0
VERTEX
  8
MY3DLAYER
10
126.009883534945
20
283.255520538362
30
0.0
 70
     32
  0
SEQEND
  0
POLYLINE
 8
Layer0
 66
     1
70
    8
 10
0.0
 20
 0.0
 30
0.0
  0
VERTEX
  8
MY3DLAYER
10
126.009883534945
20
283.255520538362
30
-3.0
 70
     32
  0
VERTEX
  8
MY3DLAYER
10
19.918584287042
20
99.5
30
-3.0
 70
     32
  0
VERTEX
  8
MY3DLAYER
10
19.9185842870421
20
99.5
30
0.0
 70
     32
  0
VERTEX
  8
MY3DLAYER
10
126.009883534945
20
283.255520538362
30
0.0
 70
     32
  0
VERTEX
  8
MY3DLAYER
10
126.009883534945
20
283.255520538362
30
-3.0
 70
     32
  0
SEQEND
  0
POLYLINE
 8
Layer0
 66
     1
70
    8
 10
0.0
 20
 0.0
 30
0.0
  0
VERTEX
  8
MY3DLAYER
10
294.440483209154
20
74.629365547277
30
-3.0
 70
     32
  0
VERTEX
  8
MY3DLAYER
10
280.081415712958
20
99.5
30
-3.0
 70
     32
  0
VERTEX
  8
MY3DLAYER
10
280.081415712958
20
99.5
30
0.0
 70
     32
  0
VERTEX
  8
MY3DLAYER
10
294.440483209154
20
74.629365547277
30
0.0
 70
     32
  0
VERTEX
  8
MY3DLAYER
10
294.440483209154
20
74.629365547277
30
-3.0
 70
     32
  0
SEQEND
  0
POLYLINE
 8
Layer0
 66
     1
70
    8
 10
0.0
 20
 0.0
 30
0.0
  0
VERTEX
  8
MY3DLAYER
10
184.0
20
137.0
30
0.0
 70
     32
  0
VERTEX
  8
MY3DLAYER
10
181.536496350365
20
99.5
30
0.0
 70
     32
  0
VERTEX
  8
MY3DLAYER
10
280.081415712958
20
99.5
30
0.0
 70
     32
  0
VERTEX
  8
MY3DLAYER
10
173.990116465055
20
283.255520538361
30
0.0
 70
     32
  0
VERTEX
  8
MY3DLAYER
10
184.0
20
137.0
30
0.0
 70
     32
  0
SEQEND
  0
POLYLINE
 8
Layer0
 66
     1
70
    8
 10
0.0
 20
 0.0
 30
0.0
  0
VERTEX
  8
MY3DLAYER
10
145.380750360913
20
214.870902708188
30
44.967867368048
 70
     32
  0
VERTEX
  8
MY3DLAYER
10
145.349440633172
20
226.926745296842
30
43.499213495519
 70
     32
  0
VERTEX
  8
MY3DLAYER
10
145.380750360913
20
226.976879913262
30
43.5477106185593
 70
     32
  0
VERTEX
  8
MY3DLAYER
10
145.380750360913
20
214.870902708188
30
44.967867368048
 70
     32
  0
SEQEND
  0
POLYLINE
 8
Layer0
 66
     1
70
    8
 10
0.0
 20
 0.0
 30
0.0
  0
VERTEX
  8
MY3DLAYER
10
145.380750360913
20
214.870902708188
30
44.967867368048
 70
     32
  0
VERTEX
  8
MY3DLAYER
10
145.349440633172
20
226.926745296842
30
43.499213495519
 70
     32
  0
VERTEX
  8
MY3DLAYER
10
145.380750360913
20
226.976879913262
30
43.5477106185593
 70
     32
  0
VERTEX
  8
MY3DLAYER
10
145.380750360913
20
214.870902708188
30
44.967867368048
 70
     32
  0
SEQEND
  0
POLYLINE
 8
Layer0
 66
     1
70
    8
 10
0.0
 20
 0.0
 30
0.0
  0
VERTEX
  8
MY3DLAYER
10
116.0
20
137.0
30
0.0
 70
     32
  0
VERTEX
  8
MY3DLAYER
10
149.529820844558
20
428.105596840399
30
27.7021566704501
 70
     32
  0
VERTEX
  8
MY3DLAYER
10
150.0
20
139.327105207203
30
62.2888493795661
 70
     32
  0
VERTEX
  8
MY3DLAYER
10
116.0
20
137.0
30
0.0
 70
     32
  0
SEQEND
  0
POLYLINE
 8
Layer0
 66
     1
70
    8
 10
0.0
 20
 0.0
 30
0.0
  0
VERTEX
  8
MY3DLAYER
10
130.875720874598
20
202.656461239609
30
19.7046782778179
 70
     32
  0
VERTEX
  8
MY3DLAYER
10
130.895120191879
20
190.741629375044
30
21.1317050139501
 70
     32
  0
VERTEX
  8
MY3DLAYER
10
145.380750360913
20
214.870902708188
30
44.967867368048
 70
     32
  0
VERTEX
  8
MY3DLAYER
10
145.380750360913
20
226.976879913262
30
43.5477106185593
 70
     32
  0
VERTEX
  8
MY3DLAYER
10
145.349440633172
20
226.926745296842
30
43.499213495519
 70
     32
  0
VERTEX
  8
MY3DLAYER
10
130.875720874598
20
202.656461239609
30
19.7046782778179
 70
     32
  0
SEQEND
  0
POLYLINE
 8
Layer0
 66
     1
70
    8
 10
0.0
 20
 0.0
 30
0.0
  0
VERTEX
  8
MY3DLAYER
10
145.282326251119
20
251.194732472848
30
40.5451196904497
 70
     32
  0
VERTEX
  8
MY3DLAYER
10
130.949304328899
20
227.669220999479
30
16.91925603653
 70
     32
  0
VERTEX
  8
MY3DLAYER
10
131.521379842644
20
216.569932386015
30
19.2679831074409
 70
     32
  0
VERTEX
  8
MY3DLAYER
10
145.282326251119
20
238.905634191685
30
41.9801555881013
 70
     32
  0
VERTEX
  8
MY3DLAYER
10
145.282326251119
20
251.194732472848
30
40.5451196904497
 70
     32
  0
SEQEND
  0
POLYLINE
 8
Layer0
 66
     1
70
    8
 10
0.0
 20
 0.0
 30
0.0
  0
VERTEX
  8
MY3DLAYER
10
145.216200556875
20
275.598696764095
30
37.5737211046565
 70
     32
  0
VERTEX
  8
MY3DLAYER
10
130.743855325541
20
251.321994164486
30
13.7792190375044
 70
     32
  0
VERTEX
  8
MY3DLAYER
10
131.006686057356
20
240.27664557617
30
15.5526315763865
 70
     32
  0
VERTEX
  8
MY3DLAYER
10
145.249146873807
20
263.405782862113
30
39.0581470532014
 70
     32
  0
VERTEX
  8
MY3DLAYER
10
145.216200556875
20
275.598696764095
30
37.5737211046565
 70
     32
  0
SEQEND
  0
POLYLINE
 8
Layer0
 66
     1
70
    8
 10
0.0
 20
 0.0
 30
0.0
  0
VERTEX
  8
MY3DLAYER
10
149.529820844558
20
428.105596840399
30
27.7021566704501
 70
     32
  0
VERTEX
  8
MY3DLAYER
10
184.0
20
137.0
30
0.0
 70
     32
  0
VERTEX
  8
MY3DLAYER
10
150.0
20
139.327105207203
30
62.2888493795661
 70
     32
  0
VERTEX
  8
MY3DLAYER
10
149.529820844558
20
428.105596840399
30
27.7021566704501
 70
     32
  0
SEQEND
  0
POLYLINE
 8
Layer0
 66
     1
70
    8
 10
0.0
 20
 0.0
 30
0.0
  0
VERTEX
  8
MY3DLAYER
10
168.913818877489
20
202.656461239609
30
19.7046782778179
 70
     32
  0
VERTEX
  8
MY3DLAYER
10
154.339906233385
20
226.976130584694
30
43.5412936554518
 70
     32
  0
VERTEX
  8
MY3DLAYER
10
154.372252040505
20
214.870902708188
30
44.967867368048
 70
     32
  0
VERTEX
  8
MY3DLAYER
10
168.933218194771
20
190.741629375044
30
21.1317050139501
 70
     32
  0
VERTEX
  8
MY3DLAYER
10
168.913818877489
20
202.656461239609
30
19.7046782778179
 70
     32
  0
SEQEND
  0
POLYLINE
 8
Layer0
 66
     1
70
    8
 10
0.0
 20
 0.0
 30
0.0
  0
VERTEX
  8
MY3DLAYER
10
154.352384988587
20
251.194732472848
30
40.5451196904497
 70
     32
  0
VERTEX
  8
MY3DLAYER
10
154.464476280436
20
238.905634191685
30
41.8475005482441
 70
     32
  0
VERTEX
  8
MY3DLAYER
10
168.907174364886
20
214.804924214751
30
18.2254954174805
 70
     32
  0
VERTEX
  8
MY3DLAYER
10
168.900549190708
20
226.918029873239
30
16.7506176232975
 70
     32
  0
VERTEX
  8
MY3DLAYER
10
154.352384988587
20
251.194732472848
30
40.5451196904497
 70
     32
  0
SEQEND
  0
POLYLINE
 8
Layer0
 66
     1
70
    8
 10
0.0
 20
 0.0
 30
0.0
  0
VERTEX
  8
MY3DLAYER
10
154.345737329
20
263.405782862113
30
39.0581470532014
 70
     32
  0
VERTEX
  8
MY3DLAYER
10
168.893850795412
20
239.129178601853
30
15.2637914108736
 70
     32
  0
VERTEX
  8
MY3DLAYER
10
168.887201621669
20
251.321994164486
30
13.7792190375044
 70
     32
  0
VERTEX
  8
MY3DLAYER
10
154.339037419548
20
275.598696764095
30
37.5737211046565
 70
     32
  0
VERTEX
  8
MY3DLAYER
10
154.345737329
20
263.405782862113
30
39.0581470532014
 70
     32
  0
SEQEND
  0
POLYLINE
 8
Layer0
 66
     1
70
    8
 10
0.0
 20
 0.0
 30
0.0
  0
VERTEX
  8
MY3DLAYER
10
166.0
20
400.0
30
0.0
 70
     32
  0
VERTEX
  8
MY3DLAYER
10
173.990116465055
20
283.255520538361
30
0.0
 70
     32
  0
VERTEX
  8
MY3DLAYER
10
184.0
20
137.0
30
0.0
 70
     32
  0
VERTEX
  8
MY3DLAYER
10
149.529820844558
20
428.105596840399
30
27.7021566704501
 70
     32
  0
VERTEX
  8
MY3DLAYER
10
166.0
20
400.0
30
0.0
 70
     32
  0
SEQEND
  0
POLYLINE
 8
Layer0
 66
     1
70
    8
 10
0.0
 20
 0.0
 30
0.0
  0
VERTEX
  8
MY3DLAYER
10
125.0
20
2.08153855330344e-016
30
-0.547091589342942
 70
     32
  0
VERTEX
  8
MY3DLAYER
10
128.0
20
0.0
30
-0.547091589342939
 70
     32
  0
VERTEX
  8
MY3DLAYER
10
172.0
20
0.0
30
-0.547091589342919
 70
     32
  0
VERTEX
  8
MY3DLAYER
10
175.0
20
2.08153855330344e-016
30
-0.547091589342942
 70
     32
  0
VERTEX
  8
MY3DLAYER
10
179.398826979472
20
66.9599217986315
30
-0.547091589342947
 70
     32
  0
VERTEX
  8
MY3DLAYER
10
150.0
20
65.0
30
-0.547091589342945
 70
     32
  0
VERTEX
  8
MY3DLAYER
10
120.595995311035
20
67.0387380431316
30
-0.547091589342947
 70
     32
  0
VERTEX
  8
MY3DLAYER
10
125.0
20
2.08153855330344e-016
30
-0.547091589342942
 70
     32
  0
SEQEND
  0
LINE
 8
Layer0
10
150.0
20
65.0
30
-0.547091589342945
11
150.0
21
65.0
31
-3.0
 0
ENDSEC
 0
EOF
