 0
SECTION
 2
ENTITIES
  0
LINE
 8
UpperLeftFront-a
10
-490.816258780817
20
291.248137451851
30
-4.51194637207664e-014
11
-196.479501168271
21
291.248137451851
31
0.0
  0
LINE
 8
UpperLeftFront-a
10
-208.516675023284
20
361.222580080998
30
3.38395977905748e-014
11
-196.479501168271
21
291.248137451851
31
0.0
  0
LINE
 8
UpperLeftFront-a
10
-340.421235682271
20
318.738985064039
30
-1.12798659301916e-014
11
-328.505635935874
21
321.720635271777
31
-1.12798659301916e-014
  0
LINE
 8
UpperLeftFront-a
10
-281.074758703146
20
333.590285231538
30
1.12798659301916e-014
11
-292.914178091721
21
330.692067122541
31
0.00310112844535908
  0
LINE
 8
UpperLeftFront-a
10
-292.914178091721
20
330.692067122541
30
0.00310112844535908
11
-292.856462731821
21
330.64194454479
31
0.00154736236389423
  0
LINE
 8
UpperLeftFront-a
10
-490.816258780817
20
291.248137451851
30
-4.51194637207664e-014
11
-208.516675023284
21
361.222580080998
31
3.38395977905748e-014
  0
LINE
 8
UpperLeftFront-a
10
-253.316825003039
20
309.306235621744
30
1.12798659301916e-014
11
-264.964340913538
21
306.419130996924
31
0.0
  0
LINE
 8
UpperLeftFront-a
10
-253.316825003039
20
309.306235621744
30
1.12798659301916e-014
11
-281.074758703146
21
333.590285231538
31
1.12798659301916e-014
  0
LINE
 8
UpperLeftFront-a
10
-292.856462731821
20
330.64194454479
30
0.00154736236389423
11
-264.964340913538
21
306.419130996924
31
0.0
  0
LINE
 8
UpperLeftFront-a
10
-316.572365037035
20
324.707102375077
30
-2.25597318603832e-014
11
-289.448742568622
21
300.595367781915
31
0.0
  0
LINE
 8
UpperLeftFront-a
10
-289.448742568622
20
300.595367781915
30
0.0
11
-278.757523887438
21
304.434096749052
31
-1.12798659301916e-014
  0
LINE
 8
UpperLeftFront-a
10
-304.553235217169
20
327.643389650673
30
-1.12798659301916e-014
11
-278.757523887438
21
304.434096749052
31
-1.12798659301916e-014
  0
LINE
 8
UpperLeftFront-a
10
-316.572365037035
20
324.707102375077
30
-2.25597318603832e-014
11
-304.553235217169
21
327.643389650673
31
-1.12798659301916e-014
  0
LINE
 8
UpperLeftFront-a
10
-340.421235682271
20
318.738985064039
30
-1.12798659301916e-014
11
-312.52292548429
21
294.517719978876
31
-2.25597318603832e-014
  0
LINE
 8
UpperLeftFront-a
10
-301.795679592955
20
297.702055553354
30
-1.12798659301916e-014
11
-312.52292548429
21
294.517719978876
31
-2.25597318603832e-014
  0
LINE
 8
UpperLeftFront-a
10
-301.795679592955
20
297.702055553354
30
-1.12798659301916e-014
11
-328.505635935874
21
321.720635271777
31
-1.12798659301916e-014
  0
LINE
 8
LeftRearLower-a
10
-396.83474960695
20
124.884722105604
30
3.72233619711907e-013
11
-259.347791830431
21
54.588709104816
31
-1.0152074935614e-013
  0
LINE
 8
LeftRearLower-a
10
-396.83474960695
20
124.884722105604
30
3.72233619711907e-013
11
-396.643094007891
21
54.588709104816
31
1.12779099457762e-014
  0
LINE
 8
LeftRearLower-a
10
-396.643094007891
20
54.588709104816
30
1.12779099457762e-014
11
-359.0622631199
21
54.588709104816
31
1.12779099457762e-014
  0
LINE
 8
LeftRearLower-a
10
-359.0622631199
20
54.588709104816
30
1.12779099457762e-014
11
-346.53531949057
21
54.588709104816
31
-1.1281821914607e-014
  0
LINE
 8
LeftRearLower-a
10
-346.53531949057
20
54.588709104816
30
-1.1281821914607e-014
11
-326.531031226251
21
54.588709104816
31
-3.38415537749902e-014
  0
LINE
 8
LeftRearLower-a
10
-326.531031226251
20
54.588709104816
30
-3.38415537749902e-014
11
-259.347791830431
21
54.588709104816
31
-1.0152074935614e-013
  0
LINE
 8
Bottom
10
-614.601455733736
20
22.9416688440263
30
5.63993296509579e-015
11
-564.601455733736
21
22.9416688440263
31
5.63993296509579e-015
  0
LINE
 8
Bottom
10
-605.601455733736
20
422.941668844026
30
0.0
11
-613.591572198791
21
306.197189382388
31
0.0
  0
LINE
 8
Bottom
10
-573.601455733736
20
422.941668844026
30
0.0
11
-605.601455733736
21
422.941668844026
31
0.0
  0
LINE
 8
Bottom
10
-565.611339268681
20
306.197189382388
30
0.0
11
-573.601455733736
21
422.941668844026
31
0.0
  0
LINE
 8
Bottom
10
-560.202628754264
20
89.9015906426578
30
0.0
11
-564.601455733736
21
22.9416688440263
31
5.63993296509579e-015
  0
LINE
 8
Bottom
10
-733.82795304184
20
97.9416688440263
30
0.0
11
-719.682871446694
21
122.441668844026
31
0.0
  0
LINE
 8
Bottom
10
-558.886127266583
20
109.941668844026
30
0.0
11
-560.202628754264
21
89.9015906426578
31
0.0
  0
LINE
 8
Bottom
10
-558.064959383371
20
122.441668844026
30
0.0
11
-558.886127266583
21
109.941668844026
31
0.0
  0
LINE
 8
Bottom
10
-459.520040020778
20
122.441668844026
30
0.0
11
-558.064959383371
21
122.441668844026
31
0.0
  0
LINE
 8
Bottom
10
-459.520040020778
20
122.441668844026
30
0.0
11
-445.160972524582
21
97.5710343913033
31
0.0
  0
LINE
 8
Bottom
10
-560.202628754264
20
89.9015906426578
30
0.0
11
-445.160972524582
21
97.5710343913033
31
0.0
  0
LINE
 8
Bottom
10
-719.682871446694
20
122.441668844026
30
0.0
11
-621.137952084101
21
122.441668844026
31
0.0
  0
LINE
 8
Bottom
10
-733.82795304184
20
97.9416688440263
30
0.0
11
-619.005460422701
21
89.9804068871579
31
0.0
  0
LINE
 8
Bottom
10
-620.316784200889
20
109.941668844026
30
0.0
11
-619.005460422701
21
89.9804068871579
31
0.0
  0
LINE
 8
Bottom
10
-621.137952084101
20
122.441668844026
30
0.0
11
-620.316784200889
21
109.941668844026
31
0.0
  0
LINE
 8
Bottom
10
-565.611339268681
20
306.197189382388
30
0.0
11
-459.520040020778
21
122.441668844026
31
0.0
  0
LINE
 8
Bottom
10
-619.005460422701
20
89.9804068871579
30
0.0
11
-614.601455733736
21
22.9416688440263
31
5.63993296509579e-015
  0
LINE
 8
Bottom
10
-719.682871446694
20
122.441668844026
30
0.0
11
-613.591572198791
21
306.197189382388
31
0.0
  0
LINE
 8
TailLeft-a
10
-238.468665641463
20
227.524977530976
30
0.0
11
-377.795770848667
21
149.524977530976
31
0.0
  0
LINE
 8
TailLeft-a
10
-377.795770848667
20
149.524977530976
30
0.0
11
-238.468665641463
21
149.524977530976
31
0.0
  0
LINE
 8
TailLeft-a
10
-238.468665641463
20
149.524977530976
30
0.0
11
-238.468665641463
21
227.524977530976
31
0.0
  0
LINE
 8
UpperRearLeft-b
10
-382.093973297666
20
133.551568825982
30
9.83138206506899e-015
11
-242.766868090463
21
133.551568825982
31
9.83138206506899e-015
  0
LINE
 8
UpperRearLeft-b
10
-382.093973297666
20
133.551568825982
30
9.83138206506899e-015
11
-242.766868090463
21
66.9771686632296
31
5.49508457858353e-014
  0
LINE
 8
UpperRearLeft-b
10
-242.766868090463
20
133.551568825982
30
9.83138206506899e-015
11
-242.766868090463
21
66.9771686632296
31
5.49508457858353e-014
  0
LINE
 8
LowerFrontLeft-b
10
-461.983766210416
20
251.750300046554
30
-4.73754369068047e-013
11
-344.966180156464
21
251.750300046554
31
-2.48157050464215e-013
  0
LINE
 8
LowerFrontLeft-b
10
-344.966180156464
20
251.750300046554
30
-2.48157050464215e-013
11
-198.368516272177
21
251.750300046554
31
0.0
  0
LINE
 8
LowerFrontLeft-b
10
-491.08416440826
20
282.599549926254
30
7.55751017322837e-013
11
-198.368516272177
21
251.750300046554
31
0.0
  0
LINE
 8
LowerFrontLeft-b
10
-491.08416440826
20
282.599549926254
30
7.55751017322837e-013
11
-461.983766210416
21
251.750300046554
31
-4.73754369068047e-013
 0
ENDSEC
 0
EOF
